<svg width="35" height="35" viewBox="0 0 35 35" fill="none" xmlns="http://www.w3.org/2000/svg">
<path d="M10.999 0.704092C10.835 0.792959 10.6094 0.998037 10.4932 1.15526L10.2881 1.44921L10.2676 5.05175L10.2471 8.65429L10.4111 8.95507C10.5 9.12597 10.7051 9.35155 10.8623 9.46776C11.1357 9.65917 11.1973 9.67284 11.8945 9.69335L12.6396 9.72069L12.6602 10.418C12.6875 11.375 12.7559 11.375 13.6514 10.4316L14.335 9.70702H17.8213H21.3145L21.6768 9.51562C21.9707 9.36523 22.0801 9.25585 22.2305 8.96191L22.4219 8.5996V5.12694V1.65429L22.2305 1.29198C22.0801 0.998037 21.9707 0.888662 21.6768 0.738272L21.3145 0.546865H16.3037H11.2998L10.999 0.704092ZM14.0752 4.53905C14.5332 4.77831 14.5195 5.51659 14.0479 5.72851C13.7471 5.86523 13.5352 5.82421 13.2891 5.57812C12.9746 5.26366 12.9746 4.99023 13.2891 4.67577C13.542 4.42284 13.7676 4.38183 14.0752 4.53905ZM16.7617 4.64159C16.9463 4.80566 16.9873 4.88769 16.9873 5.12694C16.9873 5.3662 16.9463 5.44823 16.7617 5.6123C16.5156 5.83105 16.29 5.85839 15.9961 5.708C15.7568 5.58495 15.6543 5.41405 15.6543 5.12694C15.6543 4.84667 15.75 4.67577 15.9824 4.55273C16.2695 4.3955 16.5156 4.42284 16.7617 4.64159ZM19.332 4.61425C19.5781 4.81933 19.6396 5.08593 19.5166 5.37987C19.2363 6.0498 18.252 5.86523 18.252 5.14062C18.252 4.53905 18.8809 4.23144 19.332 4.61425Z" fill="#C9C9CA"/>
<path d="M23.502 5.94043L23.4814 8.9209L23.2627 9.37207C22.9961 9.91211 22.5654 10.3291 22.0254 10.582L21.6357 10.7666L18.5459 10.7871C15.5654 10.8076 15.4492 10.8145 15.4492 10.9375C15.4492 11.3135 15.791 11.7646 16.2354 11.9697C16.4814 12.0859 16.707 12.0996 18.5664 12.0996H20.6172L21.3623 12.8516C21.7656 13.2617 22.1211 13.6035 22.1484 13.6035C22.2988 13.6035 22.3535 13.3848 22.3535 12.7695V12.0996H23.0029C23.9395 12.0996 24.3428 11.9014 24.6162 11.3135C24.7324 11.0605 24.7461 10.7939 24.7461 7.52637C24.7461 4.08105 24.7461 3.99902 24.6025 3.70508C24.4521 3.39746 24.1035 3.11719 23.7344 3.01465L23.5225 2.95312L23.502 5.94043Z" fill="#C9C9CA"/>
<path d="M4.2041 8.63382C3.75293 8.78421 3.52734 8.92776 3.21973 9.26272C2.78223 9.74124 2.63867 10.1104 2.63867 10.7666C2.63867 11.416 2.78223 11.792 3.19922 12.25C3.52734 12.5987 3.9375 12.8242 4.45703 12.9268C5.39355 13.1182 6.43945 12.5508 6.84961 11.6348C7.05469 11.1836 7.05469 10.3428 6.85645 9.89847C6.64453 9.44046 6.14551 8.92776 5.72168 8.75003C5.29102 8.55862 4.58691 8.51077 4.2041 8.63382Z" fill="#C9C9CA"/>
<path d="M29.5654 8.63382C29.1143 8.78421 28.8887 8.92776 28.5811 9.26272C28.1436 9.74124 28 10.1104 28 10.7666C28 11.416 28.1436 11.792 28.5605 12.25C28.8887 12.5987 29.2988 12.8242 29.8184 12.9268C30.7549 13.1182 31.8008 12.5508 32.2178 11.6348C32.4229 11.1836 32.4229 10.3496 32.2178 9.89847C32.0059 9.44046 31.5068 8.92776 31.083 8.75003C30.6523 8.55862 29.9482 8.51077 29.5654 8.63382Z" fill="#C9C9CA"/>
<path d="M4.25195 13.8701C3.8418 14.0137 3.47949 14.3281 3.26074 14.7314C3.11035 15.0049 3.11035 15.0254 3.11035 19.4824V23.96L3.30176 24.5137C3.68457 25.6484 4.53906 26.6328 5.57129 27.1455C6.4873 27.5898 6.71289 27.624 8.83887 27.665C10.6299 27.6992 10.7529 27.7129 10.9512 27.8496C11.0674 27.9248 11.2178 28.1025 11.2861 28.2324C11.4092 28.4512 11.416 28.6768 11.416 31.3564C11.416 33.8857 11.4297 34.248 11.5254 34.3438C11.6143 34.4395 11.8604 34.4531 13.1523 34.4531C14.5605 34.4531 14.6836 34.4463 14.793 34.3232C14.9023 34.207 14.9092 33.9404 14.8887 31.0283L14.8682 27.8564L14.6562 27.2686C14.2393 26.1064 13.4326 25.1768 12.4072 24.6709C11.4912 24.2266 11.2656 24.1924 9.13965 24.1514C7.34863 24.1172 7.22559 24.1035 7.02734 23.9668C6.91113 23.8916 6.75391 23.7139 6.68555 23.5771C6.56934 23.3516 6.5625 23.1602 6.57617 21.0273L6.59668 18.7236L7.10938 19.0518L7.62207 19.3799L10.7734 19.4004L13.918 19.4209L14.1504 19.2637C14.8477 18.792 14.8887 17.8418 14.2256 17.3906L13.9795 17.2266H11.1904H8.40137L7.49219 16.6455L6.58301 16.0576L6.54883 15.5312C6.49414 14.6631 6.05664 14.0684 5.3252 13.8496C4.86719 13.7129 4.69629 13.7129 4.25195 13.8701Z" fill="#C9C9CA"/>
<path d="M29.6134 13.8701C28.8956 14.1162 28.4991 14.6836 28.4513 15.5312L28.4171 16.0576L27.5148 16.6455L26.6124 17.2266H23.8165H21.0206L20.7745 17.3906C20.1114 17.8418 20.1525 18.792 20.8497 19.2637L21.0822 19.4209L24.2267 19.4004L27.378 19.3799L27.8907 19.0586L28.4034 18.7373L28.4239 21.0342C28.4376 23.1602 28.4308 23.3516 28.3146 23.5771C28.2462 23.7139 28.089 23.8916 27.9728 23.9668C27.7745 24.1035 27.6515 24.1172 25.8605 24.1514C23.7345 24.1924 23.5089 24.2266 22.5929 24.6709C21.5675 25.1768 20.7335 26.1406 20.337 27.2754L20.132 27.8564L20.1114 31.0283C20.0909 33.9404 20.0978 34.207 20.2072 34.3232C20.3165 34.4463 20.4396 34.4531 21.8478 34.4531C23.1398 34.4531 23.3859 34.4395 23.4747 34.3438C23.5704 34.248 23.5841 33.8857 23.5841 31.3564C23.5841 28.6768 23.5909 28.4512 23.714 28.2324C23.7823 28.1025 23.9327 27.9248 24.0489 27.8496C24.2472 27.7129 24.3702 27.6992 26.1613 27.665C28.2872 27.624 28.5128 27.5898 29.4288 27.1455C30.4542 26.6396 31.3224 25.6416 31.6984 24.5205L31.8898 23.96V19.4824C31.8898 15.0117 31.8898 15.0049 31.7394 14.7246C31.5275 14.3213 31.1036 13.9727 30.6866 13.8496C30.2286 13.7129 30.0577 13.7129 29.6134 13.8701Z" fill="#C9C9CA"/>
<path d="M9.53613 21.4307C9.33105 21.6289 9.31738 21.9365 9.49512 22.1553L9.625 22.3193L13.2891 22.3398L16.9531 22.3604V28.4033V34.4531H17.5H18.0469V28.4033V22.3604L21.7109 22.3398L25.375 22.3193L25.5049 22.1553C25.6826 21.9365 25.6689 21.6289 25.4639 21.4307L25.2998 21.2598H17.5H9.7002L9.53613 21.4307Z" fill="#C9C9CA"/>
<path d="M0.30766 22.6406C0.232465 22.6816 0.136761 22.7705 0.0889098 22.8252C-0.0273011 22.9756 -0.0204652 23.5566 0.102582 24.3018C0.581097 27.2891 2.75493 29.6816 5.72172 30.4951C6.15922 30.6113 6.50785 30.6455 7.69731 30.6729L9.13969 30.707L9.28325 30.5225C9.47465 30.2764 9.47465 30.0645 9.26957 29.8252L9.10551 29.6338L7.74516 29.5928C6.56254 29.5518 6.31645 29.5244 5.79008 29.3672C3.16508 28.5811 1.29887 26.2705 1.12114 23.5908C1.08012 22.9209 1.01176 22.7432 0.772504 22.6338C0.567425 22.5381 0.478558 22.5449 0.30766 22.6406Z" fill="#C9C9CA"/>
<path d="M34.2138 22.6406C33.9745 22.7773 33.9267 22.9072 33.8857 23.543C33.7011 26.2705 31.8486 28.5811 29.2099 29.3672C28.6835 29.5244 28.4374 29.5518 27.2548 29.5928L25.8945 29.6338L25.7304 29.8252C25.5322 30.0576 25.5253 30.2764 25.7099 30.5156L25.8466 30.6934H27.0497C27.9794 30.6934 28.3964 30.666 28.916 30.5566C31.1855 30.0918 33.079 28.6494 34.1386 26.585C34.6718 25.5391 34.9999 24.2812 34.9999 23.3174C34.9931 22.9141 34.9247 22.7705 34.6786 22.6406C34.4941 22.5381 34.3915 22.5381 34.2138 22.6406Z" fill="#C9C9CA"/>
</svg>
