<svg width="35" height="35" viewBox="0 0 35 35" fill="none" xmlns="http://www.w3.org/2000/svg">
<path d="M26.6667 15C29.15 15 31.45 15.7833 33.3333 17.1V10C33.3333 8.15 31.85 6.66667 30 6.66667H23.3333V3.33333C23.3333 1.48333 21.85 0 20 0H13.3333C11.4833 0 10 1.48333 10 3.33333V6.66667H3.33333C1.48333 6.66667 0.0166667 8.15 0.0166667 10L0 28.3333C0 30.1833 1.48333 31.6667 3.33333 31.6667H16.1333C15.2877 29.8892 14.906 27.9266 15.0236 25.9617C15.1412 23.9969 15.7544 22.0938 16.806 20.4299C17.8575 18.766 19.3133 17.3954 21.0375 16.446C22.7618 15.4965 24.6983 14.9991 26.6667 15ZM13.3333 3.33333H20V6.66667H13.3333V3.33333Z" fill="#703CCF"/>
<path d="M26.6666 18.3334C22.0666 18.3334 18.3333 22.0667 18.3333 26.6667C18.3333 31.2667 22.0666 35 26.6666 35C31.2666 35 34.9999 31.2667 34.9999 26.6667C34.9999 22.0667 31.2666 18.3334 26.6666 18.3334ZM29.4166 30.5834L25.8333 27V21.6667H27.4999V26.3167L30.5833 29.4L29.4166 30.5834Z" fill="#703CCF"/>
</svg>
