<svg width="37" height="37" viewBox="0 0 37 37" fill="none" xmlns="http://www.w3.org/2000/svg">
<path d="M3.3584 1.0957C2.24414 1.37598 1.31445 2.32617 1.0752 3.44727C0.96582 3.95996 0.96582 33.04 1.0752 33.5527C1.32129 34.7012 2.29883 35.6787 3.44727 35.9248C3.95996 36.0342 33.0332 36.0342 33.5527 35.9248C34.7012 35.6855 35.6787 34.708 35.9248 33.5527C36.0342 33.04 36.0342 3.95996 35.9248 3.44727C35.6787 2.29199 34.7012 1.32129 33.5527 1.0752C33.0059 0.958984 3.83008 0.979492 3.3584 1.0957ZM20.6055 5.2793C20.8652 5.4502 20.9678 5.67578 21.9248 8.17773C22.4307 9.49023 22.8545 10.5703 22.875 10.5703C22.8955 10.5635 23.1416 10.2217 23.4219 9.79785C24.1943 8.64258 23.9482 8.72461 26.7373 8.72461C29.0479 8.72461 29.0752 8.72461 29.3008 8.875C29.6699 9.12793 29.8066 9.36719 29.8066 9.75C29.8066 10.1328 29.6699 10.3721 29.3008 10.6182C29.082 10.7754 29.0342 10.7754 27.1475 10.7754H25.2197L24.2832 12.1768C23.6611 13.1133 23.2783 13.626 23.1279 13.7148C22.6973 13.9814 22.0137 13.8242 21.7676 13.4004C21.7061 13.291 21.2617 12.1836 20.79 10.9463C20.3115 9.70215 19.9014 8.66992 19.8809 8.64258C19.8535 8.61523 19.6074 8.98438 19.334 9.46973C18.8145 10.3857 18.6572 10.584 18.3428 10.7002C18.2129 10.7549 16.4902 10.7754 13.0381 10.7754H7.9248L7.69922 10.6182C7.33008 10.3721 7.19336 10.1328 7.19336 9.75C7.19336 9.36719 7.33008 9.12793 7.69922 8.875L7.9248 8.72461H12.6553H17.3857L18.3359 7.06348C19.2314 5.49805 19.2998 5.40234 19.5938 5.25195C19.9355 5.08105 20.3115 5.08789 20.6055 5.2793ZM13.6533 14.9453C14.1045 15.0684 14.2002 15.2529 15.1846 17.8096C15.6904 19.1426 16.1279 20.2568 16.1484 20.291C16.1689 20.3252 16.4219 20.0107 16.709 19.5869C17.0029 19.1631 17.3242 18.7529 17.4268 18.6777C17.6182 18.5342 17.6729 18.5342 23.3877 18.5342C29.1025 18.5342 29.1572 18.5342 29.3418 18.6777C29.6836 18.9307 29.8066 19.1562 29.8066 19.5254C29.8066 19.9082 29.6699 20.1475 29.3008 20.3936L29.0752 20.5508H23.8047L18.5342 20.5576L17.6113 21.9385C16.6201 23.4219 16.4219 23.627 15.957 23.627C15.6221 23.627 15.2461 23.4561 15.1094 23.2441C15.0479 23.1621 14.6035 22.0547 14.1182 20.7832C13.6328 19.5186 13.2158 18.4521 13.1953 18.418C13.168 18.3838 12.9355 18.7324 12.6758 19.1973C12.4092 19.6621 12.1289 20.1133 12.0469 20.1953C11.7393 20.5371 11.6572 20.5508 9.72949 20.5508C7.97266 20.5508 7.91797 20.5439 7.69922 20.3936C7.33008 20.1475 7.19336 19.9082 7.19336 19.5254C7.19336 19.1562 7.31641 18.9307 7.6582 18.6777C7.8291 18.5479 7.96582 18.5342 9.27832 18.5L10.7139 18.4658L11.6504 16.8252C12.5391 15.2871 12.6143 15.1777 12.8945 15.0273C13.2363 14.8564 13.3047 14.8496 13.6533 14.9453ZM28.9932 26.9219C30.0049 27.4551 30.0869 28.9043 29.1504 29.54C28.125 30.2373 26.7578 29.5127 26.7578 28.2754C26.7578 27.127 27.9746 26.3887 28.9932 26.9219ZM17.9395 27.3799C18.2402 27.5303 18.5 27.9541 18.5 28.2822C18.5 28.6035 18.2402 29.0205 17.9531 29.1709C17.7275 29.2939 17.4541 29.3008 12.8398 29.3008C9.36719 29.3008 7.91797 29.2803 7.81543 29.2256C7.33008 28.9727 7.09082 28.4873 7.21387 28.0156C7.28906 27.7354 7.5625 27.4346 7.83594 27.3252C7.94531 27.2842 9.81152 27.2568 12.8467 27.2568C17.4678 27.25 17.6934 27.2568 17.9395 27.3799Z" fill="#703CCF"/>
</svg>
