<svg width="33" height="35" viewBox="0 0 33 35" fill="none" xmlns="http://www.w3.org/2000/svg">
<path d="M12.2093 6.51163C14 6.51163 15.4651 5.04651 15.4651 3.25581C15.4651 1.46512 14 0 12.2093 0C10.4186 0 8.95349 1.46512 8.95349 3.25581C8.95349 5.04651 10.4186 6.51163 12.2093 6.51163ZM6.10465 12.0465L1.62791 35H5.04651L7.89535 21.9767L11.3953 25.2326V35H14.6512V22.7093L11.314 19.3721L12.2907 14.4884C14.407 17.093 17.5814 18.7209 21.1628 18.7209V15.4651C18.1512 15.4651 15.5465 13.8372 14.0814 11.4767L12.5349 8.87209C11.9651 7.89535 10.907 7.32558 9.76744 7.32558C9.36047 7.32558 8.95349 7.40698 8.54651 7.56977L0 11.0698V18.7209H3.25581V13.2674L6.10465 12.0465ZM17.907 0.813953V12.2093H24.0116V35H26.4535V12.2093H32.5581V0.813953H17.907ZM26.0628 10.5814V7.73256H20.3488V5.2907H26.0628V2.44186L30.1163 6.51163L26.0628 10.5814Z" fill="#703CCF"/>
</svg>
