<svg width="13" height="11" viewBox="0 0 13 11" fill="none" xmlns="http://www.w3.org/2000/svg">
<path d="M3.30848 2.2C3.30848 2.26471 3.36756 2.32941 3.42664 2.39412L4.60824 3.68824C4.7264 3.81765 4.84456 3.88235 5.0218 3.88235C5.19904 3.88235 5.3172 3.81765 5.43536 3.68824C5.67168 3.42941 5.67168 3.04118 5.43536 2.78235L5.25812 2.58824H7.73948L7.56224 2.78235C7.44408 2.91176 7.385 3.04118 7.385 3.23529C7.385 3.62353 7.62132 3.88235 7.9758 3.88235C8.15304 3.88235 8.2712 3.81765 8.38936 3.68824L9.57096 2.39412C9.63004 2.32941 9.68913 2.26471 9.68913 2.2C9.68913 2.13529 9.74821 2.07059 9.74821 1.94118C9.74821 1.87647 9.74821 1.74706 9.68913 1.68235C9.63004 1.61765 9.63004 1.55294 9.57096 1.48824L8.38936 0.194118C8.15304 -0.0647059 7.79856 -0.0647059 7.56224 0.194118C7.32592 0.452941 7.32592 0.841176 7.56224 1.1L7.73948 1.29412H5.25812L5.43536 1.1C5.67168 0.841176 5.67168 0.452941 5.43536 0.194118C5.19904 -0.0647059 4.84456 -0.0647059 4.60824 0.194118L3.42664 1.48824C3.36756 1.55294 3.30848 1.61765 3.30848 1.68235C3.30848 1.74706 3.2494 1.81176 3.2494 1.94118C3.2494 2.00588 3.2494 2.13529 3.30848 2.2ZM2.954 7.24706C3.78112 7.24706 4.49008 6.47059 4.49008 5.56471C4.49008 4.65882 3.78112 3.88235 2.954 3.88235C2.12688 3.88235 1.41792 4.65882 1.41792 5.56471C1.41792 6.47059 2.12688 7.24706 2.954 7.24706ZM5.19904 8.99412C3.66296 7.63529 1.41792 7.89412 0.17724 9.57647C0.05908 9.77059 0 9.96471 0 10.1588C0 10.6118 0.35448 11 0.76804 11H5.13996C5.43536 11 5.73076 10.8059 5.84892 10.5471C5.96708 10.2882 5.96708 9.9 5.73076 9.64118C5.55352 9.38235 5.37628 9.18823 5.19904 8.99412ZM8.50752 5.56471C8.50752 6.47059 9.21649 7.24706 10.0436 7.24706C10.8707 7.24706 11.5797 6.47059 11.5797 5.56471C11.5797 4.65882 10.8707 3.88235 10.0436 3.88235C9.21649 3.88235 8.50752 4.65882 8.50752 5.56471ZM12.8204 9.64118C12.6431 9.44706 12.4659 9.18824 12.2886 9.05882C10.7526 7.7 8.50752 7.95882 7.26684 9.64118C7.14868 9.77059 7.0896 9.96471 7.0896 10.1588C7.0896 10.6118 7.44408 11 7.85764 11H12.2296C12.525 11 12.8204 10.8059 12.9385 10.5471C13.0567 10.2235 12.9976 9.9 12.8204 9.64118Z" fill="#C9C9CA"/>
</svg>
