<svg width="20" height="20" viewBox="0 0 20 20" fill="none" xmlns="http://www.w3.org/2000/svg">
<path fill-rule="evenodd" clip-rule="evenodd" d="M0 10C0 4.477 4.477 0 10 0C15.523 0 20 4.477 20 10C20 15.523 15.523 20 10 20C4.477 20 0 15.523 0 10ZM6 5C6 4.86739 6.05268 4.74021 6.14645 4.64645C6.24021 4.55268 6.36739 4.5 6.5 4.5H9.5C10.1457 4.50022 10.7662 4.75022 11.2317 5.19766C11.6971 5.6451 11.9715 6.25528 11.9972 6.90042C12.0229 7.54556 11.798 8.17564 11.3696 8.65871C10.9413 9.14178 10.3426 9.44039 9.699 9.492L12 11.793L14.1465 9.6465L14.8535 10.3535L12.707 12.5L14.8535 14.6465L14.1465 15.3535L12 13.207L9.8535 15.3535L9.1465 14.6465L11.293 12.5L8.293 9.5H7V13H6V5ZM9.5 8.5H7V5.5H9.5C9.89782 5.5 10.2794 5.65804 10.5607 5.93934C10.842 6.22064 11 6.60218 11 7C11 7.39782 10.842 7.77936 10.5607 8.06066C10.2794 8.34196 9.89782 8.5 9.5 8.5Z" fill="white"/>
</svg>
