<svg width="27" height="25" viewBox="0 0 27 25" fill="none" xmlns="http://www.w3.org/2000/svg">
<path d="M12.1922 0.739601C7.02556 1.09083 2.61226 4.77622 1.3295 9.81563C1.05463 10.91 0.978271 11.5565 0.978271 12.7986C0.978271 14.0406 1.05463 14.6871 1.3295 15.7815C2.51046 20.4188 6.34855 23.9463 11.0775 24.7302C11.8308 24.8575 12.91 24.9084 13.699 24.8626C14.5032 24.8117 14.6559 24.7964 15.3991 24.6488C19.6444 23.8293 23.2382 20.6173 24.5413 16.489L24.6991 15.98L25.8495 15.9545L27 15.9291L25.4321 12.7986L23.8694 9.66801L22.3067 12.7884C21.4515 14.4987 20.749 15.9138 20.749 15.9291C20.749 15.9444 21.2174 15.9545 21.7926 15.9545C22.3678 15.9545 22.8361 15.9647 22.8361 15.98C22.8361 16.0564 22.4339 17.0082 22.2354 17.4053C20.7134 20.4493 17.7559 22.5618 14.376 23.0046C13.7142 23.0912 12.4569 23.1064 11.841 23.0301C10.7415 22.8926 9.78451 22.6178 8.73591 22.1393C6.62343 21.1772 4.852 19.4465 3.78303 17.3035C2.82096 15.3692 2.50537 12.9564 2.93295 10.8337C3.81867 6.43057 7.38698 3.12187 11.841 2.56702C12.462 2.49067 13.7295 2.50594 14.4065 2.59247C17.873 3.04551 20.917 5.3107 22.4034 8.53796L22.6528 9.08771L23.1517 8.10528C23.4215 7.56571 23.6454 7.08722 23.6454 7.0465C23.6505 6.9396 23.0499 5.9928 22.6172 5.4176C22.1642 4.82203 21.1206 3.76834 20.5454 3.32039C18.8555 2.01218 17.0229 1.20282 14.9766 0.866859C14.544 0.790504 13.0881 0.673428 12.8591 0.693789C12.8183 0.693789 12.518 0.714149 12.1922 0.739601Z" fill="#702cc7"/>
<path d="M13.134 10.4519C12.1719 10.7268 11.5662 11.3223 11.3574 12.1928C11.2607 12.6051 11.2607 13.0887 11.3574 13.501C11.5611 14.3664 12.0905 14.9008 12.9711 15.1401C13.3427 15.2419 13.475 15.2521 14.0808 15.2266C14.5033 15.2113 14.9054 15.1655 15.1243 15.1044L15.4806 15.0128L15.4959 13.725L15.5061 12.4422H14.6152H13.7244V12.8749V13.3076H14.1062H14.488V13.8115V14.3104L14.3302 14.346C13.867 14.4376 13.2816 14.3155 12.9762 14.0711C12.6148 13.7759 12.4417 13.3687 12.4417 12.7985C12.4417 12.0604 12.7776 11.5463 13.3834 11.3427C13.7143 11.2307 14.5033 11.2307 14.8698 11.3427C15.0072 11.3834 15.1294 11.414 15.1345 11.4038C15.2006 11.3427 15.3584 10.5944 15.3177 10.5537C15.1243 10.3603 13.6837 10.2941 13.134 10.4519Z" fill="#702cc7"/>
<path d="M7.38681 12.707C6.99994 13.9745 6.67416 15.0536 6.65889 15.0994C6.63853 15.1809 6.68943 15.191 7.19846 15.191H7.76349L7.8093 15.0231C7.83475 14.9365 7.90602 14.6616 7.97728 14.4122L8.09945 13.9694H8.79173H9.48401L9.65199 14.5395C9.74362 14.8551 9.83016 15.135 9.85052 15.1554C9.87088 15.1758 10.1407 15.1859 10.4512 15.1809L11.0162 15.1656L10.3595 13.0531C9.99814 11.8925 9.66727 10.8185 9.62145 10.6708L9.5451 10.4061H8.81718H8.08927L7.38681 12.707ZM9.06152 12.2387C9.19387 12.7019 9.29567 13.0938 9.29567 13.1142C9.29567 13.1396 9.06661 13.1549 8.78664 13.1549C8.50667 13.1549 8.27761 13.1396 8.27761 13.1193C8.27761 13.104 8.35397 12.7986 8.45068 12.4474C8.5474 12.0961 8.65429 11.6685 8.68993 11.5057C8.76628 11.1493 8.75101 11.1137 9.06152 12.2387Z" fill="#702cc7"/>
<path d="M16.3713 12.7986V15.191H17.9239H19.4764V14.7584V14.3257H18.4838H17.4912V13.7403V13.1549H18.382H19.2728V12.7222V12.2896H18.382H17.4912V11.7805V11.2715H18.4329H19.3746V10.8388V10.4061H17.873H16.3713V12.7986Z" fill="#702cc7"/>
</svg>
