<svg width="14" height="14" viewBox="0 0 14 14" fill="none" xmlns="http://www.w3.org/2000/svg">
<path d="M6.19702 1.83656C6.16206 2.04025 6.08687 2.23494 5.97584 2.40925C5.86481 2.58356 5.72017 2.734 5.55036 2.8518C5.38055 2.96959 5.18897 3.05238 4.98681 3.09532C4.78466 3.13827 4.57597 3.14051 4.37294 3.10192C4.16991 3.06333 3.9766 2.98468 3.8043 2.87056C3.63199 2.75644 3.48415 2.60913 3.3694 2.43725C3.25465 2.26536 3.1753 2.07234 3.13596 1.86945C3.09663 1.66656 3.09811 1.45787 3.14032 1.25556C3.73338 1.61567 4.25022 1.81868 4.78884 1.89257C5.24618 1.95479 5.69885 1.92134 6.19664 1.83656H6.19702ZM3.47905 0.550882C3.65708 0.34053 3.88778 0.181224 4.14756 0.0892452C4.40734 -0.00273326 4.68688 -0.0240849 4.95762 0.0273725C5.22835 0.0788299 5.48057 0.201251 5.68849 0.382123C5.89641 0.562995 6.05257 0.795831 6.14102 1.05683C5.65024 1.14433 5.26562 1.17272 4.89423 1.12178C4.47422 1.06422 4.04177 0.900886 3.47866 0.550882H3.47905ZM3.3056 3.49986C2.24158 3.49986 1.39924 4.14932 0.859067 4.93488C0.315004 5.72706 0 6.75413 0 7.7672C0 8.30815 0.250837 8.93582 0.427783 9.33055C0.535162 9.56804 0.651922 9.80117 0.777788 10.0294V13.2222C0.777788 13.4285 0.859733 13.6263 1.0056 13.7722C1.15146 13.9181 1.34929 14 1.55558 14C1.76186 14 1.95969 13.9181 2.10555 13.7722C2.25142 13.6263 2.33336 13.4285 2.33336 13.2222V8.76704C2.44692 7.83059 2.7137 6.98202 3.01898 6.28823L3.27449 7.28225C3.31738 7.44945 3.41468 7.59764 3.55106 7.70346C3.68744 7.80928 3.85515 7.86673 4.02777 7.86675H6.02786C6.23414 7.86675 6.43197 7.78481 6.57784 7.63895C6.7237 7.49308 6.80564 7.29525 6.80564 7.08897C6.80564 6.88268 6.7237 6.68485 6.57784 6.53899C6.43197 6.39312 6.23414 6.31118 6.02786 6.31118H4.63095L4.05927 4.08398C4.01629 3.91678 3.9189 3.76864 3.78245 3.66288C3.64599 3.55713 3.47823 3.49978 3.3056 3.49986ZM12.0557 4.66655C12.4683 4.66655 12.8639 4.50266 13.1557 4.21093C13.4474 3.9192 13.6113 3.52353 13.6113 3.11097C13.6113 2.69841 13.4474 2.30274 13.1557 2.01101C12.8639 1.71929 12.4683 1.55539 12.0557 1.55539C11.6431 1.55539 11.2475 1.71929 10.9558 2.01101C10.664 2.30274 10.5001 2.69841 10.5001 3.11097C10.5001 3.52353 10.664 3.9192 10.9558 4.21093C11.2475 4.50266 11.6431 4.66655 12.0557 4.66655Z" fill="#703CCF"/>
<path fill-rule="evenodd" clip-rule="evenodd" d="M9.80864 4.68393C9.9827 4.64645 10.1644 4.66984 10.3233 4.75017C10.4822 4.83051 10.6087 4.96293 10.6817 5.12532L11.7115 7.41474H13.2223C13.4286 7.41474 13.6265 7.49668 13.7723 7.64255C13.9182 7.78841 14.0001 7.98624 14.0001 8.19253C14.0001 8.39881 13.9182 8.59664 13.7723 8.74251C13.6265 8.88837 13.4286 8.97031 13.2223 8.97031H11.2083C11.0584 8.9703 10.9117 8.92698 10.7859 8.84557C10.66 8.76416 10.5604 8.64812 10.4989 8.51142L9.94125 7.27201C9.76353 7.59946 9.64647 7.90086 9.57219 8.21392C9.49441 8.54214 9.46019 8.90031 9.46641 9.33665C9.59202 9.38915 9.73125 9.44165 9.88019 9.49299C10.224 9.61121 10.5775 9.70999 10.8664 9.78738L11.0103 9.82588H11.0107C11.0869 9.846 11.163 9.86648 11.239 9.88733C11.2882 9.9006 11.3371 9.91499 11.3856 9.93049L11.3891 9.93166C11.4128 9.93944 11.5167 9.97172 11.6127 10.0304C11.7379 10.1063 11.8251 10.2105 11.8429 10.2315L11.8453 10.2342C11.8814 10.277 11.9176 10.3237 11.9503 10.3684C12.0176 10.4582 12.0969 10.5729 12.1801 10.697C12.3489 10.9475 12.5546 11.2675 12.7522 11.579C12.9901 11.9544 13.2256 12.3312 13.4588 12.7095L13.5241 12.8153L12.8607 13.2221L13.5237 12.8149C13.5772 12.902 13.613 12.9987 13.629 13.0996C13.6451 13.2005 13.6411 13.3036 13.6173 13.403C13.5935 13.5023 13.5504 13.596 13.4904 13.6787C13.4304 13.7614 13.3547 13.8315 13.2677 13.885C13.1806 13.9384 13.0838 13.9742 12.9829 13.9902C12.882 14.0063 12.779 14.0023 12.6796 13.9785C12.5802 13.9548 12.4865 13.9116 12.4038 13.8516C12.3211 13.7916 12.2511 13.7159 12.1976 13.6289L12.1346 13.5258C11.9047 13.1531 11.6726 12.7817 11.4385 12.4116C11.2589 12.1271 11.0757 11.8449 10.889 11.565C10.8369 11.4872 10.7914 11.4211 10.7529 11.3667L10.623 11.3321L10.4631 11.2893C10.0962 11.1932 9.73258 11.0845 9.37308 10.9634L9.33341 10.9494V13.9999H8.55562V11.2776H4.27779V13.9999H3.5V10.1109H7.79067C7.75572 10.0756 7.72237 10.0388 7.69072 10.0005C7.53633 9.81305 7.38894 9.54316 7.38894 9.20326C7.38894 7.37468 7.88206 6.2395 8.4829 5.54921C8.72011 5.27229 9.00665 5.04179 9.32796 4.86943C9.44969 4.80526 9.55625 4.7617 9.63869 4.73332C9.69055 4.71525 9.74324 4.69967 9.79658 4.68665L9.8028 4.68509L9.80592 4.68431H9.80708C9.80708 4.68431 9.80864 4.68393 9.97236 5.44421L9.80864 4.68393ZM10.9236 11.4157C10.9236 11.4157 10.9185 11.4145 10.9104 11.4114C10.9148 11.4128 10.9192 11.4144 10.9236 11.4161V11.4157ZM10.6658 11.2485C10.6644 11.2469 10.6631 11.2454 10.6619 11.2438L10.6658 11.2485Z" fill="#703CCF"/>
<path d="M6.80563 2.33314C7.12764 2.33314 7.38897 1.89758 7.38897 1.36091C7.38897 0.824233 7.12764 0.388672 6.80563 0.388672C6.48363 0.388672 6.22229 0.824233 6.22229 1.36091C6.22229 1.89758 6.48363 2.33314 6.80563 2.33314Z" fill="#703CCF"/>
</svg>
