<svg width="14" height="14" viewBox="0 0 14 14" fill="none" xmlns="http://www.w3.org/2000/svg">
<path d="M13.7103 6.50108L7.3493 0.144765C7.3035 0.0988749 7.2491 0.0624675 7.18921 0.0376269C7.12932 0.0127862 7.06512 0 7.00029 0C6.93545 0 6.87126 0.0127862 6.81137 0.0376269C6.75148 0.0624675 6.69708 0.0988749 6.65128 0.144765L0.290327 6.50108C0.105012 6.6864 0 6.93812 0 7.20065C0 7.74579 0.443213 8.189 0.988349 8.189H1.65857V12.7246C1.65857 12.9979 1.87941 13.2188 2.15275 13.2188H6.01194V9.75955H7.74155V13.2188H11.8478C12.1212 13.2188 12.342 12.9979 12.342 12.7246V8.189H13.0122C13.2748 8.189 13.5265 8.08553 13.7118 7.89867C14.0963 7.5126 14.0963 6.88716 13.7103 6.50108Z" fill="#C9C9CA"/>
</svg>
