<svg width="25" height="35" viewBox="0 0 25 35" fill="none" xmlns="http://www.w3.org/2000/svg">
<path fill-rule="evenodd" clip-rule="evenodd" d="M6.125 2.625C6.125 1.92881 6.40156 1.26113 6.89384 0.768845C7.38613 0.276562 8.05381 0 8.75 0H15.75C16.4462 0 17.1139 0.276562 17.6062 0.768845C18.0984 1.26113 18.375 1.92881 18.375 2.625V4.375C18.375 5.07119 18.0984 5.73887 17.6062 6.23116C17.1139 6.72344 16.4462 7 15.75 7H8.75C8.05381 7 7.38613 6.72344 6.89384 6.23116C6.40156 5.73887 6.125 5.07119 6.125 4.375V2.625ZM8.75 1.75C8.51794 1.75 8.29538 1.84219 8.13128 2.00628C7.96719 2.17038 7.875 2.39294 7.875 2.625V4.375C7.875 4.60706 7.96719 4.82962 8.13128 4.99372C8.29538 5.15781 8.51794 5.25 8.75 5.25H15.75C15.9821 5.25 16.2046 5.15781 16.3687 4.99372C16.5328 4.82962 16.625 4.60706 16.625 4.375V2.625C16.625 2.39294 16.5328 2.17038 16.3687 2.00628C16.2046 1.84219 15.9821 1.75 15.75 1.75H8.75Z" fill="#703CCF"/>
<path fill-rule="evenodd" clip-rule="evenodd" d="M7 2.625H2.625C1.92881 2.625 1.26113 2.90156 0.768844 3.39384C0.276561 3.88613 0 4.55381 0 5.25V32.375C0 33.0712 0.276561 33.7389 0.768844 34.2312C1.26113 34.7234 1.92881 35 2.625 35H21.875C22.5712 35 23.2389 34.7234 23.7312 34.2312C24.2234 33.7389 24.5 33.0712 24.5 32.375V5.25C24.5 4.55381 24.2234 3.88613 23.7312 3.39384C23.2389 2.90156 22.5712 2.625 21.875 2.625H17.5V4.375C17.5 4.83913 17.3156 5.28425 16.9874 5.61244C16.6592 5.94063 16.2141 6.125 15.75 6.125H8.75C8.28587 6.125 7.84075 5.94063 7.51256 5.61244C7.18437 5.28425 7 4.83913 7 4.375V2.625ZM4.375 14.875C4.375 14.6429 4.46719 14.4204 4.63128 14.2563C4.79538 14.0922 5.01794 14 5.25 14H11.375C11.6071 14 11.8296 14.0922 11.9937 14.2563C12.1578 14.4204 12.25 14.6429 12.25 14.875C12.25 15.1071 12.1578 15.3296 11.9937 15.4937C11.8296 15.6578 11.6071 15.75 11.375 15.75H5.25C5.01794 15.75 4.79538 15.6578 4.63128 15.4937C4.46719 15.3296 4.375 15.1071 4.375 14.875ZM5.25 9.625C5.01794 9.625 4.79538 9.71719 4.63128 9.88128C4.46719 10.0454 4.375 10.2679 4.375 10.5C4.375 10.7321 4.46719 10.9546 4.63128 11.1187C4.79538 11.2828 5.01794 11.375 5.25 11.375H18.8125C19.0446 11.375 19.2671 11.2828 19.4312 11.1187C19.5953 10.9546 19.6875 10.7321 19.6875 10.5C19.6875 10.2679 19.5953 10.0454 19.4312 9.88128C19.2671 9.71719 19.0446 9.625 18.8125 9.625H5.25ZM6.125 21.875V23.625H7.875V21.875H6.125ZM5.25 20.125C5.01794 20.125 4.79538 20.2172 4.63128 20.3813C4.46719 20.5454 4.375 20.7679 4.375 21V24.5C4.375 24.7321 4.46719 24.9546 4.63128 25.1187C4.79538 25.2828 5.01794 25.375 5.25 25.375H8.75C8.98206 25.375 9.20463 25.2828 9.36872 25.1187C9.53281 24.9546 9.625 24.7321 9.625 24.5V21C9.625 20.7679 9.53281 20.5454 9.36872 20.3813C9.20463 20.2172 8.98206 20.125 8.75 20.125H5.25ZM18.375 21.875C18.375 22.5712 18.0984 23.2389 17.6062 23.7312C17.1139 24.2234 16.4462 24.5 15.75 24.5C15.0538 24.5 14.3861 24.2234 13.8938 23.7312C13.4016 23.2389 13.125 22.5712 13.125 21.875C13.125 21.1788 13.4016 20.5111 13.8938 20.0188C14.3861 19.5266 15.0538 19.25 15.75 19.25C16.4462 19.25 17.1139 19.5266 17.6062 20.0188C18.0984 20.5111 18.375 21.1788 18.375 21.875ZM15.75 25.6533C13.9974 25.6533 10.5 26.586 10.5 28.4375V30.625H21V28.4375C21 26.586 17.5026 25.6533 15.75 25.6533Z" fill="#703CCF"/>
</svg>
