<svg width="27" height="35" viewBox="0 0 27 35" fill="none" xmlns="http://www.w3.org/2000/svg">
<path fill-rule="evenodd" clip-rule="evenodd" d="M5.38446 2.69223C5.38446 1.97821 5.6681 1.29343 6.17299 0.788536C6.67788 0.283645 7.36266 0 8.07669 0H15.256C15.97 0 16.6548 0.283645 17.1597 0.788536C17.6645 1.29343 17.9482 1.97821 17.9482 2.69223H20.6404C21.3544 2.69223 22.0392 2.97587 22.5441 3.48076C23.049 3.98565 23.3326 4.67043 23.3326 5.38446V18.8456H21.5378V5.38446C21.5378 5.14645 21.4433 4.91819 21.275 4.74989C21.1067 4.5816 20.8784 4.48705 20.6404 4.48705H17.9482C17.9482 5.20107 17.6645 5.88585 17.1597 6.39074C16.6548 6.89563 15.97 7.17928 15.256 7.17928H8.07669C7.36266 7.17928 6.67788 6.89563 6.17299 6.39074C5.6681 5.88585 5.38446 5.20107 5.38446 4.48705H2.69223C2.45422 4.48705 2.22596 4.5816 2.05766 4.74989C1.88937 4.91819 1.79482 5.14645 1.79482 5.38446V30.5119C1.79482 30.7499 1.88937 30.9782 2.05766 31.1465C2.22596 31.3148 2.45422 31.4093 2.69223 31.4093H13.4611V33.2042H2.69223C1.97821 33.2042 1.29343 32.9205 0.788535 32.4156C0.283644 31.9107 0 31.2259 0 30.5119V5.38446C0 4.67043 0.283644 3.98565 0.788535 3.48076C1.29343 2.97587 1.97821 2.69223 2.69223 2.69223H5.38446ZM8.07669 1.79482C7.83868 1.79482 7.61042 1.88937 7.44212 2.05766C7.27382 2.22596 7.17928 2.45422 7.17928 2.69223V4.48705C7.17928 4.72506 7.27382 4.95331 7.44212 5.12161C7.61042 5.28991 7.83868 5.38446 8.07669 5.38446H15.256C15.494 5.38446 15.7222 5.28991 15.8905 5.12161C16.0588 4.95331 16.1534 4.72506 16.1534 4.48705V2.69223C16.1534 2.45422 16.0588 2.22596 15.8905 2.05766C15.7222 1.88937 15.494 1.79482 15.256 1.79482H8.07669ZM10.7689 10.7689V13.4611H8.07669V15.256H10.7689V17.9482H12.5637V15.256H15.256V13.4611H12.5637V10.7689H10.7689ZM15.256 20.6404C15.018 20.6404 14.7897 20.735 14.6214 20.9033C14.4531 21.0716 14.3586 21.2998 14.3586 21.5378V27.6303C14.3586 28.6645 14.6139 29.6826 15.1019 30.5943C15.5899 31.506 16.2954 32.2832 17.1558 32.8569L20.1424 34.8491C20.2898 34.9475 20.4631 35 20.6404 35C20.8177 35 20.991 34.9475 21.1385 34.8491L24.1251 32.8569C24.9854 32.2833 25.6908 31.5063 26.1787 30.5947C26.6667 29.6831 26.9221 28.6652 26.9223 27.6312V21.5378C26.9223 21.2998 26.8277 21.0716 26.6594 20.9033C26.4911 20.735 26.2629 20.6404 26.0249 20.6404H15.256ZM23.9671 25.7619L20.3775 29.3516C20.2092 29.5198 19.981 29.6143 19.743 29.6143C19.505 29.6143 19.2768 29.5198 19.1085 29.3516L17.3137 27.5568L18.5827 26.2878L19.743 27.4482L22.6982 24.493L23.9671 25.7619Z" fill="#703CCF"/>
</svg>
