<svg width="28" height="35" viewBox="0 0 28 35" fill="none" xmlns="http://www.w3.org/2000/svg">
<path d="M23.9833 4.15917H20.2252V5.9398H23.9935C24.9487 5.9398 25.7231 6.71417 25.7231 7.66938V31.5C25.7231 32.4567 24.9473 33.231 23.9921 33.231H4.50144C4.27412 33.231 4.04902 33.1863 3.839 33.0993C3.62898 33.0123 3.43815 32.8848 3.27741 32.724C3.11667 32.5633 2.98916 32.3725 2.90216 32.1624C2.81517 31.9524 2.7704 31.7273 2.7704 31.5V7.66938C2.7704 6.71271 3.54623 5.93834 4.50144 5.93834H8.26977V4.15917H4.51165C3.57925 4.15956 2.68516 4.53012 2.02586 5.18942C1.36656 5.84873 0.995992 6.74282 0.995605 7.67521V31.484C0.996378 32.4161 1.36711 33.3098 2.02637 33.9688C2.68563 34.6278 3.57951 34.9982 4.51165 34.9985H23.9819C24.9142 34.9982 25.8083 34.6276 26.4676 33.9683C27.1269 33.309 27.4975 32.4149 27.4979 31.4825V7.67376C27.4975 6.74136 27.1269 5.84727 26.4676 5.18797C25.8083 4.52866 24.9142 4.1581 23.9819 4.15771L23.9833 4.15917Z" fill="#703CCF"/>
<path d="M19.3823 3.24479H17.4588C17.4588 2.38422 17.1169 1.55889 16.5084 0.950377C15.8999 0.341861 15.0745 0 14.214 0C13.3534 0 12.5281 0.341861 11.9196 0.950377C11.311 1.55889 10.9692 2.38422 10.9692 3.24479H9.05877V7.70292H19.3736V3.24479H19.3823ZM16.0894 3.24479H12.3415V3.19813C12.3415 2.70073 12.5391 2.22371 12.8908 1.87201C13.2425 1.5203 13.7195 1.32271 14.2169 1.32271C14.7143 1.32271 15.1913 1.5203 15.543 1.87201C15.8947 2.22371 16.0923 2.70073 16.0923 3.19813V3.24771V3.24479H16.0894ZM9.67273 12.4133H23.4656V14.1196H9.67273V12.4133ZM9.67273 19.5562H23.4656V21.2625H9.67273V19.5562ZM9.67273 26.6146H23.4656V28.3296H9.67273V26.6146ZM4.83252 11.3123H8.74085V15.2206H4.83252V11.3123ZM4.83252 18.4552H8.74085V22.3635H4.83252V18.4552ZM4.83252 25.5165H8.74085V29.4248H4.83252V25.5165Z" fill="#703CCF"/>
</svg>
