<svg width="35" height="35" viewBox="0 0 35 35" fill="none" xmlns="http://www.w3.org/2000/svg">
<path d="M5.25 7C3.325 7 1.75 8.575 1.75 10.5C1.75 12.425 3.325 14 5.25 14C7.175 14 8.75 12.4425 8.75 10.5C8.75 8.5575 7.1925 7 5.25 7ZM17.5 3.5C16.8078 3.5 16.1311 3.70527 15.5555 4.08986C14.9799 4.47444 14.5313 5.02107 14.2664 5.66061C14.0015 6.30015 13.9322 7.00388 14.0673 7.68282C14.2023 8.36175 14.5356 8.98539 15.0251 9.47487C15.5146 9.96436 16.1383 10.2977 16.8172 10.4327C17.4961 10.5678 18.1999 10.4985 18.8394 10.2336C19.4789 9.96867 20.0256 9.52007 20.4101 8.9445C20.7947 8.36892 21 7.69223 21 7C21 5.0575 19.4425 3.5 17.5 3.5ZM29.75 0C27.825 0 26.25 1.575 26.25 3.5C26.25 5.425 27.825 7 29.75 7C31.675 7 33.25 5.4425 33.25 3.5C33.25 1.5575 31.6925 0 29.75 0ZM2.625 15.75C1.1725 15.75 0 16.9225 0 18.375V26.25H1.75V35H8.75V26.25H10.5V18.375C10.5 16.9225 9.3275 15.75 7.875 15.75H2.625ZM14.875 12.25C13.4225 12.25 12.25 13.4225 12.25 14.875V22.75H14V31.5H21V22.75H22.75V14.875C22.75 13.4225 21.5775 12.25 20.125 12.25H14.875ZM27.125 8.75C25.6725 8.75 24.5 9.9225 24.5 11.375V19.25H26.25V28H33.25V19.25H35V11.375C35 9.9225 33.8275 8.75 32.375 8.75H27.125Z" fill="#703CCF"/>
</svg>
