<svg width="35" height="35" viewBox="0 0 35 35" fill="none" xmlns="http://www.w3.org/2000/svg">
<path d="M30.1389 20.4167C30.1389 21.1902 29.8316 21.9321 29.2846 22.4791C28.7376 23.026 27.9958 23.3333 27.2222 23.3333C26.4487 23.3333 25.7068 23.026 25.1598 22.4791C24.6128 21.9321 24.3055 21.1902 24.3055 20.4167C24.3055 19.6431 24.6128 18.9013 25.1598 18.3543C25.7068 17.8073 26.4487 17.5 27.2222 17.5C27.9958 17.5 28.7376 17.8073 29.2846 18.3543C29.8316 18.9013 30.1389 19.6431 30.1389 20.4167Z" fill="#703CCF"/>
<path fill-rule="evenodd" clip-rule="evenodd" d="M27.2223 18.4723C26.7066 18.4723 26.212 18.6771 25.8473 19.0418C25.4827 19.4064 25.2778 19.901 25.2778 20.4167C25.2778 20.9324 25.4827 21.427 25.8473 21.7917C26.212 22.1563 26.7066 22.3612 27.2223 22.3612C27.738 22.3612 28.2325 22.1563 28.5972 21.7917C28.9618 21.427 29.1667 20.9324 29.1667 20.4167C29.1667 19.901 28.9618 19.4064 28.5972 19.0418C28.2325 18.6771 27.738 18.4723 27.2223 18.4723ZM23.3334 20.4167C23.3334 19.3853 23.7431 18.3962 24.4724 17.6669C25.2017 16.9376 26.1909 16.5278 27.2223 16.5278C28.2537 16.5278 29.2428 16.9376 29.9721 17.6669C30.7014 18.3962 31.1112 19.3853 31.1112 20.4167C31.1112 21.4481 30.7014 22.4373 29.9721 23.1666C29.2428 23.8959 28.2537 24.3056 27.2223 24.3056C26.1909 24.3056 25.2017 23.8959 24.4724 23.1666C23.7431 22.4373 23.3334 21.4481 23.3334 20.4167Z" fill="#703CCF"/>
<path d="M19.4445 30.4928C19.4445 27.6714 24.6264 26.25 27.2222 26.25C29.8181 26.25 35 27.6714 35 30.4928V35H19.4445V30.4928Z" fill="#703CCF"/>
<path fill-rule="evenodd" clip-rule="evenodd" d="M21.6747 30.0096C21.3996 30.2867 21.3889 30.4383 21.3889 30.4928V33.0556H33.0556V30.4928C33.0556 30.4383 33.0458 30.2867 32.7697 30.0096C32.4781 29.715 31.9871 29.3932 31.3056 29.0957C29.9328 28.4939 28.2528 28.1944 27.2222 28.1944C26.1917 28.1944 24.5117 28.4958 23.1389 29.0947C22.4574 29.3922 21.9674 29.715 21.6747 30.0096ZM27.2222 26.25C24.6264 26.25 19.4445 27.6714 19.4445 30.4928V35H35V30.4928C35 27.6714 29.8181 26.25 27.2222 26.25Z" fill="#703CCF"/>
<path fill-rule="evenodd" clip-rule="evenodd" d="M8.74999 31.1111C8.74999 31.6332 8.92499 32.1232 9.23318 32.4703C9.52582 32.7999 9.98568 33.0556 10.6944 33.0556H20.4167V35H10.6944C9.45874 35 8.46026 34.5265 7.78068 33.7624C7.11665 33.0157 6.80554 32.0474 6.80554 31.1111V26.25H8.74999V31.1111Z" fill="#703CCF"/>
<path fill-rule="evenodd" clip-rule="evenodd" d="M7.77778 23.9031L13.3263 29.4515L11.9515 30.8263L7.77778 26.6525L3.60403 30.8263L2.22931 29.4515L7.77778 23.9031ZM4.86111 1.94444C4.86111 1.42875 5.06597 0.934169 5.43063 0.569515C5.79528 0.20486 6.28986 0 6.80556 0H14.5833C15.099 0 15.5936 0.20486 15.9583 0.569515C16.3229 0.934169 16.5278 1.42875 16.5278 1.94444V2.91667H21.3889V21.3889H0V2.91667H4.86111V1.94444ZM4.86111 4.86111H1.94444V6.80556H4.86111V4.86111ZM4.86111 8.75H1.94444V19.4444H6.80556V13.6111H14.5833V19.4444H19.4444V8.75H16.5278V9.72222C16.5278 10.2379 16.3229 10.7325 15.9583 11.0972C15.5936 11.4618 15.099 11.6667 14.5833 11.6667H6.80556C6.28986 11.6667 5.79528 11.4618 5.43063 11.0972C5.06597 10.7325 4.86111 10.2379 4.86111 9.72222V8.75ZM16.5278 6.80556H19.4444V4.86111H16.5278V6.80556ZM12.6389 19.4444V15.5556H8.75V19.4444H12.6389ZM9.72222 4.86111V1.94444H11.6667V4.86111H14.5833V6.80556H11.6667V9.72222H9.72222V6.80556H6.80556V4.86111H9.72222Z" fill="#703CCF"/>
</svg>
