<svg width="35" height="35" viewBox="0 0 35 35" fill="none" xmlns="http://www.w3.org/2000/svg">
<path d="M30.139 20.4167C30.139 21.1902 29.8317 21.9321 29.2847 22.4791C28.7377 23.026 27.9959 23.3333 27.2223 23.3333C26.4488 23.3333 25.7069 23.026 25.1599 22.4791C24.613 21.9321 24.3057 21.1902 24.3057 20.4167C24.3057 19.6431 24.613 18.9013 25.1599 18.3543C25.7069 17.8073 26.4488 17.5 27.2223 17.5C27.9959 17.5 28.7377 17.8073 29.2847 18.3543C29.8317 18.9013 30.139 19.6431 30.139 20.4167Z" fill="#703CCF"/>
<path fill-rule="evenodd" clip-rule="evenodd" d="M27.2221 18.4723C26.7064 18.4723 26.2119 18.6771 25.8472 19.0418C25.4826 19.4064 25.2777 19.901 25.2777 20.4167C25.2777 20.9324 25.4826 21.427 25.8472 21.7917C26.2119 22.1563 26.7064 22.3612 27.2221 22.3612C27.7378 22.3612 28.2324 22.1563 28.5971 21.7917C28.9617 21.427 29.1666 20.9324 29.1666 20.4167C29.1666 19.901 28.9617 19.4064 28.5971 19.0418C28.2324 18.6771 27.7378 18.4723 27.2221 18.4723ZM23.3333 20.4167C23.3333 19.3853 23.743 18.3962 24.4723 17.6669C25.2016 16.9376 26.1907 16.5278 27.2221 16.5278C28.2535 16.5278 29.2427 16.9376 29.972 17.6669C30.7013 18.3962 31.111 19.3853 31.111 20.4167C31.111 21.4481 30.7013 22.4373 29.972 23.1666C29.2427 23.8959 28.2535 24.3056 27.2221 24.3056C26.1907 24.3056 25.2016 23.8959 24.4723 23.1666C23.743 22.4373 23.3333 21.4481 23.3333 20.4167Z" fill="#703CCF"/>
<path d="M19.4443 30.4928C19.4443 27.6714 24.6263 26.25 27.2221 26.25C29.8179 26.25 34.9999 27.6714 34.9999 30.4928V35H19.4443V30.4928Z" fill="#703CCF"/>
<path fill-rule="evenodd" clip-rule="evenodd" d="M21.6746 30.0096C21.3995 30.2867 21.3888 30.4383 21.3888 30.4928V33.0556H33.0554V30.4928C33.0554 30.4383 33.0457 30.2867 32.7696 30.0096C32.4779 29.715 31.987 29.3932 31.3054 29.0957C29.9327 28.4939 28.2527 28.1944 27.2221 28.1944C26.1916 28.1944 24.5116 28.4958 23.1388 29.0947C22.4573 29.3922 21.9673 29.715 21.6746 30.0096ZM27.2221 26.25C24.6263 26.25 19.4443 27.6714 19.4443 30.4928V35H34.9999V30.4928C34.9999 27.6714 29.8179 26.25 27.2221 26.25Z" fill="#703CCF"/>
<path fill-rule="evenodd" clip-rule="evenodd" d="M8.75011 31.1111C8.75011 31.6332 8.92511 32.1232 9.2333 32.4703C9.52594 32.7999 9.9858 33.0556 10.6946 33.0556H20.4168V35H10.6946C9.45886 35 8.46039 34.5265 7.7808 33.7624C7.11678 33.0157 6.80566 32.0474 6.80566 31.1111V26.25H8.75011V31.1111Z" fill="#703CCF"/>
<path fill-rule="evenodd" clip-rule="evenodd" d="M7.77778 23.9031L13.3263 29.4515L11.9515 30.8263L7.77778 26.6525L3.60403 30.8263L2.22931 29.4515L7.77778 23.9031ZM4.86111 1.94444C4.86111 1.42875 5.06597 0.934169 5.43063 0.569515C5.79528 0.20486 6.28986 0 6.80556 0H14.5833C15.099 0 15.5936 0.20486 15.9583 0.569515C16.3229 0.934169 16.5278 1.42875 16.5278 1.94444V2.91667H21.3889V21.3889H0V2.91667H4.86111V1.94444ZM4.86111 4.86111H1.94444V6.80556H4.86111V4.86111ZM4.86111 8.75H1.94444V19.4444H6.80556V13.6111H14.5833V19.4444H19.4444V8.75H16.5278V9.72222C16.5278 10.2379 16.3229 10.7325 15.9583 11.0972C15.5936 11.4618 15.099 11.6667 14.5833 11.6667H6.80556C6.28986 11.6667 5.79528 11.4618 5.43063 11.0972C5.06597 10.7325 4.86111 10.2379 4.86111 9.72222V8.75ZM16.5278 6.80556H19.4444V4.86111H16.5278V6.80556ZM12.6389 19.4444V15.5556H8.75V19.4444H12.6389ZM9.72222 4.86111V1.94444H11.6667V4.86111H14.5833V6.80556H11.6667V9.72222H9.72222V6.80556H6.80556V4.86111H9.72222Z" fill="#703CCF"/>
</svg>
