<svg width="35" height="28" viewBox="0 0 35 28" fill="none" xmlns="http://www.w3.org/2000/svg">
<path d="M33.125 5.55859L28.125 8.4375V2.5C28.125 1.12109 27.0039 0 25.625 0H2.5C1.12109 0 0 1.12109 0 2.5V25C0 26.3789 1.12109 27.5 2.5 27.5H25.625C27.0039 27.5 28.125 26.3789 28.125 25V19.0625L33.125 21.9414C33.957 22.4219 35 21.8203 35 20.8633V6.64062C35 5.67969 33.957 5.07812 33.125 5.55859ZM10.3125 7.5C10.3125 7.67188 10.1719 7.8125 10 7.8125H5.625C5.45312 7.8125 5.3125 7.67188 5.3125 7.5V5.625C5.3125 5.45312 5.45312 5.3125 5.625 5.3125H10C10.1719 5.3125 10.3125 5.45312 10.3125 5.625V7.5ZM32.1875 18.1641L28.125 15.8281V11.6758L32.1875 9.33594V18.1641Z" fill="#703CCF"/>
</svg>
