<svg width="27" height="35" viewBox="0 0 27 35" fill="none" xmlns="http://www.w3.org/2000/svg">
<path d="M8.75 35C6.27083 35 4.193 34.1612 2.5165 32.4835C0.838833 30.807 0 28.7292 0 26.25V8.75C0 6.27083 0.838833 4.193 2.5165 2.5165C4.193 0.838833 6.27083 0 8.75 0C11.2292 0 13.307 0.838833 14.9835 2.5165C16.6612 4.193 17.5 6.27083 17.5 8.75V17.5H12.25C11.2875 17.5 10.4638 17.8354 9.779 18.5063C9.093 19.1771 8.75 20.0083 8.75 21C7.7875 21 6.96383 21.3424 6.279 22.0273C5.593 22.7133 5.25 23.5375 5.25 24.5C5.25 25.4333 5.58542 26.2354 6.25625 26.9062C6.92708 27.5771 7.75833 27.9417 8.75 28V35ZM12.25 35V33.9937C12.25 32.6812 12.8917 31.6388 14.175 30.8665C15.4583 30.093 17.15 29.7063 19.25 29.7063C21.3792 29.7063 23.0784 30.093 24.3477 30.8665C25.6159 31.6388 26.25 32.6812 26.25 33.9937V35H12.25ZM19.25 28C18.2875 28 17.4633 27.6576 16.7773 26.9727C16.0924 26.2867 15.75 25.4625 15.75 24.5C15.75 23.5083 16.0924 22.6771 16.7773 22.0063C17.4633 21.3354 18.2875 21 19.25 21C20.2417 21 21.0729 21.3354 21.7437 22.0063C22.4146 22.6771 22.75 23.5083 22.75 24.5C22.75 25.4625 22.4146 26.2867 21.7437 26.9727C21.0729 27.6576 20.2417 28 19.25 28ZM8.75 26.25C8.225 26.25 7.80208 26.068 7.48125 25.704C7.16042 25.3388 7 24.9375 7 24.5C7 24.0625 7.16042 23.6612 7.48125 23.296C7.80208 22.932 8.225 22.75 8.75 22.75C9.275 22.75 9.69792 22.9104 10.0188 23.2312C10.3396 23.5521 10.5 23.975 10.5 24.5C10.5 24.9375 10.3396 25.3388 10.0188 25.704C9.69792 26.068 9.275 26.25 8.75 26.25ZM8.75 14C9.7125 14 10.5367 13.657 11.2227 12.971C11.9076 12.2862 12.25 11.4625 12.25 10.5C12.25 9.5375 11.9076 8.71383 11.2227 8.029C10.5367 7.343 9.7125 7 8.75 7C7.7875 7 6.96383 7.343 6.279 8.029C5.593 8.71383 5.25 9.5375 5.25 10.5C5.25 11.4625 5.593 12.2862 6.279 12.971C6.96383 13.657 7.7875 14 8.75 14Z" fill="#703CCF"/>
</svg>
