<svg width="36" height="36" viewBox="0 0 36 36" fill="none" xmlns="http://www.w3.org/2000/svg">
<path d="M11.9355 0.0752411C9.58398 0.321335 7.32129 1.21001 5.37988 2.64555C4.56641 3.24712 3.28125 4.5186 2.7002 5.2979C1.43555 6.99321 0.574219 8.9688 0.191406 11.0743C-0.0136719 12.2022 -0.0136719 14.4581 0.191406 15.586C0.697266 18.3614 1.94141 20.7471 3.92383 22.7364C8.64746 27.4668 16.0918 27.9795 21.3828 23.9327L21.998 23.461L22.9756 24.4454L23.9531 25.4229L23.5293 25.8672C23.2969 26.1065 23.0781 26.3868 23.0371 26.4893C22.9414 26.7422 22.9551 27.1114 23.0645 27.3301C23.1191 27.4327 24.835 29.1827 26.8789 31.2198C30.8779 35.212 30.7344 35.0889 31.3223 34.9659C31.6504 34.8975 34.8359 31.7325 34.9453 31.3633C35.123 30.7618 35.2598 30.9258 31.2197 26.879C29.1826 24.835 27.4326 23.1192 27.3301 23.0645C27.1113 22.9551 26.7422 22.9415 26.4893 23.0372C26.3867 23.0782 26.1064 23.2969 25.8672 23.5293L25.4229 23.9532L24.4453 22.9756L23.4678 21.9981L23.9941 21.3008C25.2383 19.6397 26.0859 17.6915 26.4688 15.586C26.6738 14.4581 26.6738 12.2022 26.4688 11.0743C25.1973 4.12212 18.8877 -0.656204 11.9355 0.0752411ZM14.5469 2.12602C18.3682 2.53618 21.752 4.91508 23.4473 8.37407C23.9805 9.46098 24.3838 10.794 24.5137 11.9151L24.5615 12.3047L19.2021 12.2979H13.8428L14.3418 12.168C15.0869 11.9698 15.6201 11.6622 16.2012 11.0743C16.7959 10.4864 17.0967 9.96001 17.2949 9.18755C17.541 8.22368 17.418 7.17778 16.9395 6.2686C16.6523 5.71489 15.8184 4.88091 15.2646 4.5938C14.7178 4.30669 13.9111 4.10161 13.3301 4.10161C12.749 4.10161 11.9424 4.30669 11.3955 4.5938C10.8418 4.88091 10.0078 5.71489 9.7207 6.2686C9.24219 7.17778 9.11914 8.22368 9.36523 9.18755C9.56348 9.96001 9.86426 10.4864 10.459 11.0743C11.04 11.6622 11.5732 11.9698 12.3184 12.168L12.8174 12.2979H7.45801L2.09863 12.3047L2.14648 11.9151C2.27637 10.7872 2.65234 9.53618 3.17871 8.44243C5.25684 4.14262 9.80957 1.60649 14.5469 2.12602ZM14.2461 6.38481C14.9639 6.73344 15.3467 7.36919 15.3467 8.20317C15.3467 8.78423 15.2031 9.17387 14.8408 9.59087C14.2803 10.2198 13.2207 10.418 12.4277 10.0284C11.334 9.48833 10.958 8.12798 11.6211 7.08891C12.168 6.22758 13.3027 5.9268 14.2461 6.38481ZM24.541 14.5127C24.541 14.7178 24.4316 15.3604 24.2949 15.9415L24.1855 16.4063H21.2188C18.375 16.4063 18.2314 16.4131 17.9785 16.543C17.8008 16.6319 17.6572 16.7754 17.5684 16.9532C17.4385 17.2129 17.4316 17.3497 17.4316 20.5352V23.8506L16.8027 24.0557C14.5059 24.7872 12.1543 24.7872 9.86426 24.0557L9.22852 23.8506V20.5352C9.22852 17.3497 9.22168 17.2129 9.0918 16.9532C9.00293 16.7754 8.85938 16.6319 8.68164 16.543C8.42871 16.4131 8.28516 16.4063 5.44141 16.4063H2.47461L2.33105 15.8047C2.25586 15.4766 2.17383 15.0186 2.14648 14.7793L2.09863 14.3555H13.3232H24.541V14.5127ZM7.17773 20.6172V22.7706L6.76758 22.4834C5.48242 21.5811 4.22461 20.1661 3.43164 18.7442L3.27441 18.4571H5.22266H7.17773V20.6172ZM23.2285 18.7442C22.6816 19.7354 21.7041 20.9659 20.9248 21.6563C20.5146 22.0254 19.7764 22.5997 19.5713 22.7227C19.5029 22.7637 19.4824 22.3194 19.4824 20.6172V18.4571H21.4375H23.3857L23.2285 18.7442ZM31.8076 31.8008L31.0693 32.5391L28.2529 29.7227L25.4297 26.8995L26.1611 26.168L26.8994 25.4297L29.7158 28.2461L32.5391 31.0694L31.8076 31.8008Z" fill="#703CCF"/>
<path d="M13.8495 16.5703C13.3573 16.8643 13.2069 17.4043 13.4667 17.9102C13.6239 18.2178 14.0136 18.457 14.3554 18.457C14.8749 18.457 15.3808 17.9512 15.3808 17.4316C15.3808 17.0898 15.1415 16.7002 14.8339 16.543C14.4784 16.3652 14.1777 16.3721 13.8495 16.5703Z" fill="#703CCF"/>
<path d="M10.7734 18.6211C10.2812 18.915 10.1308 19.4551 10.3905 19.9609C10.5478 20.2686 10.9374 20.5078 11.2792 20.5078C11.7987 20.5078 12.3046 20.002 12.3046 19.4824C12.3046 19.1406 12.0653 18.751 11.7577 18.5937C11.4023 18.416 11.1015 18.4229 10.7734 18.6211Z" fill="#703CCF"/>
<path d="M13.8495 20.6719C13.3573 20.9658 13.2069 21.5059 13.4667 22.0117C13.6239 22.3193 14.0136 22.5586 14.3554 22.5586C14.8749 22.5586 15.3808 22.0527 15.3808 21.5332C15.3808 21.1914 15.1415 20.8018 14.8339 20.6445C14.4784 20.4668 14.1777 20.4736 13.8495 20.6719Z" fill="#703CCF"/>
<path d="M12.2464 6.37948C11.0399 7.09934 10.6712 8.42188 11.308 9.66072C11.6934 10.4141 12.6486 11 13.4864 11C14.76 11 16 9.76116 16 8.48885C16 7.6518 15.4135 6.69756 14.6594 6.31252C13.7881 5.87725 13.0507 5.89399 12.2464 6.37948Z" fill="#703CCF"/>
<rect x="25" y="27.1649" width="3" height="8.58797" transform="rotate(-46.191 25 27.1649)" fill="#703CCF"/>
</svg>
