<svg width="35" height="35" viewBox="0 0 35 35" fill="none" xmlns="http://www.w3.org/2000/svg">
<path d="M1.94444 0H13.6111C14.6806 0 15.5556 0.875 15.5556 1.94444V13.6111C15.5556 14.6806 14.6806 15.5556 13.6111 15.5556H1.94444C0.875 15.5556 0 14.6806 0 13.6111V1.94444C0 0.875 0.875 0 1.94444 0ZM21.3889 0H33.0556C34.125 0 35 0.875 35 1.94444V13.6111C35 14.6806 34.125 15.5556 33.0556 15.5556H21.3889C20.3194 15.5556 19.4444 14.6806 19.4444 13.6111V1.94444C19.4444 0.875 20.3194 0 21.3889 0ZM1.94444 19.4444H13.6111C14.6806 19.4444 15.5556 20.3194 15.5556 21.3889V33.0556C15.5556 34.125 14.6806 35 13.6111 35H1.94444C0.875 35 0 34.125 0 33.0556V21.3889C0 20.3194 0.875 19.4444 1.94444 19.4444ZM27.2222 19.4444C26.1528 19.4444 25.2778 20.3194 25.2778 21.3889V25.2778H21.3889C20.3194 25.2778 19.4444 26.1528 19.4444 27.2222C19.4444 28.2917 20.3194 29.1667 21.3889 29.1667H25.2778V33.0556C25.2778 34.125 26.1528 35 27.2222 35C28.2917 35 29.1667 34.125 29.1667 33.0556V29.1667H33.0556C34.125 29.1667 35 28.2917 35 27.2222C35 26.1528 34.125 25.2778 33.0556 25.2778H29.1667V21.3889C29.1667 20.3194 28.2917 19.4444 27.2222 19.4444Z" fill="white"/>
</svg>
