<svg width="15" height="20" viewBox="0 0 15 20" fill="none" xmlns="http://www.w3.org/2000/svg">
<path d="M0 20H14.2857V16.4286C14.2842 15.103 13.7569 13.8321 12.8196 12.8947C11.8822 11.9574 10.6113 11.4301 9.28571 11.4286H5C3.67438 11.4301 2.40349 11.9574 1.46614 12.8947C0.528782 13.8321 0.0015124 15.103 0 16.4286V20ZM2.14286 5C2.14286 5.98891 2.4361 6.95561 2.98551 7.77785C3.53492 8.6001 4.31581 9.24096 5.22944 9.6194C6.14307 9.99784 7.1484 10.0969 8.11831 9.90393C9.08821 9.711 9.97913 9.2348 10.6784 8.53553C11.3777 7.83627 11.8539 6.94536 12.0468 5.97545C12.2397 5.00555 12.1407 4.00021 11.7623 3.08658C11.3838 2.17295 10.743 1.39206 9.92071 0.842652C9.09846 0.293245 8.13176 0 7.14286 0C5.81677 0 4.54501 0.526784 3.60732 1.46447C2.66964 2.40215 2.14286 3.67392 2.14286 5Z" fill="#9A9A9A"/>
</svg>
