<svg width="32" height="35" viewBox="0 0 32 35" fill="none" xmlns="http://www.w3.org/2000/svg">
<path d="M28 35H3.5C2.57174 35 1.6815 34.6313 1.02513 33.9749C0.368749 33.3185 0 32.4283 0 31.5V7C0 6.07174 0.368749 5.1815 1.02513 4.52513C1.6815 3.86875 2.57174 3.5 3.5 3.5H7V0H10.5V3.5H21V0H24.5V3.5H28C28.9283 3.5 29.8185 3.86875 30.4749 4.52513C31.1313 5.1815 31.5 6.07174 31.5 7V31.5C31.5 32.4283 31.1313 33.3185 30.4749 33.9749C29.8185 34.6313 28.9283 35 28 35ZM3.5 14V31.5H28V14H3.5ZM3.5 7V10.5H28V7H3.5ZM17.5 28H7V17.5H17.5V28Z" fill="white"/>
</svg>
