<svg width="21" height="13" viewBox="0 0 21 13" fill="none" xmlns="http://www.w3.org/2000/svg">
<path fill-rule="evenodd" clip-rule="evenodd" d="M9.27654 0.167357L0.642178 5.60707C0.403965 5.75718 0.261475 6.01714 0.261475 6.29778C0.261475 6.57732 0.403965 6.83838 0.642178 6.98739L9.27654 12.4271C9.40815 12.5109 9.55935 12.5533 9.71054 12.5533C9.84651 12.5533 9.98139 12.5185 10.1043 12.451C10.3654 12.3075 10.5263 12.0344 10.5263 11.7375L10.5274 7.11269L19.4457 7.11313C19.896 7.11313 20.2615 6.74766 20.2615 6.29734C20.2615 5.84702 19.896 5.48155 19.4457 5.48155L10.5274 5.48111L10.5263 0.858063C10.5263 0.560026 10.3654 0.287007 10.1043 0.143428C9.84433 0.000935532 9.52563 0.00963733 9.27654 0.167357ZM8.89475 2.33628L8.89491 6.28082C8.8948 6.28632 8.89475 6.29182 8.89475 6.29734L8.89584 6.31322L8.89475 10.2582L2.6077 6.29778L8.89475 2.33628Z" fill="white"/>
</svg>
