<svg width="42" height="42" viewBox="0 0 42 42" fill="none" xmlns="http://www.w3.org/2000/svg">
<rect x="2" y="2" width="38" height="38" rx="8" fill="#703CCF" stroke="white" stroke-width="4"/>
<path d="M29.25 15.0938H26.0625L25.3031 12.9656C25.2507 12.82 25.1545 12.6941 25.0278 12.6052C24.9011 12.5163 24.7501 12.4686 24.5953 12.4688H17.4047C17.0883 12.4688 16.8047 12.668 16.6992 12.9656L15.9375 15.0938H12.75C11.7141 15.0938 10.875 15.9328 10.875 16.9688V27.6562C10.875 28.6922 11.7141 29.5312 12.75 29.5312H29.25C30.2859 29.5312 31.125 28.6922 31.125 27.6562V16.9688C31.125 15.9328 30.2859 15.0938 29.25 15.0938ZM21 25.7812C18.9281 25.7812 17.25 24.1031 17.25 22.0312C17.25 19.9594 18.9281 18.2813 21 18.2813C23.0719 18.2813 24.75 19.9594 24.75 22.0312C24.75 24.1031 23.0719 25.7812 21 25.7812ZM18.75 22.0312C18.75 22.628 18.9871 23.2003 19.409 23.6222C19.831 24.0442 20.4033 24.2812 21 24.2812C21.5967 24.2812 22.169 24.0442 22.591 23.6222C23.0129 23.2003 23.25 22.628 23.25 22.0312C23.25 21.4345 23.0129 20.8622 22.591 20.4403C22.169 20.0183 21.5967 19.7812 21 19.7812C20.4033 19.7812 19.831 20.0183 19.409 20.4403C18.9871 20.8622 18.75 21.4345 18.75 22.0312Z" fill="white"/>
</svg>
