<svg width="16" height="16" viewBox="0 0 16 16" fill="none" xmlns="http://www.w3.org/2000/svg">
<path d="M14.9999 7.00016H3.82993L8.70993 2.12016C9.09993 1.73016 9.09993 1.09016 8.70993 0.700159C8.61741 0.607455 8.50752 0.533908 8.38655 0.483726C8.26558 0.433545 8.13589 0.407715 8.00493 0.407715C7.87396 0.407715 7.74427 0.433545 7.6233 0.483726C7.50233 0.533908 7.39244 0.607455 7.29993 0.700159L0.709925 7.29016C0.617221 7.38267 0.543674 7.49256 0.493492 7.61354C0.443311 7.73451 0.41748 7.86419 0.41748 7.99516C0.41748 8.12613 0.443311 8.25581 0.493492 8.37678C0.543674 8.49776 0.617221 8.60765 0.709925 8.70016L7.29993 15.2902C7.39251 15.3827 7.50242 15.4562 7.62338 15.5063C7.74435 15.5564 7.87399 15.5822 8.00493 15.5822C8.13586 15.5822 8.2655 15.5564 8.38647 15.5063C8.50743 15.4562 8.61734 15.3827 8.70993 15.2902C8.80251 15.1976 8.87595 15.0877 8.92605 14.9667C8.97616 14.8457 9.00195 14.7161 9.00195 14.5852C9.00195 14.4542 8.97616 14.3246 8.92605 14.2036C8.87595 14.0827 8.80251 13.9727 8.70993 13.8802L3.82993 9.00016H14.9999C15.5499 9.00016 15.9999 8.55016 15.9999 8.00016C15.9999 7.45016 15.5499 7.00016 14.9999 7.00016Z" fill="white"/>
</svg>
