<svg width="89" height="89" viewBox="0 0 89 89" fill="none" xmlns="http://www.w3.org/2000/svg">
<rect x="2" y="2" width="85" height="85" rx="12" fill="#703CCF" stroke="white" stroke-width="4"/>
<path d="M28 67.5H60.5V59.375C60.4966 56.3592 59.297 53.4679 57.1645 51.3355C55.0321 49.203 52.1408 48.0034 49.125 48H39.375C36.3592 48.0034 33.4679 49.203 31.3355 51.3355C29.203 53.4679 28.0034 56.3592 28 59.375V67.5ZM32.875 33.375C32.875 35.6248 33.5421 37.824 34.792 39.6946C36.0419 41.5652 37.8185 43.0232 39.897 43.8841C41.9755 44.7451 44.2626 44.9703 46.4692 44.5314C48.6757 44.0925 50.7025 43.0092 52.2933 41.4183C53.8842 39.8275 54.9675 37.8007 55.4064 35.5942C55.8453 33.3876 55.6201 31.1005 54.7591 29.022C53.8982 26.9435 52.4402 25.1669 50.5696 23.917C48.699 22.6671 46.4998 22 44.25 22C41.2332 22 38.3399 23.1984 36.2067 25.3317C34.0734 27.4649 32.875 30.3582 32.875 33.375Z" fill="white"/>
</svg>
