<svg width="20" height="18" viewBox="0 0 20 18" fill="none" xmlns="http://www.w3.org/2000/svg">
<path d="M19.7292 11.6771C19.2736 11.0587 18.4049 10.925 17.7872 11.383L13.6309 14.4445H9.4434C9.13965 14.4445 8.9191 14.1927 8.9191 13.8893C8.9191 13.5855 9.17083 13.3337 9.4434 13.3337H12.1604C12.6847 13.3337 13.2281 12.9559 13.3191 12.4094C13.4319 11.715 12.8983 11.1115 12.2212 11.1115H6.63542C5.72917 11.1115 4.79097 11.4327 4.06181 12.023L2.44722 13.3334L0.524306 13.3021C0.251771 13.3021 0 13.5868 0 13.8889V17.2215C0 17.5278 0.251771 17.7778 0.524306 17.7778H12.5417C13.3066 17.7778 14.0667 17.5282 14.684 17.074L19.375 13.6184C20.0521 13.1632 20.184 12.2951 19.7292 11.6771ZM5.55556 6.11111H7.77778V8.33333C7.77778 8.63889 8.02778 8.88889 8.33333 8.88889H10.5556C10.8611 8.88889 11.1111 8.63889 11.1111 8.33333V6.11111H13.3333C13.6401 6.11111 13.8889 5.86236 13.8889 5.55556V3.33333C13.8889 3.02646 13.6401 2.77778 13.3333 2.77778H11.1111V0.555556C11.1111 0.248681 10.8611 0 10.5556 0H8.33333C8.02778 0 7.77778 0.248681 7.77778 0.555556V2.77778H5.55556C5.25 2.77778 5 3.02639 5 3.33333V5.55556C5 5.86111 5.25 6.11111 5.55556 6.11111Z" fill="#B4B4B4"/>
</svg>
