<svg width="20" height="20" viewBox="0 0 20 20" fill="none" xmlns="http://www.w3.org/2000/svg">
<path d="M8 10C10.2091 10 12 8.20914 12 6C12 3.79086 10.2091 2 8 2C5.79086 2 4 3.79086 4 6C4 8.20914 5.79086 10 8 10Z" fill="#B4B4B4"/>
<path d="M8.35 12.01C5.62 11.91 0 13.27 0 16V18H9.54C7.07 15.24 8.31 12.11 8.35 12.01ZM17.43 16.02C17.79 15.43 18 14.74 18 14C18 11.79 16.21 10 14 10C11.79 10 10 11.79 10 14C10 16.21 11.79 18 14 18C14.74 18 15.43 17.78 16.02 17.43L18.59 20L20 18.59L17.43 16.02ZM14 16C12.9 16 12 15.1 12 14C12 12.9 12.9 12 14 12C15.1 12 16 12.9 16 14C16 15.1 15.1 16 14 16Z" fill="#B4B4B4"/>
</svg>
