<svg width="29" height="28" viewBox="0 0 29 28" fill="none" xmlns="http://www.w3.org/2000/svg">
<path d="M15.3399 6.21861H13.7739C13.6306 6.21861 13.5134 6.33582 13.5134 6.47907V15.4423C13.5134 15.527 13.5525 15.6051 13.6208 15.654L19.0027 19.5837C19.1199 19.6684 19.2827 19.6456 19.3673 19.5284L20.2985 18.2586C20.3864 18.1381 20.3604 17.9754 20.2432 17.894L15.6004 14.5372V6.47907C15.6004 6.33582 15.4832 6.21861 15.3399 6.21861ZM22.4962 8.66698L27.6013 9.91396C27.7641 9.95303 27.9236 9.82931 27.9236 9.66326L27.9497 4.40512C27.9497 4.18698 27.699 4.06326 27.5297 4.2L22.3985 8.20791C22.3597 8.23791 22.3302 8.27825 22.3133 8.32428C22.2964 8.37031 22.2929 8.42018 22.3031 8.46813C22.3133 8.51609 22.3368 8.56019 22.371 8.59537C22.4052 8.63054 22.4485 8.65537 22.4962 8.66698V8.66698ZM27.9562 18.4702L26.1101 17.8354C26.0458 17.8133 25.9753 17.8173 25.9139 17.8465C25.8524 17.8757 25.8048 17.9278 25.7813 17.9916C25.7194 18.1577 25.6543 18.3205 25.5859 18.4833C25.0064 19.854 24.1762 21.0879 23.1148 22.146C22.0652 23.1989 20.8213 24.0381 19.452 24.6172C18.0335 25.2169 16.5088 25.5248 14.9687 25.5223C13.4125 25.5223 11.905 25.2195 10.4855 24.6172C9.11622 24.0381 7.8723 23.1989 6.82269 22.146C5.76455 21.0879 4.93432 19.854 4.35153 18.4833C3.75512 17.064 3.44955 15.5395 3.45292 14C3.45292 12.4437 3.75572 10.933 4.35804 9.51349C4.93758 8.14279 5.76781 6.90884 6.8292 5.8507C7.87881 4.79783 9.12273 3.95861 10.492 3.37954C11.905 2.77721 13.4157 2.47442 14.972 2.47442C16.5283 2.47442 18.0357 2.77721 19.4552 3.37954C20.8245 3.95861 22.0684 4.79783 23.118 5.8507C23.4501 6.18605 23.7627 6.53442 24.0492 6.90233L25.9962 5.37861C23.4339 2.10326 19.4455 -0.00325204 14.9655 3.76874e-06C7.16455 0.00325958 0.900367 6.33907 0.978506 14.1433C1.05665 21.8107 7.29153 28 14.972 28C21.0115 28 26.1557 24.1712 28.1157 18.8088C28.1646 18.6721 28.0929 18.5191 27.9562 18.4702V18.4702Z" fill="#2ECC71"/>
</svg>
