<svg width="19" height="18" viewBox="0 0 19 18" fill="none" xmlns="http://www.w3.org/2000/svg">
<path d="M6.5 1.5C7.11807 1.5 7.72225 1.68328 8.23616 2.02666C8.75006 2.37004 9.1506 2.8581 9.38712 3.42911C9.62365 4.00013 9.68553 4.62847 9.56495 5.23466C9.44438 5.84085 9.14675 6.39767 8.70971 6.83471C8.27267 7.27175 7.71585 7.56938 7.10966 7.68995C6.50347 7.81053 5.87513 7.74865 5.30411 7.51212C4.7331 7.2756 4.24504 6.87506 3.90166 6.36116C3.55828 5.84725 3.375 5.24307 3.375 4.625C3.375 3.7962 3.70424 3.00134 4.29029 2.41529C4.87634 1.82924 5.6712 1.5 6.5 1.5ZM6.5 0.25C5.63471 0.25 4.78885 0.506589 4.06938 0.98732C3.34992 1.46805 2.78916 2.15133 2.45803 2.95076C2.12689 3.75019 2.04025 4.62985 2.20906 5.47852C2.37787 6.32719 2.79455 7.10674 3.40641 7.71859C4.01826 8.33045 4.79781 8.74712 5.64648 8.91594C6.49515 9.08475 7.37481 8.99811 8.17424 8.66697C8.97367 8.33584 9.65695 7.77508 10.1377 7.05562C10.6184 6.33615 10.875 5.49029 10.875 4.625C10.875 3.46468 10.4141 2.35188 9.59359 1.53141C8.77312 0.710936 7.66032 0.25 6.5 0.25ZM12.75 17.75H11.5V14.625C11.5 13.7962 11.1708 13.0013 10.5847 12.4153C9.99866 11.8292 9.2038 11.5 8.375 11.5H4.625C3.7962 11.5 3.00134 11.8292 2.41529 12.4153C1.82924 13.0013 1.5 13.7962 1.5 14.625V17.75H0.25V14.625C0.25 13.4647 0.710936 12.3519 1.53141 11.5314C2.35188 10.7109 3.46468 10.25 4.625 10.25H8.375C9.53532 10.25 10.6481 10.7109 11.4686 11.5314C12.2891 12.3519 12.75 13.4647 12.75 14.625V17.75ZM12.75 1.5H19V2.75H12.75V1.5ZM12.75 4.625H19V5.875H12.75V4.625ZM12.75 7.75H17.125V9H12.75V7.75Z" fill="#B4B4B4" stroke="#B4B4B4" stroke-width="0.5"/>
</svg>
