<svg width="27" height="28" viewBox="0 0 27 28" fill="none" xmlns="http://www.w3.org/2000/svg">
<path d="M23.875 10V12H24.875V16C24.875 16.7956 24.5589 17.5587 23.9963 18.1213C23.4337 18.6839 22.6707 19 21.875 19C21.0794 19 20.3163 18.6839 19.7537 18.1213C19.1911 17.5587 18.875 16.7956 18.875 16V12H19.875V10H16.875V16C16.8765 17.1521 17.2752 18.2684 18.0038 19.1608C18.7325 20.0532 19.7465 20.6671 20.875 20.899V22C20.875 23.0609 20.4536 24.0783 19.7034 24.8284C18.9533 25.5786 17.9359 26 16.875 26C15.8141 26 14.7967 25.5786 14.0466 24.8284C13.2964 24.0783 12.875 23.0609 12.875 22V19.816C13.5422 19.5801 14.1046 19.1159 14.4626 18.5055C14.8207 17.8951 14.9515 17.1778 14.8318 16.4803C14.7121 15.7828 14.3497 15.15 13.8087 14.6939C13.2676 14.2378 12.5827 13.9876 11.875 13.9876C11.1673 13.9876 10.4824 14.2378 9.94135 14.6939C9.40028 15.15 9.03788 15.7828 8.91821 16.4803C8.79854 17.1778 8.9293 17.8951 9.28737 18.5055C9.64545 19.1159 10.2078 19.5801 10.875 19.816V22C10.875 23.5913 11.5071 25.1174 12.6324 26.2426C13.7576 27.3679 15.2837 28 16.875 28C18.4663 28 19.9924 27.3679 21.1176 26.2426C22.2429 25.1174 22.875 23.5913 22.875 22V20.899C24.0035 20.6671 25.0176 20.0532 25.7462 19.1608C26.4748 18.2684 26.8735 17.1521 26.875 16V10H23.875ZM11.875 16C12.0728 16 12.2661 16.0586 12.4306 16.1685C12.595 16.2784 12.7232 16.4346 12.7989 16.6173C12.8746 16.8 12.8944 17.0011 12.8558 17.1951C12.8172 17.3891 12.722 17.5673 12.5821 17.7071C12.4423 17.847 12.2641 17.9422 12.0701 17.9808C11.8761 18.0194 11.675 17.9996 11.4923 17.9239C11.3096 17.8482 11.1534 17.72 11.0435 17.5556C10.9337 17.3911 10.875 17.1978 10.875 17C10.875 16.7348 10.9804 16.4804 11.1679 16.2929C11.3554 16.1054 11.6098 16 11.875 16Z" fill="#2ECC71"/>
<path d="M22.875 2H18.875V0H16.875V2H8.875V0H6.875V2H2.875C2.34457 2 1.83586 2.21071 1.46079 2.58579C1.08571 2.96086 0.875 3.46957 0.875 4V24C0.875 24.5304 1.08571 25.0391 1.46079 25.4142C1.83586 25.7893 2.34457 26 2.875 26H6.875V24H2.875V4H6.875V6H8.875V4H16.875V6H18.875V4H22.875V8H24.875V4C24.875 3.46957 24.6643 2.96086 24.2892 2.58579C23.9141 2.21071 23.4054 2 22.875 2Z" fill="#2ECC71"/>
</svg>
