<svg width="16" height="20" viewBox="0 0 16 20" fill="none" xmlns="http://www.w3.org/2000/svg">
<path fill-rule="evenodd" clip-rule="evenodd" d="M3.07683 1.53842C3.07683 1.1304 3.23891 0.739101 3.52742 0.450592C3.81593 0.162083 4.20724 0 4.61525 0H8.71769C9.1257 0 9.51701 0.162083 9.80552 0.450592C10.094 0.739101 10.2561 1.1304 10.2561 1.53842H11.7945C12.2025 1.53842 12.5938 1.7005 12.8823 1.98901C13.1709 2.27752 13.3329 2.66882 13.3329 3.07683V10.7689H12.3073V3.07683C12.3073 2.94083 12.2533 2.81039 12.1571 2.71422C12.061 2.61805 11.9305 2.56403 11.7945 2.56403H10.2561C10.2561 2.97204 10.094 3.36334 9.80552 3.65185C9.51701 3.94036 9.1257 4.10244 8.71769 4.10244H4.61525C4.20724 4.10244 3.81593 3.94036 3.52742 3.65185C3.23891 3.36334 3.07683 2.97204 3.07683 2.56403H1.53842C1.40241 2.56403 1.27198 2.61805 1.17581 2.71422C1.07964 2.81039 1.02561 2.94083 1.02561 3.07683V17.4354C1.02561 17.5714 1.07964 17.7018 1.17581 17.798C1.27198 17.8942 1.40241 17.9482 1.53842 17.9482H7.69208V18.9738H1.53842C1.1304 18.9738 0.7391 18.8117 0.450591 18.5232C0.162082 18.2347 0 17.8434 0 17.4354V3.07683C0 2.66882 0.162082 2.27752 0.450591 1.98901C0.7391 1.7005 1.1304 1.53842 1.53842 1.53842H3.07683ZM4.61525 1.02561C4.47924 1.02561 4.34881 1.07964 4.25264 1.17581C4.15647 1.27198 4.10244 1.40241 4.10244 1.53842V2.56403C4.10244 2.70003 4.15647 2.83047 4.25264 2.92664C4.34881 3.0228 4.47924 3.07683 4.61525 3.07683H8.71769C8.8537 3.07683 8.98413 3.0228 9.0803 2.92664C9.17647 2.83047 9.2305 2.70003 9.2305 2.56403V1.53842C9.2305 1.40241 9.17647 1.27198 9.0803 1.17581C8.98413 1.07964 8.8537 1.02561 8.71769 1.02561H4.61525ZM6.15366 6.15366V7.69208H4.61525V8.71769H6.15366V10.2561H7.17928V8.71769H8.71769V7.69208H7.17928V6.15366H6.15366ZM8.71769 11.7945C8.58169 11.7945 8.45125 11.8486 8.35508 11.9447C8.25891 12.0409 8.20489 12.1713 8.20489 12.3073V15.7888C8.20491 16.3797 8.35082 16.9615 8.62965 17.4825C8.90849 18.0035 9.31163 18.4476 9.8033 18.7753L11.5099 19.9138C11.5942 19.97 11.6932 20 11.7945 20C11.8958 20 11.9949 19.97 12.0791 19.9138L13.7857 18.7753C14.2773 18.4476 14.6804 18.0036 14.9593 17.4827C15.2381 16.9618 15.3841 16.3801 15.3842 15.7893V12.3073C15.3842 12.1713 15.3301 12.0409 15.234 11.9447C15.1378 11.8486 15.0074 11.7945 14.8714 11.7945H8.71769ZM13.6955 14.7211L11.6443 16.7723C11.5481 16.8685 11.4177 16.9225 11.2817 16.9225C11.1457 16.9225 11.0153 16.8685 10.9192 16.7723L9.89355 15.7467L10.6187 15.0216L11.2817 15.6847L12.9704 13.996L13.6955 14.7211Z" fill="#B4B4B4"/>
</svg>
