<svg width="18" height="18" viewBox="0 0 18 18" fill="none" xmlns="http://www.w3.org/2000/svg">
<path d="M17.4351 3.82582L14.0649 0.54918C13.7032 0.197548 13.2127 2.6003e-06 12.7012 0H1.92857C0.863437 0 0 0.839453 0 1.875V15.625C0 16.6605 0.863437 17.5 1.92857 17.5H16.0714C17.1366 17.5 18 16.6605 18 15.625V5.15164C18 4.65436 17.7968 4.17745 17.4351 3.82582ZM9 15C7.57985 15 6.42857 13.8807 6.42857 12.5C6.42857 11.1193 7.57985 10 9 10C10.4202 10 11.5714 11.1193 11.5714 12.5C11.5714 13.8807 10.4202 15 9 15ZM12.8571 3.10469V7.03125C12.8571 7.29012 12.6413 7.5 12.375 7.5H3.05357C2.78731 7.5 2.57143 7.29012 2.57143 7.03125V2.96875C2.57143 2.70988 2.78731 2.5 3.05357 2.5H12.2352C12.3631 2.5 12.4857 2.54938 12.5761 2.6373L12.7159 2.77324C12.7607 2.81676 12.7962 2.86843 12.8204 2.9253C12.8447 2.98218 12.8571 3.04313 12.8571 3.10469Z" fill="white"/>
</svg>
