<svg width="22" height="28" viewBox="0 0 22 28" fill="none" xmlns="http://www.w3.org/2000/svg">
<path d="M6.625 12.25C6.39294 12.25 6.17038 12.3422 6.00628 12.5063C5.84219 12.6704 5.75 12.8929 5.75 13.125C5.75 13.3571 5.84219 13.5796 6.00628 13.7437C6.17038 13.9078 6.39294 14 6.625 14H15.375C15.6071 14 15.8296 13.9078 15.9937 13.7437C16.1578 13.5796 16.25 13.3571 16.25 13.125C16.25 12.8929 16.1578 12.6704 15.9937 12.5063C15.8296 12.3422 15.6071 12.25 15.375 12.25H6.625ZM5.75 16.625C5.75 16.3929 5.84219 16.1704 6.00628 16.0063C6.17038 15.8422 6.39294 15.75 6.625 15.75H15.375C15.6071 15.75 15.8296 15.8422 15.9937 16.0063C16.1578 16.1704 16.25 16.3929 16.25 16.625C16.25 16.8571 16.1578 17.0796 15.9937 17.2437C15.8296 17.4078 15.6071 17.5 15.375 17.5H6.625C6.39294 17.5 6.17038 17.4078 6.00628 17.2437C5.84219 17.0796 5.75 16.8571 5.75 16.625ZM5.75 20.125C5.75 19.8929 5.84219 19.6704 6.00628 19.5063C6.17038 19.3422 6.39294 19.25 6.625 19.25H10.125C10.3571 19.25 10.5796 19.3422 10.7437 19.5063C10.9078 19.6704 11 19.8929 11 20.125C11 20.3571 10.9078 20.5796 10.7437 20.7437C10.5796 20.9078 10.3571 21 10.125 21H6.625C6.39294 21 6.17038 20.9078 6.00628 20.7437C5.84219 20.5796 5.75 20.3571 5.75 20.125Z" fill="#2ECC71"/>
<path d="M13.625 0H4C3.07174 0 2.1815 0.368749 1.52513 1.02513C0.868749 1.6815 0.5 2.57174 0.5 3.5V24.5C0.5 25.4283 0.868749 26.3185 1.52513 26.9749C2.1815 27.6313 3.07174 28 4 28H18C18.9283 28 19.8185 27.6313 20.4749 26.9749C21.1313 26.3185 21.5 25.4283 21.5 24.5V7.875L13.625 0ZM13.625 1.75V5.25C13.625 5.94619 13.9016 6.61387 14.3938 7.10616C14.8861 7.59844 15.5538 7.875 16.25 7.875H19.75V24.5C19.75 24.9641 19.5656 25.4092 19.2374 25.7374C18.9092 26.0656 18.4641 26.25 18 26.25H4C3.53587 26.25 3.09075 26.0656 2.76256 25.7374C2.43437 25.4092 2.25 24.9641 2.25 24.5V3.5C2.25 3.03587 2.43437 2.59075 2.76256 2.26256C3.09075 1.93437 3.53587 1.75 4 1.75H13.625Z" fill="#2ECC71"/>
</svg>
