<svg width="28" height="28" viewBox="0 0 28 28" fill="none" xmlns="http://www.w3.org/2000/svg">
<path d="M24.111 16.3333C24.111 16.9522 23.8652 17.5457 23.4276 17.9832C22.99 18.4208 22.3965 18.6667 21.7777 18.6667C21.1588 18.6667 20.5653 18.4208 20.1278 17.9832C19.6902 17.5457 19.4443 16.9522 19.4443 16.3333C19.4443 15.7145 19.6902 15.121 20.1278 14.6834C20.5653 14.2458 21.1588 14 21.7777 14C22.3965 14 22.99 14.2458 23.4276 14.6834C23.8652 15.121 24.111 15.7145 24.111 16.3333Z" fill="#2ECC71"/>
<path fill-rule="evenodd" clip-rule="evenodd" d="M21.7779 14.7777C21.3653 14.7777 20.9696 14.9416 20.6779 15.2333C20.3862 15.5251 20.2223 15.9207 20.2223 16.3333C20.2223 16.7458 20.3862 17.1415 20.6779 17.4332C20.9696 17.7249 21.3653 17.8888 21.7779 17.8888C22.1904 17.8888 22.5861 17.7249 22.8778 17.4332C23.1695 17.1415 23.3334 16.7458 23.3334 16.3333C23.3334 15.9207 23.1695 15.5251 22.8778 15.2333C22.5861 14.9416 22.1904 14.7777 21.7779 14.7777ZM18.6667 16.3333C18.6667 15.5082 18.9945 14.7168 19.578 14.1334C20.1614 13.5499 20.9527 13.2222 21.7779 13.2222C22.603 13.2222 23.3943 13.5499 23.9777 14.1334C24.5612 14.7168 24.889 15.5082 24.889 16.3333C24.889 17.1584 24.5612 17.9497 23.9777 18.5332C23.3943 19.1166 22.603 19.4444 21.7779 19.4444C20.9527 19.4444 20.1614 19.1166 19.578 18.5332C18.9945 17.9497 18.6667 17.1584 18.6667 16.3333Z" fill="#2ECC71"/>
<path d="M15.5557 24.3942C15.5557 22.1371 19.7012 21 21.7779 21C23.8546 21 28.0001 22.1371 28.0001 24.3942V28H15.5557V24.3942Z" fill="#2ECC71"/>
<path fill-rule="evenodd" clip-rule="evenodd" d="M17.3399 24.0077C17.1198 24.2293 17.1112 24.3507 17.1112 24.3942V26.4444H26.4446V24.3942C26.4446 24.3507 26.4368 24.2293 26.2159 24.0077C25.9826 23.772 25.5898 23.5146 25.0446 23.2766C23.9463 22.7951 22.6023 22.5556 21.7779 22.5556C20.9534 22.5556 19.6094 22.7967 18.5112 23.2758C17.966 23.5138 17.574 23.772 17.3399 24.0077ZM21.7779 21C19.7012 21 15.5557 22.1371 15.5557 24.3942V28H28.0001V24.3942C28.0001 22.1371 23.8546 21 21.7779 21Z" fill="#2ECC71"/>
<path fill-rule="evenodd" clip-rule="evenodd" d="M6.99989 24.8889C6.99989 25.3066 7.13989 25.6986 7.38645 25.9762C7.62056 26.2399 7.98845 26.4444 8.55545 26.4444H16.3332V28H8.55545C7.56689 28 6.76811 27.6212 6.22445 27.0099C5.69323 26.4126 5.44434 25.6379 5.44434 24.8889V21H6.99989V24.8889Z" fill="#2ECC71"/>
<path fill-rule="evenodd" clip-rule="evenodd" d="M6.22222 19.1224L10.661 23.5612L9.56122 24.661L6.22222 21.322L2.88322 24.661L1.78344 23.5612L6.22222 19.1224ZM3.88889 1.55556C3.88889 1.143 4.05278 0.747335 4.3445 0.455612C4.63622 0.163888 5.03189 0 5.44444 0H11.6667C12.0792 0 12.4749 0.163888 12.7666 0.455612C13.0583 0.747335 13.2222 1.143 13.2222 1.55556V2.33333H17.1111V17.1111H0V2.33333H3.88889V1.55556ZM3.88889 3.88889H1.55556V5.44444H3.88889V3.88889ZM3.88889 7H1.55556V15.5556H5.44444V10.8889H11.6667V15.5556H15.5556V7H13.2222V7.77778C13.2222 8.19034 13.0583 8.586 12.7666 8.87772C12.4749 9.16945 12.0792 9.33333 11.6667 9.33333H5.44444C5.03189 9.33333 4.63622 9.16945 4.3445 8.87772C4.05278 8.586 3.88889 8.19034 3.88889 7.77778V7ZM13.2222 5.44444H15.5556V3.88889H13.2222V5.44444ZM10.1111 15.5556V12.4444H7V15.5556H10.1111ZM7.77778 3.88889V1.55556H9.33333V3.88889H11.6667V5.44444H9.33333V7.77778H7.77778V5.44444H5.44444V3.88889H7.77778Z" fill="#2ECC71"/>
</svg>
