<svg width="24" height="24" viewBox="0 0 24 24" fill="none" xmlns="http://www.w3.org/2000/svg">
<path d="M10.6235 3.14839C10.5635 3.49757 10.4346 3.83131 10.2443 4.13013C10.0539 4.42895 9.80599 4.68685 9.51488 4.88879C9.22378 5.09072 8.89537 5.23265 8.54881 5.30626C8.20226 5.37988 7.84451 5.38373 7.49646 5.31757C7.1484 5.25141 6.81701 5.11658 6.52164 4.92095C6.22627 4.72531 5.97282 4.47279 5.77611 4.17814C5.5794 3.88348 5.44336 3.55258 5.37593 3.20477C5.3085 2.85696 5.31104 2.4992 5.3834 2.15238C6.40007 2.76972 7.28608 3.11773 8.20943 3.24439C8.99344 3.35106 9.76945 3.29373 10.6228 3.14839H10.6235ZM5.96407 0.944368C6.26928 0.583765 6.66476 0.310669 7.11009 0.152992C7.55543 -0.00468558 8.03465 -0.0412884 8.49876 0.0469242C8.96288 0.135137 9.39525 0.345001 9.75168 0.655067C10.1081 0.965133 10.3758 1.36428 10.5275 1.81171C9.68611 1.96171 9.02677 2.01038 8.3901 1.92305C7.67009 1.82438 6.92875 1.54437 5.9634 0.944368H5.96407ZM5.66673 5.99976C3.84271 5.99976 2.39869 7.11311 1.47268 8.45979C0.540006 9.81781 0 11.5785 0 13.3152C0 14.2425 0.430005 15.3185 0.733342 15.9952C0.91742 16.4023 1.11758 16.802 1.33335 17.1932V22.6666C1.33335 23.0202 1.47383 23.3594 1.72388 23.6094C1.97393 23.8595 2.31307 24 2.6667 24C3.02032 24 3.35947 23.8595 3.60952 23.6094C3.85957 23.3594 4.00005 23.0202 4.00005 22.6666V15.0292C4.19472 13.4238 4.65205 11.9692 5.17539 10.7798L5.6134 12.4838C5.68694 12.7705 5.85374 13.0245 6.08753 13.2059C6.32133 13.3873 6.60883 13.4858 6.90475 13.4858H10.3335C10.6871 13.4858 11.0262 13.3454 11.2763 13.0953C11.5263 12.8453 11.6668 12.5061 11.6668 12.1525C11.6668 11.7989 11.5263 11.4597 11.2763 11.2097C11.0262 10.9596 10.6871 10.8191 10.3335 10.8191H7.93876L6.95875 7.00111C6.88506 6.71448 6.7181 6.46052 6.48418 6.27922C6.25027 6.09793 5.96268 5.99961 5.66673 5.99976ZM20.6669 7.99978C21.3742 7.99978 22.0524 7.71883 22.5525 7.21873C23.0527 6.71862 23.3336 6.04034 23.3336 5.33309C23.3336 4.62583 23.0527 3.94755 22.5525 3.44745C22.0524 2.94734 21.3742 2.66639 20.6669 2.66639C19.9597 2.66639 19.2814 2.94734 18.7813 3.44745C18.2812 3.94755 18.0002 4.62583 18.0002 5.33309C18.0002 6.04034 18.2812 6.71862 18.7813 7.21873C19.2814 7.71883 19.9597 7.99978 20.6669 7.99978Z" fill="#2ECC71"/>
<path fill-rule="evenodd" clip-rule="evenodd" d="M16.8148 8.02962C17.1132 7.96538 17.4246 8.00547 17.697 8.14318C17.9694 8.2809 18.1863 8.50791 18.3115 8.7863L20.0768 12.711H22.6669C23.0205 12.711 23.3596 12.8515 23.6097 13.1015C23.8597 13.3516 24.0002 13.6907 24.0002 14.0444C24.0002 14.398 23.8597 14.7371 23.6097 14.9872C23.3596 15.2372 23.0205 15.3777 22.6669 15.3777H19.2142C18.9572 15.3777 18.7058 15.3034 18.49 15.1639C18.2743 15.0243 18.1035 14.8254 17.9981 14.591L17.0421 12.4663C16.7375 13.0277 16.5368 13.5444 16.4095 14.081C16.2761 14.6437 16.2175 15.2577 16.2281 16.0057C16.4435 16.0957 16.6821 16.1857 16.9375 16.2737C17.5268 16.4764 18.1328 16.6457 18.6281 16.7784L18.8748 16.8444H18.8755C19.0061 16.8789 19.1365 16.914 19.2668 16.9497C19.3512 16.9725 19.435 16.9971 19.5182 17.0237L19.5242 17.0257C19.5648 17.0391 19.7428 17.0944 19.9075 17.1951C20.1222 17.3251 20.2715 17.5037 20.3022 17.5397L20.3062 17.5444C20.3682 17.6177 20.4302 17.6977 20.4862 17.7744C20.6015 17.9284 20.7375 18.1251 20.8802 18.3377C21.1695 18.7671 21.5222 19.3158 21.8609 19.8498C22.2687 20.4932 22.6724 21.1393 23.0722 21.7878L23.1842 21.9691L22.0469 22.6665L23.1835 21.9684C23.2752 22.1177 23.3365 22.2836 23.364 22.4565C23.3915 22.6295 23.3847 22.8062 23.3439 22.9765C23.3032 23.1469 23.2293 23.3075 23.1264 23.4493C23.0236 23.5911 22.8938 23.7112 22.7445 23.8028C22.5953 23.8944 22.4294 23.9557 22.2564 23.9833C22.0835 24.0108 21.9068 24.004 21.7364 23.9632C21.5661 23.9224 21.4055 23.8485 21.2637 23.7457C21.1219 23.6428 21.0018 23.5131 20.9102 23.3638L20.8022 23.1871C20.408 22.5482 20.0102 21.9115 19.6088 21.2771C19.3009 20.7894 18.9869 20.3056 18.6668 19.8258C18.5775 19.6924 18.4995 19.5791 18.4335 19.4858L18.2108 19.4264L17.9368 19.3531C17.3077 19.1884 16.6844 19.002 16.0681 18.7944L16.0001 18.7704V23.9998H14.6668V19.3331H7.33335V23.9998H6V17.3331H13.3554C13.2955 17.2725 13.2383 17.2094 13.1841 17.1437C12.9194 16.8224 12.6667 16.3597 12.6667 15.777C12.6667 12.6423 13.5121 10.6963 14.5421 9.51297C14.9487 9.03825 15.44 8.64311 15.9908 8.34762C16.1995 8.23762 16.3821 8.16296 16.5235 8.11429C16.6124 8.08332 16.7027 8.05662 16.7941 8.03429L16.8048 8.03162L16.8101 8.03029H16.8121C16.8121 8.03029 16.8148 8.02962 17.0955 9.33297L16.8148 8.02962ZM18.7261 19.5698C18.7261 19.5698 18.7175 19.5678 18.7035 19.5624C18.7111 19.5648 18.7187 19.5675 18.7261 19.5704V19.5698ZM18.2841 19.2831C18.2819 19.2805 18.2796 19.2778 18.2775 19.2751L18.2841 19.2831Z" fill="#2ECC71"/>
<path d="M11.6668 3.99975C12.2188 3.99975 12.6668 3.25308 12.6668 2.33307C12.6668 1.41306 12.2188 0.666382 11.6668 0.666382C11.1148 0.666382 10.6667 1.41306 10.6667 2.33307C10.6667 3.25308 11.1148 3.99975 11.6668 3.99975Z" fill="#2ECC71"/>
</svg>
