<svg width="28" height="21" viewBox="0 0 28 21" fill="none" xmlns="http://www.w3.org/2000/svg">
<g filter="url(#filter0_d_2_12)">
<path fill-rule="evenodd" clip-rule="evenodd" d="M14.9849 0.124877L23.6193 5.56459C23.8575 5.7147 24 5.97466 24 6.2553C24 6.53484 23.8575 6.79589 23.6193 6.94491L14.9849 12.3846C14.8533 12.4684 14.7021 12.5108 14.5509 12.5108C14.415 12.5108 14.2801 12.476 14.1572 12.4086C13.8961 12.265 13.7351 11.992 13.7351 11.695L13.7341 7.07021L4.81579 7.07065C4.36548 7.07065 4 6.70518 4 6.25486C4 5.80454 4.36548 5.43907 4.81579 5.43907L13.7341 5.43863L13.7351 0.815582C13.7351 0.517546 13.8961 0.244527 14.1572 0.100947C14.4171 -0.0415449 14.7358 -0.0328431 14.9849 0.124877ZM15.3667 2.2938L15.3666 6.23834C15.3667 6.24384 15.3667 6.24934 15.3667 6.25486L15.3656 6.27073L15.3667 10.2157L21.6538 6.2553L15.3667 2.2938Z" fill="black"/>
<path d="M14.7175 0.547315L14.7184 0.547921L23.3527 5.98761C23.3528 5.98762 23.3528 5.98763 23.3528 5.98763C23.4449 6.04572 23.5 6.14554 23.5 6.2553C23.5 6.36465 23.4444 6.46452 23.3541 6.52102L23.3528 6.52187L14.7184 11.9616L14.7165 11.9628C14.6668 11.9944 14.609 12.0108 14.5509 12.0108C14.501 12.0108 14.4487 11.9982 14.3979 11.9703C14.2969 11.9147 14.2351 11.8097 14.2351 11.695V11.6949L14.2341 7.0701L14.2339 6.57019L13.734 6.57021L4.81579 6.57065C4.81579 6.57065 4.81578 6.57065 4.81578 6.57065C4.64161 6.57065 4.5 6.42903 4.5 6.25486C4.5 6.08068 4.64162 5.93907 4.81579 5.93907H4.81582L13.7341 5.93863L14.2339 5.9386L14.2341 5.43874L14.2351 0.8157V0.815582C14.2351 0.699338 14.2973 0.594493 14.3981 0.539055L14.1572 0.100947L14.3975 0.539403C14.5 0.483227 14.6241 0.488214 14.7175 0.547315ZM15.6333 1.87077L14.8668 1.38779L14.8667 2.29378L14.8666 6.23832H14.8665L14.8665 6.24084L14.8656 6.25369L14.8656 6.27087L14.8667 10.2158L14.867 11.1214L15.6332 10.6388L21.9203 6.67835L22.5918 6.25535L21.9203 5.83227L15.6333 1.87077Z" stroke="black"/>
</g>
<defs>
<filter id="filter0_d_2_12" x="0" y="0" width="28" height="20.5108" filterUnits="userSpaceOnUse" color-interpolation-filters="sRGB">
<feFlood flood-opacity="0" result="BackgroundImageFix"/>
<feColorMatrix in="SourceAlpha" type="matrix" values="0 0 0 0 0 0 0 0 0 0 0 0 0 0 0 0 0 0 127 0" result="hardAlpha"/>
<feOffset dy="4"/>
<feGaussianBlur stdDeviation="2"/>
<feComposite in2="hardAlpha" operator="out"/>
<feColorMatrix type="matrix" values="0 0 0 0 0 0 0 0 0 0 0 0 0 0 0 0 0 0 0.25 0"/>
<feBlend mode="normal" in2="BackgroundImageFix" result="effect1_dropShadow_2_12"/>
<feBlend mode="normal" in="SourceGraphic" in2="effect1_dropShadow_2_12" result="shape"/>
</filter>
</defs>
</svg>
