<svg width="20" height="13" viewBox="0 0 20 13" fill="no" xmlns="http://www.w3.org/2000/svg">
<path fill-rule="evenodd" clip-rule="evenodd" d="M10.9849 0.124877L19.6193 5.56459C19.8575 5.7147 20 5.97466 20 6.2553C20 6.53484 19.8575 6.79589 19.6193 6.94491L10.9849 12.3846C10.8533 12.4684 10.7021 12.5108 10.5509 12.5108C10.415 12.5108 10.2801 12.476 10.1572 12.4086C9.89612 12.265 9.73514 11.992 9.73514 11.695L9.73405 7.07021L0.815794 7.07065C0.365476 7.07065 0 6.70518 0 6.25486C0 5.80454 0.365476 5.43907 0.815794 5.43907L9.73405 5.43863L9.73514 0.815582C9.73514 0.517546 9.89612 0.244527 10.1572 0.100947C10.4171 -0.0415449 10.7358 -0.0328431 10.9849 0.124877ZM11.3667 2.2938L11.3666 6.23834C11.3667 6.24384 11.3667 6.24934 11.3667 6.25486L11.3656 6.27073L11.3667 10.2157L17.6538 6.2553L11.3667 2.2938Z" fill="white"/>
</svg>
