<svg width="24" height="24" viewBox="0 0 24 24" fill="none" xmlns="http://www.w3.org/2000/svg">
<path d="M10.8 19.2H13.2V15.6H16.8V13.2H13.2V9.6H10.8V13.2H7.2V15.6H10.8V19.2ZM2.4 24C1.74 24 1.1752 23.7652 0.7056 23.2956C0.2352 22.8252 0 22.26 0 21.6V7.2C0 6.54 0.2352 5.9752 0.7056 5.5056C1.1752 5.0352 1.74 4.8 2.4 4.8H7.2V2.4C7.2 1.74 7.4352 1.1748 7.9056 0.7044C8.3752 0.2348 8.94 0 9.6 0H14.4C15.06 0 15.6252 0.2348 16.0956 0.7044C16.5652 1.1748 16.8 1.74 16.8 2.4V4.8H21.6C22.26 4.8 22.8252 5.0352 23.2956 5.5056C23.7652 5.9752 24 6.54 24 7.2V21.6C24 22.26 23.7652 22.8252 23.2956 23.2956C22.8252 23.7652 22.26 24 21.6 24H2.4ZM9.6 4.8H14.4V2.4H9.6V4.8ZM2.4 21.6H21.6V7.2H2.4V21.6ZM2.4 7.2V21.6V7.2Z" fill="#2ECC71"/>
</svg>
