<svg width="24" height="19" viewBox="0 0 24 19" fill="green" xmlns="http://www.w3.org/2000/svg">
<path d="M6.10797 3.70841C6.10797 3.81748 6.21704 3.92655 6.32611 4.03562L8.50752 6.21704C8.72567 6.43518 8.94381 6.54425 9.27102 6.54425C9.59823 6.54425 9.81637 6.43518 10.0345 6.21704C10.4708 5.78075 10.4708 5.12633 10.0345 4.69005L9.7073 4.36283H14.2883L13.9611 4.69005C13.7429 4.90819 13.6339 5.12633 13.6339 5.45354C13.6339 6.10797 14.0701 6.54425 14.7246 6.54425C15.0518 6.54425 15.2699 6.43518 15.4881 6.21704L17.6695 4.03562C17.7785 3.92655 17.8876 3.81748 17.8876 3.70841C17.8876 3.59934 17.9967 3.49027 17.9967 3.27212C17.9967 3.16305 17.9967 2.94491 17.8876 2.83584C17.7785 2.72677 17.7785 2.6177 17.6695 2.50863L15.4881 0.327212C15.0518 -0.109071 14.3973 -0.109071 13.9611 0.327212C13.5248 0.763496 13.5248 1.41792 13.9611 1.8542L14.2883 2.18142H9.7073L10.0345 1.8542C10.4708 1.41792 10.4708 0.763496 10.0345 0.327212C9.59823 -0.109071 8.94381 -0.109071 8.50752 0.327212L6.32611 2.50863C6.21704 2.6177 6.10797 2.72677 6.10797 2.83584C6.10797 2.94491 5.9989 3.05398 5.9989 3.27212C5.9989 3.3812 5.9989 3.59934 6.10797 3.70841ZM5.45354 12.2159C6.98053 12.2159 8.28938 10.9071 8.28938 9.38009C8.28938 7.8531 6.98053 6.54425 5.45354 6.54425C3.92655 6.54425 2.6177 7.8531 2.6177 9.38009C2.6177 10.9071 3.92655 12.2159 5.45354 12.2159ZM9.59823 15.1608C6.76239 12.8704 2.6177 13.3066 0.327212 16.1425C0.109071 16.4697 0 16.7969 0 17.1241C0 17.8876 0.654425 18.542 1.41792 18.542H9.48916C10.0345 18.542 10.5799 18.2148 10.798 17.7785C11.0162 17.3423 11.0162 16.6878 10.5799 16.2516C10.2527 15.8153 9.92545 15.4881 9.59823 15.1608ZM15.7062 9.38009C15.7062 10.9071 17.015 12.2159 18.542 12.2159C20.069 12.2159 21.3779 10.9071 21.3779 9.38009C21.3779 7.8531 20.069 6.54425 18.542 6.54425C17.015 6.54425 15.7062 7.8531 15.7062 9.38009ZM23.6684 16.2516C23.3412 15.9243 23.0139 15.4881 22.6867 15.2699C19.8509 12.9794 15.7062 13.4157 13.4157 16.2516C13.1976 16.4697 13.0885 16.7969 13.0885 17.1241C13.0885 17.8876 13.7429 18.542 14.5064 18.542H22.5777C23.123 18.542 23.6684 18.2148 23.8865 17.7785C24.1047 17.2332 23.9956 16.6878 23.6684 16.2516Z" fill="green"/>
</svg>
