<svg width="90" height="90" viewBox="0 0 90 90" fill="none" xmlns="http://www.w3.org/2000/svg">
<path fill-rule="evenodd" clip-rule="evenodd" d="M45 90C69.8528 90 90 69.8528 90 45C90 20.1472 69.8528 0 45 0C20.1472 0 0 20.1472 0 45C0 69.8528 20.1472 90 45 90ZM45 87C68.196 87 87 68.196 87 45C87 21.804 68.196 3 45 3C21.804 3 3 21.804 3 45C3 68.196 21.804 87 45 87Z" fill="#2ECC71"/>
<path d="M36.9697 63.6941L24.4275 51.1697C24.1362 50.8296 23.984 50.3921 24.0013 49.9447C24.0186 49.4973 24.2041 49.0729 24.5207 48.7563C24.8373 48.4396 25.2617 48.2542 25.7092 48.2369C26.1566 48.2196 26.5941 48.3718 26.9341 48.663L36.9341 58.663L63.2053 31.4275C63.5453 31.1362 63.9828 30.984 64.4302 31.0013C64.8777 31.0186 65.3021 31.2041 65.6187 31.5207C65.9353 31.8373 66.1208 32.2617 66.1381 32.7092C66.1554 33.1566 66.0032 33.5941 65.7119 33.9341L36.9697 63.6941Z" fill="#2ECC71"/>
</svg>
