<svg width="294" height="480" viewBox="0 0 294 480" fill="none" xmlns="http://www.w3.org/2000/svg">
<path d="M240.682 479.45H41.7743C29.461 479.45 19.4564 469.446 19.4564 457.133V22.3179C19.4564 10.0046 29.461 0 41.7743 0H240.682C252.995 0 263 10.0046 263 22.3179V457.073C263 469.446 253.055 479.45 240.682 479.45Z" fill="white"/>
<path d="M245.122 31.849H37.3344V447.602H245.122V31.849Z" fill="#C2E2F1"/>
<path d="M157.271 21.9035H97.7172C94.6389 21.9035 92.1525 19.4172 92.1525 16.3389C92.1525 13.2605 94.6389 10.7742 97.7172 10.7742H157.271C160.349 10.7742 162.836 13.2605 162.836 16.3389C162.836 19.4172 160.349 21.9035 157.271 21.9035Z" fill="#D4D7EC"/>
<path d="M178.287 20.8971C181.066 20.8971 183.318 18.6443 183.318 15.8653C183.318 13.0862 181.066 10.8334 178.287 10.8334C175.508 10.8334 173.255 13.0862 173.255 15.8653C173.255 18.6443 175.508 20.8971 178.287 20.8971Z" fill="#D4D7EC"/>
<path d="M179.735 356.228H76.7389C76.9801 353.677 77.2213 351.161 77.497 348.645C78.5996 337.581 79.8057 327.033 80.9773 318.072C81.1151 316.934 82.0455 314.349 82.2178 313.315C83.0448 307.077 83.9062 302.63 84.2164 300.39C84.3542 299.459 84.8711 297.701 84.8711 297.701C85.9737 297.184 84.8366 297.288 86.1116 296.874C115.918 286.155 173.36 297.494 173.36 297.494C173.36 297.494 173.395 297.77 173.498 298.287C173.567 298.942 173.67 299.942 173.843 301.251C174.187 304.078 174.67 308.283 175.221 313.212V313.315C175.255 313.488 175.255 313.625 175.29 313.763C176.565 324.759 178.15 338.994 179.115 348.645C179.356 351.712 179.597 354.332 179.735 356.228Z" fill="#2F4563"/>
<path d="M83.4583 301.906L82.6658 301.837C82.7002 301.631 84.5954 282.777 83.9063 276.986L84.6988 276.883C85.388 282.777 83.5272 301.113 83.4583 301.906Z" fill="#E0A05F"/>
<path d="M206.165 206.258L183.904 208.085C183.663 205.293 183.491 203.432 183.491 203.432C183.491 203.432 177.047 275.435 177.047 286.568C177.047 297.701 175.91 325.103 175.91 325.103C175.91 325.103 167.054 338.58 124.05 336.857C124.05 336.857 79.2543 331.962 81.4252 311.971C88.0068 251.066 83.5272 206.947 82.459 206.396C82.1144 206.224 80.9772 209.808 79.7367 214.875L53.1693 213.255C58.0969 186.818 66.9871 151.454 73.3619 148.593C80.0124 145.629 101.204 139.046 114.884 134.875C121.983 132.738 127.048 131.222 127.048 131.222H151.651C151.651 131.222 153.271 131.739 155.89 132.669C166.641 136.426 194.483 147.042 199.445 157.279C202.857 164.345 204.614 185.646 206.165 206.258Z" fill="#D8C4FE"/>
<path d="M180.08 290.704C179.804 296.46 181.871 321.588 184.387 348.645C184.628 351.161 184.869 353.677 185.111 356.228H157.751C157.647 353.712 157.544 351.195 157.44 348.645C155.063 292.324 152.237 228.869 151.203 216.805C149.274 194.367 155.89 132.704 155.89 132.704C169.329 135.565 186.075 145.87 186.075 145.87L185.386 200.847C185.352 200.847 180.734 277.158 180.08 290.704Z" fill="#703CCF"/>
<path d="M183.491 203.432C183.491 203.432 184.249 228.283 183.56 230.42C182.871 232.557 178.494 233.039 178.494 233.039L176.84 258.511C176.84 258.511 202.202 255.306 207.681 248.102C213.159 240.898 207.439 189.334 205.716 177.788C203.994 166.241 203.167 155.521 195.896 150.558C188.625 145.595 175.738 140.631 175.738 140.631L183.491 203.432Z" fill="#703CCF"/>
<path d="M114.85 203.294C114.85 203.294 108.854 281.467 102.755 348.645C102.548 351.195 102.307 353.712 102.066 356.228H72.9141C73.2586 353.712 73.5688 351.195 73.9134 348.645C77.7038 318.761 81.253 290.049 81.8043 282.949C83.0104 266.921 82.459 206.396 82.459 206.396L86.9386 143.699C86.9386 143.699 104.823 137.012 114.884 134.91C114.85 134.91 116.332 181.269 114.85 203.294Z" fill="#703CCF"/>
<path d="M88.6959 143.044C88.6959 143.044 70.9843 145.25 68.1931 154.039C65.402 162.863 54.9611 196.745 52.0666 213.22C49.2065 229.731 43.4865 251.17 43.4865 251.17L63.7824 267.232C63.7824 267.232 74.2578 252.858 77.4969 231.902C80.7015 210.911 84.871 201.674 84.871 201.674L88.6959 143.044Z" fill="#703CCF"/>
<path d="M47.4492 273.539C47.4492 273.539 44.6236 281.949 42.5217 282.673C40.4197 283.397 38.111 286.327 36.3536 287.361C34.5962 288.36 28.8072 289.429 27.3944 291.118C26.8086 291.807 24.9134 297.425 23.604 298.701C22.2946 299.976 19.2967 302.217 20.4338 303.319C21.5365 304.422 24.7411 303.147 24.7411 303.147C24.7411 303.147 23.604 304.388 24.2932 305.663C25.6026 308.145 27.36 308.076 27.36 308.076C27.36 308.076 27.0154 310.075 27.8079 310.971C29.5653 312.936 31.2538 312.833 31.2538 312.833C31.2538 312.833 31.5639 314.315 33.0111 315.349C34.9063 316.659 36.9394 315.59 36.9394 315.59C36.9394 315.59 38.9035 317.796 40.4542 317.176C42.0048 316.555 42.7973 315.245 43.8655 314.453C44.9337 313.625 51.9633 303.664 53.9963 294.771C56.0638 285.879 60.44 278.399 60.44 278.399L47.4492 273.539Z" fill="#EEA987"/>
<path d="M68.9857 326.689L96.3801 280.812L31.0815 235.59L0 280.467L68.9857 326.689Z" fill="#285173"/>
<path d="M67.125 321.725L91.0736 280.812L32.9767 240.554L5.30664 280.502L67.125 321.725Z" fill="#EDE5DF"/>
<path d="M25.0857 301.975C25.0857 301.975 31.2193 293.531 34.6996 293.324C38.1799 293.117 36.1124 296.288 36.1124 296.288C36.1124 296.288 38.0765 293.117 40.7298 294.427C43.3487 295.737 40.7643 299.321 40.7643 299.321C40.7643 299.321 42.9007 297.322 44.9682 299.562C47.0357 301.803 44.2446 304.285 44.2446 304.285C44.2446 304.285 48.7586 303.147 48.1728 306.973C47.1735 313.453 40.7643 317.21 40.7643 317.21C40.7643 317.21 38.8002 318.072 36.9394 315.762C36.9394 315.762 32.9078 317.761 31.2193 312.936C31.2193 312.936 26.0505 312.316 27.2221 308.145C27.1532 308.145 21.7088 306.973 25.0857 301.975Z" fill="#DB9C7C"/>
<path d="M111.611 247.447C111.611 247.447 109.715 247.034 104.133 249.515C96.6901 252.79 87.6276 257.891 87.2141 259.787C86.6627 262.475 88.8336 262.716 93.0375 260.2C97.207 257.684 98.5853 256.822 98.5853 256.822C98.5853 256.822 92.0038 263.13 91.5214 265.405C91.0045 267.645 92.8308 269.369 94.1402 268.507C95.4151 267.645 97.8962 265.164 97.8962 265.164C97.8962 265.164 95.4841 268.162 96.4144 269.472C97.1036 270.437 98.2407 271.609 101.135 269.3C101.135 269.3 101.583 272.953 105.339 271.299C109.095 269.644 114.677 265.577 117.296 263.406C122.741 258.856 128.461 255.857 128.461 255.857L125.394 247.93C125.394 247.93 118.192 246.241 115.504 246.723C113.127 247.102 111.611 247.447 111.611 247.447Z" fill="#EEA886"/>
<path d="M83.0598 274.284L84.7378 275.492L99.0507 255.603L97.3727 254.395L83.0598 274.284Z" fill="#EB4747"/>
<path d="M98.5855 256.822C98.5855 256.822 90.3499 262.337 88.2135 261.924C86.0771 261.51 86.5595 259.304 89.833 257.201C93.1066 255.099 98.8267 251.997 98.8267 251.997C98.8267 251.997 101.342 254.513 98.5855 256.822Z" fill="#EEA886"/>
<path d="M120.329 243.104C120.329 243.104 176.875 231.73 181.079 233.074L182.009 257.546C182.009 257.546 159.749 262.785 122.293 259.132L120.329 243.104Z" fill="#DBDFF0"/>
<path d="M84.733 275.504L81.804 277.813L83.079 274.298L84.733 275.504Z" fill="#EB4747"/>
<path d="M28.9794 278.261C23.914 275.469 22.1222 269.506 24.9478 264.957C27.8078 260.407 34.2171 258.994 39.2825 261.786C44.3478 264.578 46.1741 270.54 43.3141 275.09C40.4885 279.64 34.0448 281.053 28.9794 278.261Z" fill="#6EA2E8"/>
<path d="M27.739 268.197L29.9098 265.164L40.523 271.85L38.3521 274.884L27.739 268.197Z" fill="#EDE5DF"/>
<path d="M35.8023 264.198L39.2137 266.335L32.4598 275.814L29.0485 273.712L35.8023 264.198Z" fill="#EDE5DF"/>
<path d="M63.748 311.557L59.7164 308.869L69.9505 292.117L73.6031 294.737L63.748 311.557Z" fill="#C7C0BB"/>
<path d="M75.5672 292.393L71.5356 289.705L78.1516 279.192L81.8042 281.812L75.5672 292.393Z" fill="#C7C0BB"/>
<path d="M122.328 192.712L122.052 190.782C126.463 190.161 129.529 186.06 128.909 181.648L125.808 159.726C125.188 155.314 121.087 152.247 116.676 152.867L107.786 154.143L107.51 152.212L116.401 150.937C121.88 150.144 126.979 153.97 127.738 159.451L130.839 181.372C131.631 186.818 127.806 191.919 122.328 192.712Z" fill="#2F4563"/>
<path d="M102.445 195.538C96.9661 196.331 91.8663 192.505 91.1082 187.025L88.0069 165.103C87.2144 159.623 91.0393 154.522 96.5182 153.763L107.51 152.212L107.786 154.142L96.7938 155.694C92.3832 156.314 89.3164 160.416 89.9366 164.828L93.0379 186.749C93.6581 191.161 97.7587 194.229 102.169 193.608L102.445 195.538Z" fill="#2F4563"/>
<path d="M122.224 193.47C123.195 193.47 123.982 192.683 123.982 191.712C123.982 190.742 123.195 189.955 122.224 189.955C121.254 189.955 120.467 190.742 120.467 191.712C120.467 192.683 121.254 193.47 122.224 193.47Z" fill="#6EA2E8"/>
<path d="M102.307 196.331C103.278 196.331 104.065 195.544 104.065 194.573C104.065 193.602 103.278 192.815 102.307 192.815C101.337 192.815 100.55 193.602 100.55 194.573C100.55 195.544 101.337 196.331 102.307 196.331Z" fill="#6EA2E8"/>
<path d="M157.888 210.05L155.993 209.498C156.062 209.257 162.781 185.267 162.609 155.59C162.54 144.25 160.611 137.253 156.476 133.496C150.997 128.499 141.831 129.291 129.219 130.394L127.014 130.601C120.467 131.153 115.505 133.496 112.197 137.564C106.614 144.457 107.682 154.039 107.682 154.143L105.718 154.384C105.684 153.97 104.512 143.871 110.646 136.323C114.299 131.807 119.743 129.222 126.841 128.602L129.047 128.395C141.693 127.292 151.686 126.396 157.819 132.014C162.368 136.15 164.539 143.664 164.608 155.556C164.746 185.577 157.957 209.808 157.888 210.05Z" fill="#2F4563"/>
<path d="M151.169 113.402C151.169 113.402 150.549 128.188 151.961 131.394C153.409 134.599 133.009 144.871 120.57 133.427C120.57 133.427 123.568 117.365 122.741 111.644C121.914 105.922 151.169 113.402 151.169 113.402Z" fill="#EEA987"/>
<path d="M139.143 49.9807C139.143 49.9807 161.92 53.1518 159.267 89.5843C156.613 126.017 136.524 123.501 135.18 123.501C133.836 123.501 115.091 124.604 112.644 80.2435C112.644 80.209 111.301 47.3956 139.143 49.9807Z" fill="#EEA886"/>
<path d="M159.405 79.3129C159.405 79.3129 161.817 76.5555 162.816 79.2784C163.781 82.0014 159.887 93.9617 159.611 94.9613C159.611 94.9613 159.198 96.0298 158.578 95.4783C157.957 94.8579 159.405 79.3129 159.405 79.3129Z" fill="#EEA886"/>
<path d="M113.196 79.8645C113.196 79.8645 110.715 77.1415 109.784 79.899C108.888 82.6564 113.161 95.0304 113.368 95.5129C113.368 95.5129 113.816 96.5814 114.436 95.9955C115.022 95.4095 113.196 79.8645 113.196 79.8645Z" fill="#EEA886"/>
<path d="M159.508 84.8967L156.372 89.412C156.372 89.412 156.234 79.6576 155.683 78.141C155.132 76.6244 156.131 71.2819 155.683 70.1789C155.235 69.076 140.211 73.5223 115.436 71.5576C115.436 71.5576 118.364 80.278 116.779 80.9329C115.194 81.5878 116.194 92.3762 116.194 92.3762L113.437 89.343C113.437 89.343 110.026 70.9717 110.232 67.8696C110.542 63.7679 108.716 44.6382 143.622 47.1544C147.62 47.4301 151.479 48.8089 154.718 51.2216C158.371 53.9446 162.127 58.2186 161.92 64.216C161.679 72.1436 159.508 84.8967 159.508 84.8967Z" fill="#E8734D"/>
<path d="M125.256 117.745C125.256 117.745 134.698 128.292 149.067 117.228C149.067 117.228 145.139 125.465 136.559 125.845C128.013 126.224 125.256 117.745 125.256 117.745Z" fill="#A77860"/>
<path d="M155.304 214.392C159.072 214.392 162.127 211.337 162.127 207.568C162.127 203.799 159.072 200.743 155.304 200.743C151.536 200.743 148.481 203.799 148.481 207.568C148.481 211.337 151.536 214.392 155.304 214.392Z" fill="#6EA2E8"/>
<path d="M155.304 211.187C157.302 211.187 158.922 209.567 158.922 207.568C158.922 205.569 157.302 203.949 155.304 203.949C153.306 203.949 151.686 205.569 151.686 207.568C151.686 209.567 153.306 211.187 155.304 211.187Z" fill="#537BB0"/>
<path d="M13.9557 271.471L27.6701 251.17L22.6737 247.723L8.4079 268.335L13.9557 271.471Z" fill="#285173"/>
<path d="M181.647 115.927H287.353C291.016 115.927 294 113.154 294 109.713V70.1412C294 66.7168 291.034 63.9272 287.353 63.9272H181.647C177.984 63.9272 175 66.7001 175 70.1412V109.713C175 113.154 177.966 115.927 181.647 115.927Z" fill="#703CCF"/>
<path d="M191 123.927L183.206 114.927L198.794 114.927L191 123.927Z" fill="#703CCF"/>
<rect x="189" y="74.9272" width="91" height="3" rx="1.5" fill="#D8C4FE"/>
<rect x="189" y="83.9272" width="91" height="3" rx="1.5" fill="#D8C4FE"/>
<rect x="189" y="92.9272" width="91" height="3" rx="1.5" fill="#D8C4FE"/>
<rect x="189" y="101.927" width="46" height="3" rx="1.5" fill="#D8C4FE"/>
</svg>
