<svg width="134" height="263" viewBox="0 0 134 263" fill="none" xmlns="http://www.w3.org/2000/svg">
<ellipse opacity="0.4" cx="66.5" cy="259" rx="26.5" ry="4" fill="#C4C4C4"/>
<path d="M74.7707 174.472H59.2294C45.8467 174.472 34.8815 163.593 34.8815 150.124V103.414H99.0323V150.124C99.0323 163.593 88.1534 174.472 74.7707 174.472Z" fill="#D5F4FB"/>
<path d="M125.884 133.633H8.02963C3.62628 133.633 0 130.007 0 125.603V42.1988L60.8698 1.8779C64.5825 -0.625966 69.4175 -0.625966 73.1302 1.8779L134 42.1988V125.603C133.914 130.093 130.287 133.633 125.884 133.633Z" fill="#703CCF"/>
<path d="M18.1314 21.9088V95.816H115.869V21.9088C115.869 17.2464 112.07 13.4474 107.407 13.4474H26.5928C21.8441 13.4474 18.1314 17.2464 18.1314 21.9088Z" fill="#D5F4FB"/>
<path d="M0 42.2851L60.8698 82.606C64.5825 85.1098 69.4175 85.1098 73.1302 82.606L134 42.2851V125.603C134 130.007 130.374 133.633 125.97 133.633H8.02963C3.62628 133.633 0 130.007 0 125.603V42.2851Z" fill="#77C5CB"/>
<path d="M0 109.112V125.603C0 130.007 3.62628 133.633 8.02963 133.633H125.884C130.287 133.633 133.914 130.007 133.914 125.603V109.112H0Z" fill="#69B0BE"/>
<path d="M96.5284 46.0841H37.817C37.3853 46.0841 36.9536 45.7387 36.9536 45.2207C36.9536 44.789 37.299 44.3573 37.817 44.3573H96.5284C96.9601 44.3573 97.3918 44.7027 97.3918 45.2207C97.3918 45.7387 97.0464 46.0841 96.5284 46.0841Z" fill="#385E6A"/>
<path d="M59.9201 26.2258H37.817C37.3853 26.2258 36.9536 25.8805 36.9536 25.3624C36.9536 24.9307 37.299 24.499 37.817 24.499H59.9201C60.3518 24.499 60.7835 24.8444 60.7835 25.3624C60.6972 25.7941 60.3518 26.2258 59.9201 26.2258Z" fill="#385E6A"/>
<path d="M59.9201 32.874H37.817C37.3853 32.874 36.9536 32.5287 36.9536 32.0106C36.9536 31.5789 37.299 31.1472 37.817 31.1472H59.9201C60.3518 31.1472 60.7835 31.4926 60.7835 32.0106C60.6972 32.4423 60.3518 32.874 59.9201 32.874Z" fill="#385E6A"/>
<path d="M96.5284 53.7684H37.817C37.3853 53.7684 36.9536 53.423 36.9536 52.905C36.9536 52.4733 37.299 52.0416 37.817 52.0416H96.5284C96.9601 52.0416 97.3918 52.3869 97.3918 52.905C97.3918 53.423 97.0464 53.7684 96.5284 53.7684Z" fill="#385E6A"/>
<path d="M96.5284 61.4526H37.817C37.3853 61.4526 36.9536 61.1072 36.9536 60.5892C36.9536 60.1575 37.299 59.7258 37.817 59.7258H96.5284C96.9601 59.7258 97.3918 60.0711 97.3918 60.5892C97.3918 61.0209 97.0464 61.4526 96.5284 61.4526Z" fill="#385E6A"/>
<path d="M99.0322 136.482V100.133C91.2616 100.133 85.0451 106.436 85.0451 114.12V136.482H99.0322Z" fill="#D5F4FB"/>
<path d="M81.7642 160.139H52.0631V188.804H81.7642V160.139Z" fill="#D5F4FB"/>
<path d="M82.973 181.897H50.9407C48.5232 181.897 46.5374 183.883 46.5374 186.3V234.737C46.5374 239.486 50.4227 243.371 55.1714 243.371H78.8286C83.5773 243.371 87.4626 239.486 87.4626 234.737V186.3C87.3763 183.883 85.3905 181.897 82.973 181.897Z" fill="#2EB96C"/>
<path d="M84.7861 181.897H49.1276C45.933 181.897 43.3428 184.487 43.3428 187.682V189.927C43.3428 193.121 45.933 195.712 49.1276 195.712H84.7861C87.9807 195.712 90.5708 193.121 90.5708 189.927V187.682C90.5708 184.487 87.9807 181.897 84.7861 181.897Z" fill="#2ECC71"/>
</svg>
