<svg width="375" height="151" viewBox="0 0 375 151" fill="none" xmlns="http://www.w3.org/2000/svg">
<path d="M335.869 134.775V105.214L309.637 90.219V60.2279L283.405 45.2324V15.2413L256.739 0L230.073 15.2413V45.2324L203.903 60.2279V90.219L177.671 105.214V134.898H0V135.759H177.795L204.399 151L230.631 136.004L256.863 151L283.095 136.004L309.327 151L335.993 135.759V135.697H375V134.837H335.869V134.775ZM231.065 15.7945L256.801 1.04477L282.537 15.7945V45.2938L274.661 49.8417L256.801 60.0435L237.514 48.9813L231.065 45.2938V15.7945ZM230.135 135.206L204.399 149.955L178.601 135.206V105.706L204.337 90.9564L218.91 99.3146L230.073 105.706V135.206H230.135ZM217.732 97.5938L204.833 90.219V60.7196L230.569 45.9699L245.204 54.3895L256.305 60.7196V90.219L245.204 96.549L230.569 104.969L217.732 97.5938ZM282.537 135.206L256.801 149.955L231.065 135.206V105.706L237.514 102.019L256.801 90.9564L274.661 101.158L282.537 105.706V135.206ZM270.134 97.5938L257.235 90.219V60.7196L270.134 53.3447L283.033 45.9699L308.769 60.7196V90.219L295.87 97.5938L282.971 104.969L270.134 97.5938ZM335.001 135.206L309.265 149.955L283.529 135.206V105.706L294.692 99.3146L309.265 90.9564L335.001 105.706V135.206Z" fill="white"/>
<path d="M246.569 36.6899C246.382 37.3044 246.258 37.8576 246.134 38.4721C246.755 38.2878 247.313 38.1648 247.933 38.0419C248.119 37.4274 248.243 36.8742 248.429 36.3211C247.809 36.444 247.189 36.567 246.569 36.6899ZM261.948 29.3765L260.398 27.8401C259.84 27.963 259.343 28.0244 258.785 28.1473L261.266 30.6056C260.894 31.2202 260.46 31.7733 259.964 32.265L256.491 28.8234C255.995 29.0077 255.561 29.1307 255.064 29.315L258.909 33.1254C258.599 33.3097 258.351 33.5556 258.041 33.6785C257.731 33.8629 257.359 33.9858 257.049 34.1701L253.142 30.2983C252.832 30.5442 252.522 30.79 252.212 31.0973C252.212 31.0973 252.15 31.1587 252.15 31.2202L255.685 34.7232C254.94 34.9691 254.196 35.2149 253.39 35.3993L250.848 32.8795C250.599 33.2483 250.351 33.6785 250.165 34.1087L251.778 35.7066C250.972 35.8909 250.103 36.0138 249.297 36.1368C249.111 36.6899 248.925 37.243 248.739 37.8576C252.46 37.1201 256.305 36.7513 259.405 35.0305C262.196 33.4941 263.746 30.4827 264.739 27.0411C264.119 27.164 263.436 27.2869 262.816 27.4099C262.506 28.0859 262.258 28.7619 261.948 29.3765ZM241.731 38.2263L243.096 39.5784C243.282 39.4554 243.53 39.394 243.716 39.3325L244.956 40.5617C245.08 40.0086 245.142 39.5169 245.266 38.9638L245.08 38.7794C245.142 38.7794 245.204 38.718 245.266 38.718C245.39 38.1034 245.576 37.4888 245.7 36.8742C244.336 37.1815 242.972 37.6117 241.731 38.2263ZM263.064 26.6724C263.684 26.5495 264.305 26.4265 264.987 26.3036C265.173 25.6891 265.297 25.1359 265.421 24.5214C264.801 24.7057 264.243 24.8287 263.622 24.9516C263.436 25.5047 263.25 26.1193 263.064 26.6724ZM263.746 24.1526C264.367 24.0297 264.925 23.8453 265.545 23.7224C265.545 23.661 265.545 23.5995 265.607 23.5995L265.731 23.7224C266.227 23.5995 266.723 23.4151 267.157 23.2308L265.917 22.0016C265.979 21.6944 266.041 21.4485 266.103 21.1412L264.739 19.7892C264.429 21.2027 264.119 22.7391 263.746 24.1526Z" fill="white"/>
<path d="M250.289 29.2536C247.437 32.0806 246.32 36.9971 245.39 41.8522C245.824 42.2824 246.32 42.7741 246.755 43.2043C247.685 38.3492 248.739 33.4326 251.654 30.6056C252.212 30.0525 252.832 29.6223 253.514 29.2536C258.289 26.6109 264.801 27.164 269.824 24.7672C269.39 24.337 268.894 23.8453 268.46 23.4151C263.436 25.812 256.925 25.2588 252.15 27.9015C251.468 28.2702 250.848 28.7619 250.289 29.2536Z" fill="white"/>
<path d="M289.11 70.1225C285.327 70.1225 282.289 73.0724 282.041 76.6984H296.18C295.994 73.0724 292.893 70.1225 289.11 70.1225Z" fill="white"/>
<path d="M282.041 77.4973C282.227 81.1847 285.327 84.1347 289.11 84.1347C292.893 84.1347 295.994 81.1847 296.18 77.4973H282.041Z" fill="white"/>
<path d="M276.087 65.0216C273.607 65.0216 271.56 67.0497 271.56 69.508V83.1514C271.56 84.3806 272.056 85.4868 272.925 86.3472C273.731 87.1461 274.909 87.6992 276.149 87.6992C278.63 87.6992 280.676 85.6712 280.676 83.2129V69.5694C280.614 67.0497 278.568 65.0216 276.087 65.0216ZM279.622 76.5755H272.49V69.6923C272.49 67.7257 274.103 66.1278 276.087 66.1278C278.072 66.1278 279.684 67.7257 279.684 69.6923V76.5755H279.622Z" fill="white"/>
<path d="M204.275 107.611C204.275 107.611 196.461 120.517 196.461 124.819C196.461 129.06 199.934 132.563 204.275 132.563C208.554 132.563 212.089 129.121 212.089 124.819C212.027 120.517 204.275 107.611 204.275 107.611ZM204.275 130.842C200.864 130.842 198.135 128.138 198.135 124.758C198.135 122.422 201.484 115.724 204.275 110.807C207.065 115.724 210.414 122.422 210.414 124.758C210.414 128.138 207.686 130.842 204.275 130.842Z" fill="white"/>
<path d="M203.469 128.445C201.918 127.646 200.988 126.049 200.988 124.328C200.988 124.02 200.74 123.713 200.368 123.713C200.058 123.713 199.748 123.959 199.748 124.328C199.748 126.479 200.926 128.445 202.849 129.49C202.911 129.552 203.035 129.552 203.159 129.552C203.345 129.552 203.593 129.429 203.655 129.244C203.841 128.937 203.717 128.63 203.469 128.445Z" fill="white"/>
<path d="M242.352 66.7424C242.352 66.7424 241.483 67.6028 238.755 67.6028C238.135 67.6028 237.452 67.5413 236.708 67.4798C232.181 66.9267 230.259 64.8987 230.259 64.8987C230.259 64.8987 228.336 66.8653 223.809 67.4798C223.003 67.6028 222.321 67.6028 221.763 67.6028C219.096 67.6028 218.166 66.7424 218.166 66.7424C218.166 66.7424 215.561 82.1066 230.259 90.5877C244.956 82.1681 242.352 66.7424 242.352 66.7424ZM230.259 88.9898C224.926 85.7326 221.515 81.1233 220.088 75.2849C219.406 72.6422 219.344 70.3069 219.406 68.7704C220.026 68.8934 220.771 69.0163 221.701 69.0163C222.383 69.0163 223.189 68.9548 223.933 68.8934C227.034 68.5246 229.081 67.4799 230.197 66.7424C231.313 67.4799 233.359 68.5246 236.46 68.8934C237.266 69.0163 238.011 69.0163 238.693 69.0163C239.623 69.0163 240.367 68.9548 240.987 68.7704C241.235 72.7651 240.429 82.7212 230.259 88.9898Z" fill="white"/>
<path d="M231.995 72.0891H228.584V75.4078H225.236V78.7265H228.584V82.1066H231.995V78.7265H235.344V75.4078H231.995V72.0891Z" fill="white"/>
<path d="M270.382 119.104C270.196 115.109 266.847 112.098 262.692 112.098C262.568 112.098 262.444 112.098 262.32 112.098C259.716 112.221 257.731 113.88 256.739 114.925C255.747 113.88 253.824 112.159 251.22 111.975C251.034 111.975 250.91 111.975 250.723 111.975C246.631 111.975 243.282 114.925 243.034 118.858C242.786 122.545 245.328 125.741 247.251 127.831C249.731 130.535 253.638 133.485 256.181 134.96L256.615 135.206L257.049 134.96C259.592 133.485 263.56 130.658 266.103 127.954C268.025 125.987 270.63 122.791 270.382 119.104ZM264.863 126.909C262.32 129.552 258.723 132.133 256.677 133.362C254.63 132.071 251.034 129.49 248.553 126.786C248.057 126.233 247.561 125.68 247.065 125.004H252.336C252.398 125.004 252.522 124.942 252.584 124.881L252.894 124.512L253.266 126.171C253.266 126.294 253.39 126.356 253.514 126.356C253.638 126.356 253.762 126.294 253.762 126.171L254.134 124.635L254.568 126.847C254.568 126.97 254.692 127.032 254.816 127.032C254.94 127.032 255.064 126.97 255.064 126.847L256.367 120.579L257.421 129.859C257.421 129.982 257.545 130.043 257.669 130.043C257.793 130.043 257.917 129.982 257.917 129.859L258.847 124.328L259.219 126.724C259.219 126.847 259.343 126.909 259.467 126.909C259.592 126.909 259.716 126.847 259.716 126.724L260.398 124.696L260.646 125.864C260.646 125.987 260.77 126.048 260.894 126.048C261.018 126.048 261.142 125.987 261.142 125.864L261.452 125.004L261.762 125.434C261.824 125.495 261.886 125.557 261.948 125.557C262.01 125.557 262.134 125.495 262.134 125.495L262.568 125.004H266.413C265.917 125.68 265.359 126.356 264.863 126.909ZM266.847 124.512H262.568C262.506 124.512 262.382 124.573 262.382 124.573L262.072 124.881L261.7 124.328C261.638 124.266 261.576 124.205 261.452 124.205C261.328 124.205 261.266 124.266 261.204 124.389L261.018 124.881L260.708 123.59C260.708 123.467 260.584 123.406 260.46 123.406C260.336 123.406 260.212 123.467 260.212 123.59L259.592 125.495L259.157 122.607C259.157 122.484 259.033 122.422 258.909 122.422C258.785 122.422 258.661 122.484 258.661 122.607L257.793 127.892L256.739 118.797C256.739 118.674 256.615 118.612 256.491 118.612C256.367 118.612 256.243 118.674 256.243 118.797L254.878 125.372L254.444 123.16C254.444 123.037 254.32 122.976 254.196 122.976C254.072 122.976 253.948 123.037 253.948 123.16L253.576 124.758L253.328 123.713C253.328 123.59 253.204 123.529 253.08 123.529C252.956 123.529 252.894 123.529 252.832 123.652L252.274 124.389H246.755C245.638 122.791 244.708 120.886 244.832 118.858C245.018 116.215 247.127 113.511 250.848 113.511C250.972 113.511 251.096 113.511 251.282 113.511C254.196 113.696 256.181 116.523 256.181 116.584L256.863 117.567L257.545 116.584C257.545 116.584 259.592 113.757 262.506 113.634C266.413 113.511 268.708 116.338 268.832 119.042C268.832 121.132 267.963 122.976 266.847 124.512Z" fill="white"/>
<path d="M322.784 123.344C322.784 121.685 321.42 120.394 319.807 120.394C318.133 120.394 316.831 121.746 316.831 123.344C316.831 124.758 317.823 125.926 319.187 126.233V131.211C319.187 134.837 316.211 137.787 312.552 137.787C308.893 137.787 305.916 134.837 305.916 131.211V129.183H308.831C310.443 129.183 311.808 127.954 311.994 126.417L313.668 113.02C313.792 112.098 313.482 111.176 312.862 110.5C312.242 109.824 311.373 109.394 310.443 109.394H309.203C308.831 109.394 308.521 109.701 308.521 110.07C308.521 110.438 308.831 110.746 309.203 110.746H310.443C311.001 110.746 311.497 110.991 311.87 111.36C312.242 111.79 312.366 112.282 312.304 112.835L310.629 126.233C310.505 127.155 309.699 127.892 308.769 127.892H301.575C300.645 127.892 299.839 127.216 299.715 126.233L298.04 112.835C297.978 112.282 298.164 111.79 298.474 111.36C298.847 110.93 299.343 110.746 299.901 110.746H301.637C302.009 110.746 302.319 110.438 302.319 110.07C302.319 109.701 302.009 109.394 301.637 109.394H299.901C298.971 109.394 298.102 109.762 297.482 110.5C296.862 111.176 296.614 112.098 296.676 113.02L298.35 126.417C298.536 128.015 299.901 129.183 301.513 129.183H304.428V131.211C304.428 135.574 308.025 139.077 312.366 139.077C316.769 139.077 320.303 135.513 320.303 131.211V126.233C321.792 125.926 322.784 124.758 322.784 123.344Z" fill="white"/>
</svg>
