<svg width="20" height="20" viewBox="0 0 20 20" fill="none" xmlns="http://www.w3.org/2000/svg">
<path d="M10 0C8.02219 0 6.08879 0.58649 4.4443 1.6853C2.79981 2.78412 1.51809 4.3459 0.761209 6.17316C0.00433283 8.00043 -0.1937 10.0111 0.192152 11.9509C0.578004 13.8907 1.53041 15.6725 2.92894 17.0711C4.32746 18.4696 6.10929 19.422 8.0491 19.8078C9.98891 20.1937 11.9996 19.9957 13.8268 19.2388C15.6541 18.4819 17.2159 17.2002 18.3147 15.5557C19.4135 13.9112 20 11.9778 20 10C20 7.34783 18.9464 4.80429 17.0711 2.92893C15.1957 1.05357 12.6522 0 10 0ZM14.2857 12.8571C14.2857 13.236 14.1352 13.5994 13.8673 13.8673C13.5994 14.1352 13.236 14.2857 12.8571 14.2857H7.14286C6.76398 14.2857 6.40062 14.1352 6.13271 13.8673C5.8648 13.5994 5.71429 13.236 5.71429 12.8571V7.14286C5.71429 6.76397 5.8648 6.40061 6.13271 6.1327C6.40062 5.86479 6.76398 5.71428 7.14286 5.71428H12.8571C13.236 5.71428 13.5994 5.86479 13.8673 6.1327C14.1352 6.40061 14.2857 6.76397 14.2857 7.14286V12.8571Z" fill="white"/>
</svg>
