<svg width="36" height="36" viewBox="0 0 36 36" fill="none" xmlns="http://www.w3.org/2000/svg">
<path fill-rule="evenodd" clip-rule="evenodd" d="M36 8C36 10.1217 35.1571 12.1566 33.6569 13.6569C32.1566 15.1571 30.1217 16 28 16C25.8783 16 23.8434 15.1571 22.3431 13.6569C20.8429 12.1566 20 10.1217 20 8C20 5.87827 20.8429 3.84344 22.3431 2.34315C23.8434 0.842854 25.8783 0 28 0C30.1217 0 32.1566 0.842854 33.6569 2.34315C35.1571 3.84344 36 5.87827 36 8ZM32.282 8.985C32.2225 9.24324 32.0628 9.46728 31.8382 9.60791C31.6136 9.74854 31.3423 9.79425 31.084 9.735L24.468 8.215C24.2094 8.15559 23.985 7.99589 23.8442 7.77104C23.7033 7.54618 23.6576 7.27459 23.717 7.016C23.7764 6.75741 23.9361 6.53302 24.161 6.39218C24.3858 6.25134 24.6574 6.20559 24.916 6.265L31.532 7.786C31.66 7.81548 31.7809 7.86988 31.8878 7.94609C31.9948 8.0223 32.0857 8.11883 32.1553 8.23016C32.225 8.3415 32.272 8.46547 32.2937 8.59498C32.3155 8.7245 32.3115 8.85703 32.282 8.985Z" fill="#703CCF"/>
<path d="M10.7781 3.24489C10.1311 1.71289 7.96505 1.55889 7.09605 2.98189L0.292052 14.1149C-0.492948 15.3989 0.384053 17.0389 1.91505 17.1479L13.7811 17.9939C15.3111 18.1039 16.4251 16.6059 15.8411 15.2239L10.7781 3.24489Z" fill="#703CCF"/>
<path fill-rule="evenodd" clip-rule="evenodd" d="M29.3849 30.3599C30.8273 29.6874 31.9435 28.4696 32.4879 26.9741C33.0323 25.4787 32.9604 23.8283 32.2879 22.3859C31.955 21.6717 31.4846 21.0301 30.9037 20.4977C30.3227 19.9653 29.6426 19.5525 28.9022 19.2829C27.4068 18.7385 25.7563 18.8104 24.3139 19.4829L13.4379 24.5549C12.7238 24.8879 12.0823 25.3582 11.5499 25.9391C11.0176 26.52 10.6048 27.2001 10.3353 27.9405C10.0658 28.6809 9.94475 29.4672 9.97909 30.2544C10.0134 31.0416 10.2025 31.8143 10.5354 32.5284C10.8684 33.2425 11.3388 33.8841 11.9197 34.4164C12.5006 34.9488 13.1807 35.3615 13.9211 35.631C14.6615 35.9005 15.4477 36.0216 16.2349 35.9873C17.0221 35.9529 17.7948 35.7639 18.5089 35.4309L29.3849 30.3589V30.3599ZM23.9429 30.6899L28.5399 28.5469C29.4907 28.092 30.2234 27.2802 30.5789 26.288C30.9345 25.2958 30.884 24.2034 30.4385 23.2481C29.9931 22.2929 29.1886 21.5521 28.2 21.1868C27.2114 20.8214 26.1185 20.861 25.1589 21.2969L20.5619 23.4399L23.9419 30.6899H23.9429Z" fill="#703CCF"/>
</svg>
