<svg width="43" height="43" viewBox="0 0 43 43" fill="none" xmlns="http://www.w3.org/2000/svg">
<path d="M19.0335 5.64081C18.9261 6.26641 18.6951 6.86436 18.3541 7.39973C18.0131 7.9351 17.5689 8.39718 17.0473 8.75898C16.5258 9.12077 15.9373 9.37505 15.3164 9.50695C14.6955 9.63885 14.0546 9.64573 13.431 9.5272C12.8074 9.40867 12.2137 9.1671 11.6845 8.81659C11.1553 8.46608 10.7012 8.01366 10.3487 7.48574C9.99631 6.95782 9.75257 6.36497 9.63177 5.74182C9.51096 5.11866 9.51551 4.47768 9.64514 3.85631C11.4667 4.96236 13.0541 5.58586 14.7084 5.81281C16.1131 6.00392 17.5034 5.90119 19.0323 5.64081H19.0335ZM10.6855 1.69197C11.2323 1.0459 11.9409 0.556608 12.7388 0.274107C13.5367 -0.00839489 14.3952 -0.0739741 15.2268 0.0840716C16.0583 0.242117 16.833 0.61812 17.4716 1.17365C18.1102 1.72918 18.5898 2.44431 18.8615 3.24595C17.3541 3.5147 16.1728 3.60189 15.0321 3.44542C13.7421 3.26864 12.4139 2.76697 10.6843 1.69197H10.6855ZM10.1528 10.7494C6.88478 10.7494 4.29761 12.7442 2.63853 15.1569C0.9675 17.59 0 20.7446 0 23.8561C0 25.5176 0.770417 27.4454 1.31389 28.6577C1.64369 29.3872 2.00231 30.1032 2.38889 30.8042V40.6106C2.38889 41.2441 2.64058 41.8518 3.08858 42.2998C3.53658 42.7478 4.14421 42.9994 4.77778 42.9994C5.41135 42.9994 6.01897 42.7478 6.46698 42.2998C6.91498 41.8518 7.16667 41.2441 7.16667 40.6106V26.927C7.51545 24.0508 8.33483 21.4445 9.27247 19.3136L10.0572 22.3666C10.189 22.8802 10.4878 23.3353 10.9067 23.6603C11.3256 23.9853 11.8407 24.1618 12.3709 24.1619H18.5139C19.1475 24.1619 19.7551 23.9102 20.2031 23.4622C20.6511 23.0142 20.9028 22.4065 20.9028 21.773C20.9028 21.1394 20.6511 20.5318 20.2031 20.0838C19.7551 19.6358 19.1475 19.3841 18.5139 19.3841H14.2234L12.4676 12.5435C12.3356 12.03 12.0365 11.575 11.6174 11.2501C11.1983 10.9253 10.683 10.7492 10.1528 10.7494ZM37.0278 14.3328C38.2949 14.3328 39.5102 13.8294 40.4062 12.9334C41.3022 12.0374 41.8056 10.8221 41.8056 9.555C41.8056 8.28785 41.3022 7.07261 40.4062 6.1766C39.5102 5.28059 38.2949 4.77722 37.0278 4.77722C35.7606 4.77722 34.5454 5.28059 33.6494 6.1766C32.7534 7.07261 32.25 8.28785 32.25 9.555C32.25 10.8221 32.7534 12.0374 33.6494 12.9334C34.5454 13.8294 35.7606 14.3328 37.0278 14.3328Z" fill="#703CCF"/>
<path fill-rule="evenodd" clip-rule="evenodd" d="M30.1263 14.3863C30.6609 14.2712 31.2188 14.343 31.7069 14.5897C32.1949 14.8365 32.5835 15.2432 32.8078 15.742L35.9707 22.7737H40.6111C41.2447 22.7737 41.8523 23.0253 42.3003 23.4733C42.7483 23.9214 43 24.529 43 25.1625C43 25.7961 42.7483 26.4037 42.3003 26.8517C41.8523 27.2998 41.2447 27.5514 40.6111 27.5514H34.4251C33.9647 27.5514 33.5142 27.4184 33.1277 27.1683C32.7412 26.9183 32.4352 26.5619 32.2464 26.142L30.5336 22.3353C29.9877 23.341 29.6282 24.2667 29.4001 25.2282C29.1612 26.2364 29.0561 27.3364 29.0752 28.6766C29.461 28.8379 29.8886 28.9991 30.3461 29.1568C31.4019 29.5199 32.4877 29.8233 33.3752 30.061L33.8171 30.1792H33.8183C34.0523 30.241 34.286 30.3039 34.5194 30.3679C34.6705 30.4087 34.8207 30.4529 34.9697 30.5005L34.9805 30.5041C35.0534 30.528 35.3723 30.6271 35.6673 30.8075C36.0519 31.0404 36.3195 31.3605 36.3744 31.425L36.3816 31.4334C36.4927 31.5648 36.6038 31.7081 36.7041 31.8455C36.9107 32.1214 37.1544 32.4737 37.41 32.8548C37.9284 33.624 38.5602 34.607 39.167 35.5638C39.8977 36.7167 40.6211 37.8741 41.3373 39.036L41.538 39.3609L39.5003 40.6103L41.5368 39.3597C41.701 39.6272 41.8108 39.9243 41.8601 40.2342C41.9094 40.5441 41.8972 40.8607 41.8242 41.1659C41.7512 41.4711 41.6187 41.7589 41.4345 42.0129C41.2502 42.2669 41.0177 42.4821 40.7503 42.6462C40.4828 42.8104 40.1857 42.9202 39.8758 42.9696C39.5659 43.0189 39.2493 43.0067 38.9441 42.9336C38.6389 42.8606 38.3511 42.7282 38.0971 42.5439C37.8431 42.3596 37.6279 42.1271 37.4638 41.8597L37.2702 41.5432C36.564 40.3985 35.8513 39.2577 35.1322 38.1211C34.5806 37.2472 34.0179 36.3804 33.4444 35.5208C33.2844 35.2819 33.1446 35.0788 33.0264 34.9116L32.6274 34.8053L32.1365 34.6739C31.0094 34.3788 29.8927 34.045 28.7885 33.673L28.6667 33.63V42.9992H26.2778V34.6381H13.1389V42.9992H10.75V31.0547H23.9283C23.821 30.9463 23.7186 30.8331 23.6213 30.7155C23.1471 30.1398 22.6944 29.3109 22.6944 28.2669C22.6944 22.6506 24.209 19.1641 26.0544 17.0439C26.783 16.1934 27.6631 15.4854 28.6499 14.956C29.0238 14.7589 29.3511 14.6252 29.6043 14.538C29.7636 14.4825 29.9254 14.4346 30.0892 14.3946L30.1084 14.3899L30.1179 14.3875H30.1215C30.1215 14.3875 30.1263 14.3863 30.6291 16.7214L30.1263 14.3863ZM33.5508 35.0621C33.5508 35.0621 33.5352 35.0585 33.5101 35.049C33.5238 35.0533 33.5374 35.058 33.5508 35.0633V35.0621ZM32.7588 34.5485C32.7547 34.5438 32.7508 34.539 32.7469 34.5342L32.7588 34.5485Z" fill="#703CCF"/>
<path d="M20.9028 7.16631C21.8918 7.16631 22.6944 5.82854 22.6944 4.1802C22.6944 2.53187 21.8918 1.19409 20.9028 1.19409C19.9138 1.19409 19.1111 2.53187 19.1111 4.1802C19.1111 5.82854 19.9138 7.16631 20.9028 7.16631Z" fill="#703CCF"/>
</svg>
