<svg width="193" height="239" viewBox="0 0 193 239" fill="none" xmlns="http://www.w3.org/2000/svg">
<path opacity="0.4" d="M191.28 235.283C191.626 235.358 191.904 235.431 192.118 235.5C191.904 235.569 191.626 235.642 191.28 235.717C190.248 235.939 188.707 236.156 186.701 236.365C182.693 236.782 176.883 237.159 169.693 237.475C155.316 238.108 135.448 238.5 113.5 238.5C91.5516 238.5 71.6843 238.108 57.307 237.475C50.1169 237.159 44.3073 236.782 40.2993 236.365C38.2925 236.156 36.7523 235.939 35.7203 235.717C35.3737 235.642 35.0957 235.569 34.882 235.5C35.0957 235.431 35.3737 235.358 35.7203 235.283C36.7523 235.061 38.2925 234.844 40.2993 234.635C44.3073 234.218 50.1169 233.841 57.307 233.525C71.6843 232.892 91.5516 232.5 113.5 232.5C135.448 232.5 155.316 232.892 169.693 233.525C176.883 233.841 182.693 234.218 186.701 234.635C188.707 234.844 190.248 235.061 191.28 235.283ZM34.4291 235.699C34.4291 235.699 34.4294 235.699 34.4301 235.698L34.4291 235.699Z" fill="#C4C4C4" stroke="black"/>
<path d="M158.92 231.681H68.2073C59.2888 231.681 51.9824 224.38 51.9824 215.467V16.2139C51.9824 7.30149 59.2888 0 68.2073 0H158.92C167.838 0 175.145 7.30149 175.145 16.2139V215.467C175.145 224.38 167.838 231.681 158.92 231.681Z" fill="#2B478B"/>
<path d="M169.032 17.7411V212.371C169.032 218.982 163.672 224.38 157.099 224.38H70.0077C63.455 224.38 58.0746 218.982 58.0746 212.371V17.7411C58.0746 11.1301 63.434 5.73239 70.0077 5.73239H157.099C163.672 5.73239 169.032 11.1301 169.032 17.7411Z" fill="#C0D8FB"/>
<path d="M157.099 5.73239L71.0754 224.38H70.0077C63.455 224.38 58.0746 218.982 58.0746 212.371V17.7411C58.0746 11.1301 63.434 5.73239 70.0077 5.73239H157.099Z" fill="#CBE1FD"/>
<path d="M131.767 12.9711H95.3604C92.3875 12.9711 89.959 10.5443 89.959 7.57347V6.73662C89.959 3.76581 92.3875 1.33896 95.3604 1.33896H131.767C134.74 1.33896 137.168 3.76581 137.168 6.73662V7.57347C137.147 10.5443 134.719 12.9711 131.767 12.9711Z" fill="#2B478B"/>
<path d="M7.78794 119.899H131.641C135.933 119.899 139.429 116.426 139.429 112.116V62.5542C139.429 58.2653 135.954 54.7715 131.641 54.7715H7.78794C3.4962 54.7715 0 58.2444 0 62.5542V112.116C0 116.426 3.47526 119.899 7.78794 119.899Z" fill="#703CCF"/>
<path d="M132.5 46.5287H84.0134C80.4126 46.5287 77.5026 43.6206 77.5026 40.0222V30.8378C77.5026 27.2394 80.4126 24.3313 84.0134 24.3313H132.479C136.08 24.3313 138.99 27.2394 138.99 30.8378V40.0222C139.011 43.6206 136.08 46.5287 132.5 46.5287Z" fill="#9ABFF6"/>
<path d="M91.9481 189.692H75.6395C75.0743 189.692 74.6137 189.232 74.6137 188.667V188.186C74.6137 187.621 75.0743 187.161 75.6395 187.161H91.9481C92.5134 187.161 92.974 187.621 92.974 188.186V188.667C92.974 189.232 92.5134 189.692 91.9481 189.692Z" fill="#699DEE"/>
<path d="M92.1363 196.22H75.4299C74.9694 196.22 74.5925 195.843 74.5925 195.383C74.5925 194.923 74.9694 194.546 75.4299 194.546H92.1363C92.5969 194.546 92.9737 194.923 92.9737 195.383C92.9737 195.843 92.5969 196.22 92.1363 196.22Z" fill="#699DEE"/>
<path d="M84.7462 200.153H75.2415C74.8856 200.153 74.6135 199.86 74.6135 199.525V199.128C74.6135 198.772 74.9066 198.5 75.2415 198.5H84.7462C85.1021 198.5 85.3742 198.793 85.3742 199.128V199.525C85.3742 199.86 85.1021 200.153 84.7462 200.153Z" fill="#699DEE"/>
<path d="M104.111 200.153H88.7448C88.3052 200.153 87.9493 199.797 87.9493 199.358V199.295C87.9493 198.856 88.3052 198.5 88.7448 198.5H104.111C104.551 198.5 104.907 198.856 104.907 199.295V199.358C104.928 199.797 104.551 200.153 104.111 200.153Z" fill="#699DEE"/>
<path d="M118.473 196.22H96.5537C96.0931 196.22 95.7163 195.843 95.7163 195.383C95.7163 194.923 96.0931 194.546 96.5537 194.546H118.473C118.934 194.546 119.31 194.923 119.31 195.383C119.31 195.843 118.934 196.22 118.473 196.22Z" fill="#699DEE"/>
<path d="M92.1363 204.065H75.4299C74.9694 204.065 74.5925 203.689 74.5925 203.228C74.5925 202.768 74.9694 202.391 75.4299 202.391H92.1363C92.5969 202.391 92.9737 202.768 92.9737 203.228C92.9737 203.709 92.5969 204.065 92.1363 204.065Z" fill="#699DEE"/>
<path d="M118.473 204.065H96.5537C96.0931 204.065 95.7163 203.689 95.7163 203.228C95.7163 202.768 96.0931 202.391 96.5537 202.391H118.473C118.934 202.391 119.31 202.768 119.31 203.228C119.31 203.709 118.934 204.065 118.473 204.065Z" fill="#699DEE"/>
<path d="M107.838 189.692H96.114C95.6325 189.692 95.2347 189.295 95.2347 188.814V188.019C95.2347 187.537 95.6325 187.14 96.114 187.14H107.838C108.319 187.14 108.717 187.537 108.717 188.019V188.814C108.717 189.295 108.34 189.692 107.838 189.692Z" fill="#699DEE"/>
<path d="M102.772 31.1516H86.4631C85.8978 31.1516 85.4373 30.6914 85.4373 30.1265V29.6453C85.4373 29.0804 85.8978 28.6202 86.4631 28.6202H102.772C103.337 28.6202 103.798 29.0804 103.798 29.6453V30.1265C103.798 30.6914 103.337 31.1516 102.772 31.1516Z" fill="#699DEE"/>
<path d="M102.96 37.679H86.2535C85.7929 37.679 85.4161 37.3025 85.4161 36.8422C85.4161 36.3819 85.7929 36.0053 86.2535 36.0053H102.96C103.42 36.0053 103.797 36.3819 103.797 36.8422C103.797 37.3025 103.42 37.679 102.96 37.679Z" fill="#699DEE"/>
<path d="M95.5697 41.5913H86.0651C85.7092 41.5913 85.437 41.2984 85.437 40.9637V40.5662C85.437 40.2105 85.7301 39.9385 86.0651 39.9385H95.5697C95.9256 39.9385 96.1978 40.2314 96.1978 40.5662V40.9637C96.1978 41.3193 95.9256 41.5913 95.5697 41.5913Z" fill="#699DEE"/>
<path d="M114.935 41.5913H99.5684C99.1288 41.5913 98.7729 41.2356 98.7729 40.7963V40.7335C98.7729 40.2942 99.1288 39.9385 99.5684 39.9385H114.935C115.375 39.9385 115.73 40.2942 115.73 40.7335V40.7963C115.73 41.2356 115.375 41.5913 114.935 41.5913Z" fill="#699DEE"/>
<path d="M129.297 37.679H107.377C106.917 37.679 106.54 37.3025 106.54 36.8422C106.54 36.3819 106.917 36.0053 107.377 36.0053H129.297C129.757 36.0053 130.134 36.3819 130.134 36.8422C130.134 37.3025 129.757 37.679 129.297 37.679Z" fill="#699DEE"/>
<path d="M118.661 31.1516H106.938C106.456 31.1516 106.058 30.7541 106.058 30.2729V29.4989C106.058 29.0177 106.456 28.6202 106.938 28.6202H118.661C119.143 28.6202 119.541 29.0177 119.541 29.4989V30.2939C119.541 30.7541 119.143 31.1516 118.661 31.1516Z" fill="#699DEE"/>
<g opacity="0.6">
<rect x="7.26636" y="77.5435" width="17.4942" height="17.4942" rx="1" fill="white"/>
<path d="M15.4151 85.9685L13.0361 82.5365H14.6091L16.2731 85.0585L17.9371 82.5365H19.4971L17.1181 85.9685L19.6141 89.5435H18.0541L16.2731 86.8655L14.4791 89.5435H12.9191L15.4151 85.9685Z" fill="#887F98"/>
<rect x="28.7605" y="77.5435" width="17.4942" height="17.4942" rx="1" fill="white"/>
<path d="M36.9092 85.9685L34.5302 82.5365H36.1032L37.7672 85.0585L39.4312 82.5365H40.9912L38.6122 85.9685L41.1082 89.5435H39.5482L37.7672 86.8655L35.9732 89.5435H34.4132L36.9092 85.9685Z" fill="#887F98"/>
<rect x="50.2547" y="77.5435" width="17.4942" height="17.4942" rx="1" fill="white"/>
<path d="M58.4034 85.9685L56.0244 82.5365H57.5974L59.2614 85.0585L60.9254 82.5365H62.4854L60.1064 85.9685L62.6024 89.5435H61.0424L59.2614 86.8655L57.4674 89.5435H55.9074L58.4034 85.9685Z" fill="#887F98"/>
<rect x="71.7488" y="77.5435" width="17.4942" height="17.4942" rx="1" fill="white"/>
<path d="M79.8975 85.9685L77.5185 82.5365H79.0915L80.7555 85.0585L82.4195 82.5365H83.9795L81.6005 85.9685L84.0965 89.5435H82.5365L80.7555 86.8655L78.9615 89.5435H77.4015L79.8975 85.9685Z" fill="#887F98"/>
<rect x="93.243" y="77.5435" width="17.4942" height="17.4942" rx="1" fill="white"/>
<path d="M101.392 85.9685L99.0127 82.5365H100.586L102.25 85.0585L103.914 82.5365H105.474L103.095 85.9685L105.591 89.5435H104.031L102.25 86.8655L100.456 89.5435H98.8957L101.392 85.9685Z" fill="#887F98"/>
<rect x="114.737" y="77.5435" width="17.4942" height="17.4942" rx="1" fill="white"/>
<path d="M122.886 85.9685L120.507 82.5365H122.08L123.744 85.0585L125.408 82.5365H126.968L124.589 85.9685L127.085 89.5435H125.525L123.744 86.8655L121.95 89.5435H120.39L122.886 85.9685Z" fill="#887F98"/>
</g>
</svg>
