<svg width="250" height="232" viewBox="0 0 250 232" fill="none" xmlns="http://www.w3.org/2000/svg">
<path d="M233.654 231.681H142.941C134.022 231.681 126.716 224.38 126.716 215.467V16.2139C126.716 7.30149 134.022 0 142.941 0H233.654C242.572 0 249.879 7.30149 249.879 16.2139V215.467C249.879 224.38 242.572 231.681 233.654 231.681Z" fill="#2B478B"/>
<path d="M243.765 17.7412V212.371C243.765 218.982 238.406 224.38 231.832 224.38H144.741C138.189 224.38 132.808 218.982 132.808 212.371V17.7412C132.808 11.1301 138.168 5.7324 144.741 5.7324H231.832C238.406 5.7324 243.765 11.1301 243.765 17.7412Z" fill="#C0D8FB"/>
<path d="M231.832 5.7324L145.809 224.38H144.741C138.189 224.38 132.808 218.982 132.808 212.371V17.7412C132.808 11.1301 138.168 5.7324 144.741 5.7324H231.832Z" fill="#CBE1FD"/>
<path d="M206.501 12.9711H170.094C167.121 12.9711 164.693 10.5443 164.693 7.57346V6.73662C164.693 3.76581 167.121 1.33895 170.094 1.33895H206.501C209.473 1.33895 211.902 3.76581 211.902 6.73662V7.57346C211.881 10.5443 209.452 12.9711 206.501 12.9711Z" fill="#2B478B"/>
<path d="M82.5216 119.899H206.375C210.667 119.899 214.163 116.426 214.163 112.116V62.5542C214.163 58.2653 210.688 54.7715 206.375 54.7715H82.5216C78.2298 54.7715 74.7336 58.2444 74.7336 62.5542V112.116C74.7336 116.426 78.2089 119.899 82.5216 119.899Z" fill="#703CCF"/>
<path d="M207.233 46.5287H158.747C155.146 46.5287 152.236 43.6206 152.236 40.0222V30.8378C152.236 27.2394 155.146 24.3313 158.747 24.3313H207.212C210.813 24.3313 213.723 27.2394 213.723 30.8378V40.0222C213.744 43.6206 210.813 46.5287 207.233 46.5287Z" fill="#9ABFF6"/>
<path d="M166.682 189.692H150.373C149.808 189.692 149.347 189.232 149.347 188.667V188.186C149.347 187.621 149.808 187.161 150.373 187.161H166.682C167.247 187.161 167.708 187.621 167.708 188.186V188.667C167.708 189.232 167.247 189.692 166.682 189.692Z" fill="#699DEE"/>
<path d="M166.87 196.22H150.164C149.703 196.22 149.326 195.843 149.326 195.383C149.326 194.923 149.703 194.546 150.164 194.546H166.87C167.331 194.546 167.707 194.923 167.707 195.383C167.707 195.843 167.331 196.22 166.87 196.22Z" fill="#699DEE"/>
<path d="M159.48 200.153H149.975C149.619 200.153 149.347 199.86 149.347 199.525V199.128C149.347 198.772 149.64 198.5 149.975 198.5H159.48C159.836 198.5 160.108 198.793 160.108 199.128V199.525C160.108 199.86 159.836 200.153 159.48 200.153Z" fill="#699DEE"/>
<path d="M178.845 200.153H163.478C163.039 200.153 162.683 199.797 162.683 199.358V199.295C162.683 198.856 163.039 198.5 163.478 198.5H178.845C179.285 198.5 179.641 198.856 179.641 199.295V199.358C179.661 199.797 179.285 200.153 178.845 200.153Z" fill="#699DEE"/>
<path d="M193.207 196.22H171.287C170.827 196.22 170.45 195.843 170.45 195.383C170.45 194.923 170.827 194.546 171.287 194.546H193.207C193.667 194.546 194.044 194.923 194.044 195.383C194.044 195.843 193.667 196.22 193.207 196.22Z" fill="#699DEE"/>
<path d="M166.87 204.065H150.164C149.703 204.065 149.326 203.689 149.326 203.228C149.326 202.768 149.703 202.391 150.164 202.391H166.87C167.331 202.391 167.707 202.768 167.707 203.228C167.707 203.709 167.331 204.065 166.87 204.065Z" fill="#699DEE"/>
<path d="M193.207 204.065H171.287C170.827 204.065 170.45 203.689 170.45 203.228C170.45 202.768 170.827 202.391 171.287 202.391H193.207C193.667 202.391 194.044 202.768 194.044 203.228C194.044 203.709 193.667 204.065 193.207 204.065Z" fill="#699DEE"/>
<path d="M182.571 189.692H170.848C170.366 189.692 169.968 189.295 169.968 188.814V188.019C169.968 187.537 170.366 187.14 170.848 187.14H182.571C183.053 187.14 183.451 187.537 183.451 188.019V188.814C183.451 189.295 183.074 189.692 182.571 189.692Z" fill="#699DEE"/>
<path d="M177.505 31.1516H161.197C160.631 31.1516 160.171 30.6914 160.171 30.1265V29.6453C160.171 29.0804 160.631 28.6202 161.197 28.6202H177.505C178.071 28.6202 178.531 29.0804 178.531 29.6453V30.1265C178.531 30.6914 178.071 31.1516 177.505 31.1516Z" fill="#699DEE"/>
<path d="M177.694 37.679H160.987C160.527 37.679 160.15 37.3024 160.15 36.8422C160.15 36.3819 160.527 36.0053 160.987 36.0053H177.694C178.154 36.0053 178.531 36.3819 178.531 36.8422C178.531 37.3024 178.154 37.679 177.694 37.679Z" fill="#699DEE"/>
<path d="M170.303 41.5913H160.799C160.443 41.5913 160.171 41.2984 160.171 40.9636V40.5661C160.171 40.2105 160.464 39.9385 160.799 39.9385H170.303C170.659 39.9385 170.931 40.2314 170.931 40.5661V40.9636C170.931 41.3193 170.659 41.5913 170.303 41.5913Z" fill="#699DEE"/>
<path d="M189.669 41.5913H174.302C173.862 41.5913 173.506 41.2356 173.506 40.7963V40.7335C173.506 40.2942 173.862 39.9385 174.302 39.9385H189.669C190.108 39.9385 190.464 40.2942 190.464 40.7335V40.7963C190.464 41.2356 190.108 41.5913 189.669 41.5913Z" fill="#699DEE"/>
<path d="M204.03 37.679H182.111C181.65 37.679 181.273 37.3024 181.273 36.8422C181.273 36.3819 181.65 36.0053 182.111 36.0053H204.03C204.491 36.0053 204.868 36.3819 204.868 36.8422C204.868 37.3024 204.491 37.679 204.03 37.679Z" fill="#699DEE"/>
<path d="M193.395 31.1516H181.671C181.19 31.1516 180.792 30.7541 180.792 30.2729V29.4988C180.792 29.0177 181.19 28.6202 181.671 28.6202H193.395C193.877 28.6202 194.274 29.0177 194.274 29.4988V30.2939C194.274 30.7541 193.877 31.1516 193.395 31.1516Z" fill="#699DEE"/>
<g opacity="0.6">
<rect x="82" y="77.5435" width="17.4942" height="17.4942" rx="1" fill="white"/>
<path d="M90.1487 85.9685L87.7697 82.5365H89.3427L91.0067 85.0585L92.6707 82.5365H94.2307L91.8517 85.9685L94.3477 89.5435H92.7877L91.0067 86.8655L89.2127 89.5435H87.6527L90.1487 85.9685Z" fill="#887F98"/>
<rect x="103.494" y="77.5435" width="17.4942" height="17.4942" rx="1" fill="white"/>
<path d="M111.643 85.9685L109.264 82.5365H110.837L112.501 85.0585L114.165 82.5365H115.725L113.346 85.9685L115.842 89.5435H114.282L112.501 86.8655L110.707 89.5435H109.147L111.643 85.9685Z" fill="#887F98"/>
<rect x="124.988" y="77.5435" width="17.4942" height="17.4942" rx="1" fill="white"/>
<path d="M133.137 85.9685L130.758 82.5365H132.331L133.995 85.0585L135.659 82.5365H137.219L134.84 85.9685L137.336 89.5435H135.776L133.995 86.8655L132.201 89.5435H130.641L133.137 85.9685Z" fill="#887F98"/>
<rect x="146.482" y="77.5435" width="17.4942" height="17.4942" rx="1" fill="white"/>
<path d="M154.631 85.9685L152.252 82.5365H153.825L155.489 85.0585L157.153 82.5365H158.713L156.334 85.9685L158.83 89.5435H157.27L155.489 86.8655L153.695 89.5435H152.135L154.631 85.9685Z" fill="#887F98"/>
<rect x="167.977" y="77.5435" width="17.4942" height="17.4942" rx="1" fill="white"/>
<path d="M176.125 85.9685L173.746 82.5365H175.319L176.983 85.0585L178.647 82.5365H180.207L177.828 85.9685L180.324 89.5435H178.764L176.983 86.8655L175.189 89.5435H173.629L176.125 85.9685Z" fill="#887F98"/>
<rect x="189.471" y="77.5435" width="17.4942" height="17.4942" rx="1" fill="white"/>
<path d="M197.62 85.9685L195.241 82.5365H196.814L198.478 85.0585L200.142 82.5365H201.702L199.323 85.9685L201.819 89.5435H200.259L198.478 86.8655L196.684 89.5435H195.124L197.62 85.9685Z" fill="#887F98"/>
</g>
</svg>
