<svg width="250" height="233" viewBox="0 0 250 233" fill="none" xmlns="http://www.w3.org/2000/svg">
<path d="M233.654 232.138H142.941C134.022 232.138 126.716 224.836 126.716 215.924V16.6704C126.716 7.75803 134.022 0.456543 142.941 0.456543H233.654C242.572 0.456543 249.879 7.75803 249.879 16.6704V215.924C249.879 224.836 242.572 232.138 233.654 232.138Z" fill="#2B478B"/>
<path d="M243.765 18.1977V212.827C243.765 219.438 238.406 224.836 231.832 224.836H144.741C138.189 224.836 132.808 219.438 132.808 212.827V18.1977C132.808 11.5866 138.168 6.18895 144.741 6.18895H231.832C238.406 6.18895 243.765 11.5866 243.765 18.1977Z" fill="#C0D8FB"/>
<path d="M231.832 6.18895L145.809 224.836H144.741C138.189 224.836 132.808 219.438 132.808 212.827V18.1977C132.808 11.5866 138.168 6.18895 144.741 6.18895H231.832Z" fill="#CBE1FD"/>
<path d="M206.501 13.4277H170.094C167.121 13.4277 164.693 11.0008 164.693 8.03001V7.19316C164.693 4.22236 167.121 1.7955 170.094 1.7955H206.501C209.473 1.7955 211.902 4.22236 211.902 7.19316V8.03001C211.881 11.0008 209.452 13.4277 206.501 13.4277Z" fill="#2B478B"/>
<path d="M82.5216 120.356H206.375C210.667 120.356 214.163 116.883 214.163 112.573V63.0107C214.163 58.7219 210.688 55.228 206.375 55.228H82.5216C78.2298 55.228 74.7336 58.7009 74.7336 63.0107V112.573C74.7336 116.883 78.2089 120.356 82.5216 120.356Z" fill="#703CCF"/>
<path d="M207.233 46.9852H158.747C155.146 46.9852 152.236 44.0772 152.236 40.4787V31.2943C152.236 27.6959 155.146 24.7879 158.747 24.7879H207.212C210.813 24.7879 213.723 27.6959 213.723 31.2943V40.4787C213.744 44.0772 210.813 46.9852 207.233 46.9852Z" fill="#9ABFF6"/>
<path d="M166.682 190.149H150.373C149.808 190.149 149.347 189.689 149.347 189.124V188.643C149.347 188.078 149.808 187.617 150.373 187.617H166.682C167.247 187.617 167.708 188.078 167.708 188.643V189.124C167.708 189.689 167.247 190.149 166.682 190.149Z" fill="#699DEE"/>
<path d="M166.87 196.676H150.164C149.703 196.676 149.326 196.3 149.326 195.839C149.326 195.379 149.703 195.002 150.164 195.002H166.87C167.331 195.002 167.707 195.379 167.707 195.839C167.707 196.3 167.331 196.676 166.87 196.676Z" fill="#699DEE"/>
<path d="M159.48 200.609H149.975C149.619 200.609 149.347 200.316 149.347 199.982V199.584C149.347 199.229 149.64 198.957 149.975 198.957H159.48C159.836 198.957 160.108 199.249 160.108 199.584V199.982C160.108 200.316 159.836 200.609 159.48 200.609Z" fill="#699DEE"/>
<path d="M178.845 200.609H163.478C163.039 200.609 162.683 200.254 162.683 199.814V199.752C162.683 199.312 163.039 198.957 163.478 198.957H178.845C179.285 198.957 179.641 199.312 179.641 199.752V199.814C179.661 200.254 179.285 200.609 178.845 200.609Z" fill="#699DEE"/>
<path d="M193.207 196.676H171.287C170.827 196.676 170.45 196.3 170.45 195.839C170.45 195.379 170.827 195.002 171.287 195.002H193.207C193.667 195.002 194.044 195.379 194.044 195.839C194.044 196.3 193.667 196.676 193.207 196.676Z" fill="#699DEE"/>
<path d="M166.87 204.522H150.164C149.703 204.522 149.326 204.145 149.326 203.685C149.326 203.225 149.703 202.848 150.164 202.848H166.87C167.331 202.848 167.707 203.225 167.707 203.685C167.707 204.166 167.331 204.522 166.87 204.522Z" fill="#699DEE"/>
<path d="M193.207 204.522H171.287C170.827 204.522 170.45 204.145 170.45 203.685C170.45 203.225 170.827 202.848 171.287 202.848H193.207C193.667 202.848 194.044 203.225 194.044 203.685C194.044 204.166 193.667 204.522 193.207 204.522Z" fill="#699DEE"/>
<path d="M182.571 190.149H170.848C170.366 190.149 169.968 189.751 169.968 189.27V188.475C169.968 187.994 170.366 187.596 170.848 187.596H182.571C183.053 187.596 183.451 187.994 183.451 188.475V189.27C183.451 189.751 183.074 190.149 182.571 190.149Z" fill="#699DEE"/>
<path d="M177.505 31.6082H161.197C160.631 31.6082 160.171 31.1479 160.171 30.583V30.1018C160.171 29.537 160.631 29.0767 161.197 29.0767H177.505C178.071 29.0767 178.531 29.537 178.531 30.1018V30.583C178.531 31.1479 178.071 31.6082 177.505 31.6082Z" fill="#699DEE"/>
<path d="M177.694 38.1356H160.987C160.527 38.1356 160.15 37.759 160.15 37.2987C160.15 36.8385 160.527 36.4619 160.987 36.4619H177.694C178.154 36.4619 178.531 36.8385 178.531 37.2987C178.531 37.759 178.154 38.1356 177.694 38.1356Z" fill="#699DEE"/>
<path d="M170.303 42.0478H160.799C160.443 42.0478 160.171 41.7549 160.171 41.4202V41.0227C160.171 40.667 160.464 40.3951 160.799 40.3951H170.303C170.659 40.3951 170.931 40.688 170.931 41.0227V41.4202C170.931 41.7759 170.659 42.0478 170.303 42.0478Z" fill="#699DEE"/>
<path d="M189.669 42.0478H174.302C173.862 42.0478 173.506 41.6922 173.506 41.2528V41.1901C173.506 40.7507 173.862 40.3951 174.302 40.3951H189.669C190.108 40.3951 190.464 40.7507 190.464 41.1901V41.2528C190.464 41.6922 190.108 42.0478 189.669 42.0478Z" fill="#699DEE"/>
<path d="M204.03 38.1356H182.111C181.65 38.1356 181.273 37.759 181.273 37.2987C181.273 36.8385 181.65 36.4619 182.111 36.4619H204.03C204.491 36.4619 204.868 36.8385 204.868 37.2987C204.868 37.759 204.491 38.1356 204.03 38.1356Z" fill="#699DEE"/>
<path d="M193.395 31.6082H181.671C181.19 31.6082 180.792 31.2107 180.792 30.7295V29.9554C180.792 29.4742 181.19 29.0767 181.671 29.0767H193.395C193.877 29.0767 194.274 29.4742 194.274 29.9554V30.7504C194.274 31.2107 193.877 31.6082 193.395 31.6082Z" fill="#699DEE"/>
<g opacity="0.6">
<rect x="82" y="78" width="17.4942" height="17.4942" rx="1" fill="white"/>
<path d="M90.1487 86.425L87.7697 82.993H89.3427L91.0067 85.515L92.6707 82.993H94.2307L91.8517 86.425L94.3477 90H92.7877L91.0067 87.322L89.2127 90H87.6527L90.1487 86.425Z" fill="#887F98"/>
<rect x="103.494" y="78" width="17.4942" height="17.4942" rx="1" fill="white"/>
<path d="M111.643 86.425L109.264 82.993H110.837L112.501 85.515L114.165 82.993H115.725L113.346 86.425L115.842 90H114.282L112.501 87.322L110.707 90H109.147L111.643 86.425Z" fill="#887F98"/>
<rect x="124.988" y="78" width="17.4942" height="17.4942" rx="1" fill="white"/>
<path d="M133.137 86.425L130.758 82.993H132.331L133.995 85.515L135.659 82.993H137.219L134.84 86.425L137.336 90H135.776L133.995 87.322L132.201 90H130.641L133.137 86.425Z" fill="#887F98"/>
<rect x="146.482" y="78" width="17.4942" height="17.4942" rx="1" fill="white"/>
<path d="M154.631 86.425L152.252 82.993H153.825L155.489 85.515L157.153 82.993H158.713L156.334 86.425L158.83 90H157.27L155.489 87.322L153.695 90H152.135L154.631 86.425Z" fill="#887F98"/>
<rect x="167.977" y="78" width="17.4942" height="17.4942" rx="1" fill="white"/>
<path d="M176.125 86.425L173.746 82.993H175.319L176.983 85.515L178.647 82.993H180.207L177.828 86.425L180.324 90H178.764L176.983 87.322L175.189 90H173.629L176.125 86.425Z" fill="#887F98"/>
<rect x="189.471" y="78" width="17.4942" height="17.4942" rx="1" fill="white"/>
<path d="M197.62 86.425L195.241 82.993H196.814L198.478 85.515L200.142 82.993H201.702L199.323 86.425L201.819 90H200.259L198.478 87.322L196.684 90H195.124L197.62 86.425Z" fill="#887F98"/>
</g>
</svg>
