<svg width="250" height="259" viewBox="0 0 250 259" fill="none" xmlns="http://www.w3.org/2000/svg">
<path d="M233.654 259H142.941C134.022 259 126.716 250.852 126.716 240.906V18.5504C126.716 8.60461 134.022 0.456543 142.941 0.456543H233.654C242.572 0.456543 249.879 8.60461 249.879 18.5504V240.906C249.879 250.852 242.572 259 233.654 259Z" fill="#2B478B"/>
<path d="M243.765 20.2547V237.451C243.765 244.828 238.406 250.852 231.832 250.852H144.741C138.189 250.852 132.808 244.828 132.808 237.451V20.2547C132.808 12.8771 138.168 6.85359 144.741 6.85359H231.832C238.406 6.85359 243.765 12.8771 243.765 20.2547Z" fill="#C0D8FB"/>
<path d="M231.832 6.85359L145.809 250.852H144.741C138.189 250.852 132.808 244.828 132.808 237.451V20.2547C132.808 12.8771 138.168 6.85359 144.741 6.85359H231.832Z" fill="#CBE1FD"/>
<path d="M206.501 14.9316H170.094C167.121 14.9316 164.693 12.2234 164.693 8.90812V7.97424C164.693 4.65898 167.121 1.95074 170.094 1.95074H206.501C209.473 1.95074 211.902 4.65898 211.902 7.97424V8.90812C211.881 12.2234 209.452 14.9316 206.501 14.9316Z" fill="#2B478B"/>
<path d="M82.5216 134.257H206.375C210.667 134.257 214.163 130.382 214.163 125.572V70.2636C214.163 65.4775 210.688 61.5786 206.375 61.5786H82.5216C78.2298 61.5786 74.7336 65.4541 74.7336 70.2636V125.572C74.7336 130.382 78.2089 134.257 82.5216 134.257Z" fill="#703CCF"/>
<path d="M207.233 52.38H158.747C155.146 52.38 152.236 49.1348 152.236 45.1191V34.8698C152.236 30.8542 155.146 27.609 158.747 27.609H207.212C210.813 27.609 213.723 30.8542 213.723 34.8698V45.1191C213.744 49.1348 210.813 52.38 207.233 52.38Z" fill="#9ABFF6"/>
<path d="M166.682 212.143H150.373C149.808 212.143 149.347 211.629 149.347 210.999V210.462C149.347 209.832 149.808 209.318 150.373 209.318H166.682C167.247 209.318 167.708 209.832 167.708 210.462V210.999C167.708 211.629 167.247 212.143 166.682 212.143Z" fill="#699DEE"/>
<path d="M166.87 219.427H150.164C149.703 219.427 149.326 219.007 149.326 218.493C149.326 217.98 149.703 217.559 150.164 217.559H166.87C167.331 217.559 167.707 217.98 167.707 218.493C167.707 219.007 167.331 219.427 166.87 219.427Z" fill="#699DEE"/>
<path d="M159.48 223.816H149.975C149.619 223.816 149.347 223.489 149.347 223.116V222.672C149.347 222.275 149.64 221.972 149.975 221.972H159.48C159.836 221.972 160.108 222.299 160.108 222.672V223.116C160.108 223.489 159.836 223.816 159.48 223.816Z" fill="#699DEE"/>
<path d="M178.845 223.816H163.478C163.039 223.816 162.683 223.419 162.683 222.929V222.859C162.683 222.369 163.039 221.972 163.478 221.972H178.845C179.285 221.972 179.641 222.369 179.641 222.859V222.929C179.661 223.419 179.285 223.816 178.845 223.816Z" fill="#699DEE"/>
<path d="M193.207 219.427H171.287C170.827 219.427 170.45 219.007 170.45 218.493C170.45 217.98 170.827 217.559 171.287 217.559H193.207C193.667 217.559 194.044 217.98 194.044 218.493C194.044 219.007 193.667 219.427 193.207 219.427Z" fill="#699DEE"/>
<path d="M166.87 228.182H150.164C149.703 228.182 149.326 227.762 149.326 227.248C149.326 226.735 149.703 226.314 150.164 226.314H166.87C167.331 226.314 167.707 226.735 167.707 227.248C167.707 227.785 167.331 228.182 166.87 228.182Z" fill="#699DEE"/>
<path d="M193.207 228.182H171.287C170.827 228.182 170.45 227.762 170.45 227.248C170.45 226.735 170.827 226.314 171.287 226.314H193.207C193.667 226.314 194.044 226.735 194.044 227.248C194.044 227.785 193.667 228.182 193.207 228.182Z" fill="#699DEE"/>
<path d="M182.571 212.143H170.848C170.366 212.143 169.968 211.699 169.968 211.162V210.275C169.968 209.738 170.366 209.294 170.848 209.294H182.571C183.053 209.294 183.451 209.738 183.451 210.275V211.162C183.451 211.699 183.074 212.143 182.571 212.143Z" fill="#699DEE"/>
<path d="M177.505 35.2201H161.197C160.631 35.2201 160.171 34.7064 160.171 34.0761V33.5391C160.171 32.9087 160.631 32.3951 161.197 32.3951H177.505C178.071 32.3951 178.531 32.9087 178.531 33.5391V34.0761C178.531 34.7064 178.071 35.2201 177.505 35.2201Z" fill="#699DEE"/>
<path d="M177.694 42.5043H160.987C160.527 42.5043 160.15 42.0841 160.15 41.5704C160.15 41.0568 160.527 40.6366 160.987 40.6366H177.694C178.154 40.6366 178.531 41.0568 178.531 41.5704C178.531 42.0841 178.154 42.5043 177.694 42.5043Z" fill="#699DEE"/>
<path d="M170.303 46.8702H160.799C160.443 46.8702 160.171 46.5433 160.171 46.1698V45.7262C160.171 45.3293 160.464 45.0258 160.799 45.0258H170.303C170.659 45.0258 170.931 45.3526 170.931 45.7262V46.1698C170.931 46.5667 170.659 46.8702 170.303 46.8702Z" fill="#699DEE"/>
<path d="M189.669 46.8702H174.302C173.862 46.8702 173.506 46.4733 173.506 45.983V45.913C173.506 45.4227 173.862 45.0258 174.302 45.0258H189.669C190.108 45.0258 190.464 45.4227 190.464 45.913V45.983C190.464 46.4733 190.108 46.8702 189.669 46.8702Z" fill="#699DEE"/>
<path d="M204.03 42.5043H182.111C181.65 42.5043 181.273 42.0841 181.273 41.5704C181.273 41.0568 181.65 40.6366 182.111 40.6366H204.03C204.491 40.6366 204.868 41.0568 204.868 41.5704C204.868 42.0841 204.491 42.5043 204.03 42.5043Z" fill="#699DEE"/>
<path d="M193.395 35.2201H181.671C181.19 35.2201 180.792 34.7765 180.792 34.2395V33.3757C180.792 32.8387 181.19 32.3951 181.671 32.3951H193.395C193.877 32.3951 194.274 32.8387 194.274 33.3757V34.2628C194.274 34.7765 193.877 35.2201 193.395 35.2201Z" fill="#699DEE"/>
<g opacity="0.6">
<rect x="82" y="89.0192" width="17.4942" height="17.4942" rx="1" fill="white"/>
<path d="M90.1487 97.4442L87.7697 94.0122H89.3427L91.0067 96.5342L92.6707 94.0122H94.2307L91.8517 97.4442L94.3477 101.019H92.7877L91.0067 98.3412L89.2127 101.019H87.6527L90.1487 97.4442Z" fill="#887F98"/>
<rect x="103.494" y="89.0192" width="17.4942" height="17.4942" rx="1" fill="white"/>
<path d="M111.643 97.4442L109.264 94.0122H110.837L112.501 96.5342L114.165 94.0122H115.725L113.346 97.4442L115.842 101.019H114.282L112.501 98.3412L110.707 101.019H109.147L111.643 97.4442Z" fill="#887F98"/>
<rect x="124.988" y="89.0192" width="17.4942" height="17.4942" rx="1" fill="white"/>
<path d="M133.137 97.4442L130.758 94.0122H132.331L133.995 96.5342L135.659 94.0122H137.219L134.84 97.4442L137.336 101.019H135.776L133.995 98.3412L132.201 101.019H130.641L133.137 97.4442Z" fill="#887F98"/>
<rect x="146.482" y="89.0192" width="17.4942" height="17.4942" rx="1" fill="white"/>
<path d="M154.631 97.4442L152.252 94.0122H153.825L155.489 96.5342L157.153 94.0122H158.713L156.334 97.4442L158.83 101.019H157.27L155.489 98.3412L153.695 101.019H152.135L154.631 97.4442Z" fill="#887F98"/>
<rect x="167.977" y="89.0192" width="17.4942" height="17.4942" rx="1" fill="white"/>
<path d="M176.125 97.4442L173.746 94.0122H175.319L176.983 96.5342L178.647 94.0122H180.207L177.828 97.4442L180.324 101.019H178.764L176.983 98.3412L175.189 101.019H173.629L176.125 97.4442Z" fill="#887F98"/>
<rect x="189.471" y="89.0192" width="17.4942" height="17.4942" rx="1" fill="white"/>
<path d="M197.62 97.4442L195.241 94.0122H196.814L198.478 96.5342L200.142 94.0122H201.702L199.323 97.4442L201.819 101.019H200.259L198.478 98.3412L196.684 101.019H195.124L197.62 97.4442Z" fill="#887F98"/>
</g>
</svg>
