<svg width="20" height="24" viewBox="0 0 20 24" fill="none" xmlns="http://www.w3.org/2000/svg">
<path d="M16.8 0H8.196C7.56 0 6.948 0.252 6.492 0.708L0.708 6.492C0.252 6.948 0 7.56 0 8.196V21.6C0 22.92 1.08 24 2.4 24H16.8C18.12 24 19.2 22.92 19.2 21.6V2.4C19.2 1.08 18.12 0 16.8 0ZM9.18 17.58L5.832 14.232C5.448 13.848 5.712 13.2 6.252 13.2H8.4V9.612C8.39998 9.29581 8.52476 8.99239 8.74722 8.76769C8.96967 8.54298 9.27182 8.41516 9.588 8.412C9.7469 8.40928 9.90474 8.43836 10.0522 8.49755C10.1997 8.55674 10.3339 8.64484 10.4468 8.75666C10.5598 8.86847 10.6492 9.00175 10.7098 9.14864C10.7705 9.29554 10.8011 9.45308 10.8 9.612V13.2H12.948C13.488 13.2 13.752 13.848 13.368 14.22L10.02 17.568C9.792 17.808 9.408 17.808 9.18 17.58Z" fill="#703CCF"/>
</svg>
