<svg width="35" height="35" viewBox="0 0 35 35" fill="none" xmlns="http://www.w3.org/2000/svg">
<path d="M3.33333 28.3333V10V28.3333ZM3.33333 31.6667C2.41667 31.6667 1.63222 31.3406 0.98 30.6883C0.326667 30.035 0 29.25 0 28.3333V10C0 9.08333 0.326667 8.29889 0.98 7.64667C1.63222 6.99333 2.41667 6.66667 3.33333 6.66667H10V3.33333C10 2.41667 10.3267 1.63167 10.98 0.978333C11.6322 0.326111 12.4167 0 13.3333 0H20C20.9167 0 21.7017 0.326111 22.355 0.978333C23.0072 1.63167 23.3333 2.41667 23.3333 3.33333V6.66667H30C30.9167 6.66667 31.7017 6.99333 32.355 7.64667C33.0072 8.29889 33.3333 9.08333 33.3333 10V17.125C32.8333 16.7639 32.3056 16.4511 31.75 16.1867C31.1944 15.9233 30.6111 15.6944 30 15.5V10H3.33333V28.3333H15.125C15.2083 28.9167 15.3333 29.4861 15.5 30.0417C15.6667 30.5972 15.875 31.1389 16.125 31.6667H3.33333ZM13.3333 6.66667H20V3.33333H13.3333V6.66667ZM26.6667 35C24.3611 35 22.3961 34.1878 20.7717 32.5633C19.1461 30.9378 18.3333 28.9722 18.3333 26.6667C18.3333 24.3611 19.1461 22.3956 20.7717 20.77C22.3961 19.1456 24.3611 18.3333 26.6667 18.3333C28.9722 18.3333 30.9378 19.1456 32.5633 20.77C34.1878 22.3956 35 24.3611 35 26.6667C35 28.9722 34.1878 30.9378 32.5633 32.5633C30.9378 34.1878 28.9722 35 26.6667 35ZM29.4167 30.5833L30.5833 29.4167L27.5 26.3333V21.6667H25.8333V27L29.4167 30.5833Z" fill="#703CCF"/>
</svg>
