<svg width="24" height="22" viewBox="0 0 24 22" fill="none" xmlns="http://www.w3.org/2000/svg">
<path d="M19.1933 17.3939V18.8934C19.1933 19.6092 18.9089 20.2957 18.4027 20.8019C17.8966 21.3081 17.2101 21.5924 16.4942 21.5924H7.49738C6.78154 21.5924 6.09503 21.3081 5.58886 20.8019C5.08269 20.2957 4.79832 19.6092 4.79832 18.8934V17.3927L2.69906 17.3939C1.98322 17.3939 1.29671 17.1095 0.790535 16.6034C0.284364 16.0972 0 15.4107 0 14.6949V7.50217C0 6.46819 0.410748 5.47656 1.14188 4.74542C1.87302 4.01429 2.86465 3.60354 3.89864 3.60354L4.79712 3.60234L4.79832 2.69906C4.79832 1.98322 5.08269 1.29671 5.58886 0.790535C6.09503 0.284364 6.78154 0 7.49738 0H16.4966C17.2125 0 17.899 0.284364 18.4051 0.790535C18.9113 1.29671 19.1957 1.98322 19.1957 2.69906V3.60234H20.0954C21.1294 3.60297 22.1209 4.01385 22.8523 4.74478C23.5836 5.47571 23.9951 6.46697 23.9964 7.50098L24 14.6949C24.0002 15.0491 23.9305 15.4 23.7951 15.7274C23.6597 16.0548 23.4611 16.3523 23.2107 16.6029C22.9603 16.8535 22.6629 17.0524 22.3357 17.1881C22.0084 17.3238 21.6576 17.3938 21.3033 17.3939H19.1933ZM16.4942 12.5956H7.49738C7.25877 12.5956 7.02993 12.6904 6.8612 12.8591C6.69248 13.0278 6.59769 13.2567 6.59769 13.4953V18.8934C6.59769 19.39 7.00075 19.7931 7.49738 19.7931H16.4942C16.7328 19.7931 16.9617 19.6983 17.1304 19.5296C17.2991 19.3608 17.3939 19.132 17.3939 18.8934V13.4953C17.3939 13.2567 17.2991 13.0278 17.1304 12.8591C16.9617 12.6904 16.7328 12.5956 16.4942 12.5956V12.5956ZM16.4966 1.79937H7.49738C7.25877 1.79937 7.02993 1.89416 6.8612 2.06288C6.69248 2.23161 6.59769 2.46044 6.59769 2.69906L6.59649 3.60234H17.3963V2.69906C17.3963 2.46044 17.3015 2.23161 17.1328 2.06288C16.9641 1.89416 16.7352 1.79937 16.4966 1.79937V1.79937Z" fill="#703CCF"/>
</svg>
