<svg width="28" height="35" viewBox="0 0 28 35" fill="none" xmlns="http://www.w3.org/2000/svg">
<path d="M6.25 20H16.25V22.5H6.25V20ZM6.25 13.75H21.25V16.25H6.25V13.75ZM6.25 26.25H12.5V28.75H6.25V26.25Z" fill="#703CCF"/>
<path d="M25 3.75H21.25V2.5C21.25 1.83696 20.9866 1.20107 20.5178 0.732233C20.0489 0.263392 19.413 0 18.75 0H8.75C8.08696 0 7.45107 0.263392 6.98223 0.732233C6.51339 1.20107 6.25 1.83696 6.25 2.5V3.75H2.5C1.83696 3.75 1.20107 4.01339 0.732233 4.48223C0.263392 4.95107 0 5.58696 0 6.25V32.5C0 33.163 0.263392 33.7989 0.732233 34.2678C1.20107 34.7366 1.83696 35 2.5 35H25C25.663 35 26.2989 34.7366 26.7678 34.2678C27.2366 33.7989 27.5 33.163 27.5 32.5V6.25C27.5 5.58696 27.2366 4.95107 26.7678 4.48223C26.2989 4.01339 25.663 3.75 25 3.75ZM8.75 2.5H18.75V7.5H8.75V2.5ZM25 32.5H2.5V6.25H6.25V10H21.25V6.25H25V32.5Z" fill="#703CCF"/>
</svg>
