<svg width="16" height="20" viewBox="0 0 16 20" fill="none" xmlns="http://www.w3.org/2000/svg">
<path d="M11.4284 9.99999H12.8569V11.4286H11.4284V9.99999ZM2.85693 9.99999H8.57122V11.4286H2.85693V9.99999ZM11.4284 7.14285H12.8569V8.57142H11.4284V7.14285ZM2.85693 7.14285H8.57122V8.57142H2.85693V7.14285ZM2.85693 4.28571H12.8569V5.71428H2.85693V4.28571Z" fill="#703CCF"/>
<path d="M14.2857 0H1.42857C1.04981 0.000378198 0.686664 0.151009 0.418837 0.418837C0.15101 0.686664 0.000378198 1.04981 0 1.42857V19.2857C0 19.4752 0.075255 19.6568 0.20921 19.7908C0.343164 19.9247 0.524845 20 0.714286 20H1.42857C1.53947 20.0001 1.64886 19.9743 1.74805 19.9247C1.84724 19.8751 1.93351 19.803 2 19.7143L3.57143 17.6193L5.14286 19.7143C5.21221 19.7988 5.29942 19.8668 5.39823 19.9136C5.49704 19.9603 5.60498 19.9845 5.71429 19.9845C5.82359 19.9845 5.93153 19.9603 6.03034 19.9136C6.12915 19.8668 6.21637 19.7988 6.28571 19.7143L7.85714 17.6193L9.42857 19.7143C9.49792 19.7988 9.58514 19.8668 9.68395 19.9136C9.78276 19.9603 9.8907 19.9845 10 19.9845C10.1093 19.9845 10.2172 19.9603 10.3161 19.9136C10.4149 19.8668 10.5021 19.7988 10.5714 19.7143L12.1429 17.6193L13.7143 19.7143C13.7808 19.803 13.8671 19.875 13.9663 19.9246C14.0655 19.9742 14.1748 20 14.2857 20H15C15.1894 20 15.3711 19.9247 15.5051 19.7908C15.639 19.6568 15.7143 19.4752 15.7143 19.2857V1.42857C15.7139 1.04981 15.5633 0.686664 15.2955 0.418837C15.0276 0.151009 14.6645 0.000378198 14.2857 0ZM14.2857 18.095L12.7143 16C12.6449 15.9155 12.5577 15.8475 12.4589 15.8007C12.3601 15.754 12.2522 15.7298 12.1429 15.7298C12.0336 15.7298 11.9256 15.754 11.8268 15.8007C11.728 15.8475 11.6408 15.9155 11.5714 16L10 18.095L8.42857 16C8.35922 15.9155 8.272 15.8475 8.17319 15.8007C8.07439 15.754 7.96644 15.7298 7.85714 15.7298C7.74784 15.7298 7.6399 15.754 7.54109 15.8007C7.44228 15.8475 7.35506 15.9155 7.28571 16L5.71429 18.095L4.14286 16C4.07351 15.9155 3.98629 15.8475 3.88748 15.8007C3.78867 15.754 3.68073 15.7298 3.57143 15.7298C3.46213 15.7298 3.35419 15.754 3.25538 15.8007C3.15657 15.8475 3.06935 15.9155 3 16L1.42857 18.095V1.42857H14.2857V18.095Z" fill="#703CCF"/>
</svg>
