<svg width="24" height="24" viewBox="0 0 24 24" fill="none" xmlns="http://www.w3.org/2000/svg">
<path d="M1.82282 0.12503L23.2757 10.3851C23.4925 10.4887 23.6756 10.6515 23.8038 10.8547C23.932 11.058 24 11.2934 24 11.5336C24 11.7739 23.932 12.0093 23.8038 12.2125C23.6756 12.4158 23.4925 12.5786 23.2757 12.6821L1.82282 22.9423C1.6029 23.0476 1.35735 23.0875 1.11538 23.0573C0.873407 23.0271 0.645209 22.928 0.457932 22.7719C0.270656 22.6157 0.132186 22.409 0.0589975 22.1764C-0.0141906 21.9438 -0.0190159 21.6951 0.0450961 21.4598L2.1914 13.5914C2.21767 13.4949 2.27175 13.4084 2.34689 13.3425C2.42203 13.2766 2.51491 13.2342 2.61394 13.2208L13.0095 11.8085C13.0529 11.8024 13.094 11.7851 13.1288 11.7583C13.1636 11.7315 13.1909 11.6962 13.208 11.6558L13.2263 11.5927C13.2344 11.5359 13.223 11.478 13.1939 11.4284C13.1649 11.3789 13.12 11.3406 13.0665 11.3198L13.0105 11.3046L2.62514 9.89235C2.52629 9.87869 2.43363 9.83627 2.35869 9.77038C2.28375 9.70449 2.22982 9.61802 2.20362 9.52173L0.0450961 1.60851C-0.0192755 1.37317 -0.0146467 1.12429 0.0584311 0.891509C0.131509 0.658729 0.269956 0.451859 0.457282 0.29554C0.644608 0.13922 0.872919 0.0400383 1.11502 0.00980805C1.35712 -0.0204222 1.60281 0.019573 1.82282 0.12503Z" fill="#703CCF"/>
</svg>
