<svg width="20" height="21" viewBox="0 0 20 21" fill="none" xmlns="http://www.w3.org/2000/svg">
<path d="M12.3457 2.56094C12.3076 2.53038 12.2638 2.50766 12.2169 2.4941C12.17 2.48053 12.1208 2.47638 12.0723 2.48189C12.0238 2.4874 11.9768 2.50245 11.9341 2.52619C11.8914 2.54993 11.8538 2.58187 11.8235 2.62019L8.41417 6.92505H6.52469L10.6629 1.70026C10.8143 1.50899 11.0021 1.34953 11.2154 1.23105C11.4286 1.11257 11.6632 1.03741 11.9056 1.00987C12.1481 0.982343 12.3935 1.00299 12.6279 1.07062C12.8624 1.13826 13.0811 1.25155 13.2716 1.40399L17.0839 4.45783C17.4443 4.74666 17.6838 5.15978 17.7554 5.61611C17.8269 6.07244 17.7253 6.53903 17.4705 6.92431H15.5344L16.2062 6.14511C16.2387 6.10742 16.2633 6.06356 16.2785 6.01615C16.2937 5.96874 16.2992 5.91876 16.2946 5.86918C16.29 5.81961 16.2755 5.77146 16.2519 5.72762C16.2283 5.68378 16.1961 5.64515 16.1573 5.61404L14.3026 4.12822L12.1043 6.92505H10.22L13.1457 3.20237L12.3457 2.56094V2.56094ZM2.22205 4.70299C1.63273 4.70299 1.06754 4.9371 0.650824 5.35382C0.234108 5.77053 0 6.33572 0 6.92505V17.665C0 18.549 0.351163 19.3967 0.976236 20.0218C1.60131 20.6469 2.44909 20.998 3.33308 20.998H15.9247C16.8087 20.998 17.6565 20.6469 18.2816 20.0218C18.9066 19.3967 19.2578 18.549 19.2578 17.665V10.9988C19.2578 10.1148 18.9066 9.26704 18.2816 8.64197C17.6565 8.01689 16.8087 7.66573 15.9247 7.66573H2.22205C2.02561 7.66573 1.83722 7.5877 1.69831 7.44879C1.5594 7.30988 1.48137 7.12149 1.48137 6.92505C1.48137 6.72861 1.5594 6.54021 1.69831 6.4013C1.83722 6.2624 2.02561 6.18436 2.22205 6.18436H5.61439L6.79652 4.70299H2.22205ZM13.3323 13.5912H15.5544C15.7508 13.5912 15.9392 13.6692 16.0781 13.8081C16.217 13.9471 16.2951 14.1354 16.2951 14.3319C16.2951 14.5283 16.217 14.7167 16.0781 14.8556C15.9392 14.9945 15.7508 15.0726 15.5544 15.0726H13.3323C13.1359 15.0726 12.9475 14.9945 12.8086 14.8556C12.6697 14.7167 12.5916 14.5283 12.5916 14.3319C12.5916 14.1354 12.6697 13.9471 12.8086 13.8081C12.9475 13.6692 13.1359 13.5912 13.3323 13.5912Z" fill="#B4B4B4"/>
</svg>
