<svg width="20" height="20" viewBox="0 0 20 20" fill="none" xmlns="http://www.w3.org/2000/svg">
<path d="M20 14.3821C19.9996 15.6932 19.5321 16.9648 18.675 17.9864C17.8179 19.008 16.6226 19.7184 15.287 20L14.649 18.1651C15.2332 18.0728 15.7888 17.8575 16.2758 17.5346C16.7627 17.2116 17.1689 16.7891 17.465 16.2976H15C14.4696 16.2976 13.9609 16.0956 13.5858 15.736C13.2107 15.3764 13 14.8887 13 14.3802V10.5455C13 10.037 13.2107 9.54929 13.5858 9.18971C13.9609 8.83014 14.4696 8.62813 15 8.62813H17.938C17.694 6.7749 16.7529 5.07072 15.2914 3.83537C13.8299 2.60002 11.9484 1.91839 10 1.91839C8.05155 1.91839 6.17007 2.60002 4.70857 3.83537C3.24708 5.07072 2.30603 6.7749 2.062 8.62813H5C5.53043 8.62813 6.03914 8.83014 6.41421 9.18971C6.78929 9.54929 7 10.037 7 10.5455V14.3802C7 14.8887 6.78929 15.3764 6.41421 15.736C6.03914 16.0956 5.53043 16.2976 5 16.2976H2C1.46957 16.2976 0.960859 16.0956 0.585786 15.736C0.210714 15.3764 0 14.8887 0 14.3802V9.58681C0 4.29201 4.477 0 10 0C15.523 0 20 4.29201 20 9.58681V14.3821Z" fill="#B4B4B4"/>
</svg>
